<?xml version="1.0" encoding="UTF-8"?>
<svg xmlns="http://www.w3.org/2000/svg"
     xmlns:xlink="http://www.w3.org/1999/xlink"
     version="1.2"
     width="203.2mm" height="203.2mm" viewBox="0 0 203.2 203.2"
     stroke="none"
     fill="#000000"
     stroke-width="0.3"
     font-size="3.88"
>
<g stroke-width="0.77" stroke="#BBBBBB" id="img-20ee246f-1">
  <g transform="translate(91.43,52.57)">
    <path fill="none" d="M1.12,3.08 L -1.12 -3.08" class="primitive"/>
  </g>
  <g transform="translate(89.19,52.57)">
    <path fill="none" d="M-1.12,3.08 L 1.12 -3.08" class="primitive"/>
  </g>
  <g transform="translate(90.31,53.53)">
    <path fill="none" d="M0,4.04 L 0 -4.04" class="primitive"/>
  </g>
  <g transform="translate(98.94,110.33)">
    <path fill="none" d="M-1.66,-2.83 L 1.66 2.83" class="primitive"/>
  </g>
  <g transform="translate(101.15,109.93)">
    <path fill="none" d="M0.54,-3.23 L -0.54 3.23" class="primitive"/>
  </g>
  <g transform="translate(95.46,85.37)">
    <path fill="none" d="M-5.15,-27.79 L 5.15 27.79" class="primitive"/>
  </g>
  <g transform="translate(176.6,171.87)">
    <path fill="none" d="M-2.12,-2.5 L 2.12 2.5" class="primitive"/>
  </g>
  <g transform="translate(178.71,171.09)">
    <path fill="none" d="M-0.02,-3.28 L 0.02 3.28" class="primitive"/>
  </g>
  <g transform="translate(168.38,146.45)">
    <path fill="none" d="M-10.34,-27.92 L 10.34 27.92" class="primitive"/>
  </g>
  <g transform="translate(144.27,58.82)">
    <path fill="none" d="M1.84,2.72 L -1.84 -2.72" class="primitive"/>
  </g>
  <g transform="translate(142.1,59.36)">
    <path fill="none" d="M-0.34,3.26 L 0.34 -3.26" class="primitive"/>
  </g>
  <g transform="translate(150.24,87.32)">
    <path fill="none" d="M7.8,31.22 L -7.8 -31.22" class="primitive"/>
  </g>
  <g transform="translate(162.06,126.16)">
    <path fill="none" d="M2.12,2.5 L -2.12 -2.5" class="primitive"/>
  </g>
  <g transform="translate(159.96,126.94)">
    <path fill="none" d="M0.02,3.28 L -0.02 -3.28" class="primitive"/>
  </g>
  <g transform="translate(170.28,151.58)">
    <path fill="none" d="M10.34,27.92 L -10.34 -27.92" class="primitive"/>
  </g>
  <g transform="translate(155.3,178.37)">
    <path fill="none" d="M3.08,-1.12 L -3.08 1.12" class="primitive"/>
  </g>
  <g transform="translate(155.3,180.61)">
    <path fill="none" d="M3.08,1.12 L -3.08 -1.12" class="primitive"/>
  </g>
  <g transform="translate(166.42,179.49)">
    <path fill="none" d="M14.2,0 L -14.2 0" class="primitive"/>
  </g>
  <g transform="translate(89.19,49.03)">
    <path fill="none" d="M-1.12,-3.08 L 1.12 3.08" class="primitive"/>
  </g>
  <g transform="translate(91.43,49.03)">
    <path fill="none" d="M1.12,-3.08 L -1.12 3.08" class="primitive"/>
  </g>
  <g transform="translate(90.31,48.07)">
    <path fill="none" d="M0,-4.04 L 0 4.04" class="primitive"/>
  </g>
  <g transform="translate(132.49,50.78)">
    <path fill="none" d="M-3.2,0.7 L 3.2 -0.7" class="primitive"/>
  </g>
  <g transform="translate(132.79,48.56)">
    <path fill="none" d="M-2.91,-1.52 L 2.91 1.52" class="primitive"/>
  </g>
  <g transform="translate(113,47.05)">
    <path fill="none" d="M-22.69,-3.03 L 22.69 3.03" class="primitive"/>
  </g>
  <g transform="translate(154.88,110.51)">
    <path fill="none" d="M-1.84,-2.72 L 1.84 2.72" class="primitive"/>
  </g>
  <g transform="translate(157.06,109.97)">
    <path fill="none" d="M0.34,-3.26 L -0.34 3.26" class="primitive"/>
  </g>
  <g transform="translate(148.92,82.02)">
    <path fill="none" d="M-7.8,-31.22 L 7.8 31.22" class="primitive"/>
  </g>
  <g transform="translate(98.93,44.04)">
    <path fill="none" d="M3.2,-0.7 L -3.2 0.7" class="primitive"/>
  </g>
  <g transform="translate(98.63,46.27)">
    <path fill="none" d="M2.91,1.52 L -2.91 -1.52" class="primitive"/>
  </g>
  <g transform="translate(118.42,47.77)">
    <path fill="none" d="M22.69,3.03 L -22.69 -3.03" class="primitive"/>
  </g>
  <g transform="translate(172.08,180.61)">
    <path fill="none" d="M-3.08,1.12 L 3.08 -1.12" class="primitive"/>
  </g>
  <g transform="translate(172.08,178.37)">
    <path fill="none" d="M-3.08,-1.12 L 3.08 1.12" class="primitive"/>
  </g>
  <g transform="translate(160.96,179.49)">
    <path fill="none" d="M-14.2,0 L 14.2 0" class="primitive"/>
  </g>
  <g transform="translate(107.59,124.73)">
    <path fill="none" d="M2.74,1.81 L -2.74 -1.81" class="primitive"/>
  </g>
  <g transform="translate(105.79,126.07)">
    <path fill="none" d="M0.93,3.14 L -0.93 -3.14" class="primitive"/>
  </g>
  <g transform="translate(125.8,151.21)">
    <path fill="none" d="M20.95,28.28 L -20.95 -28.28" class="primitive"/>
  </g>
  <g transform="translate(92.97,65.77)">
    <path fill="none" d="M1.66,2.83 L -1.66 -2.83" class="primitive"/>
  </g>
  <g transform="translate(90.76,66.18)">
    <path fill="none" d="M-0.54,3.23 L 0.54 -3.23" class="primitive"/>
  </g>
  <g transform="translate(96.45,90.74)">
    <path fill="none" d="M5.15,27.79 L -5.15 -27.79" class="primitive"/>
  </g>
  <g transform="translate(140.77,173.29)">
    <path fill="none" d="M-2.74,-1.81 L 2.74 1.81" class="primitive"/>
  </g>
  <g transform="translate(142.57,171.96)">
    <path fill="none" d="M-0.93,-3.14 L 0.93 3.14" class="primitive"/>
  </g>
  <g transform="translate(122.55,146.82)">
    <path fill="none" d="M-20.95,-28.28 L 20.95 28.28" class="primitive"/>
  </g>
</g>
<g stroke="#BBBBBB" fill="#AAAAFF" id="img-20ee246f-2">
  <g transform="translate(90.31,57.57)">
    <circle cx="0" cy="0" r="5.47" class="primitive"/>
  </g>
  <g transform="translate(158.04,118.53)">
    <circle cx="0" cy="0" r="5.47" class="primitive"/>
  </g>
  <g transform="translate(180.62,179.49)">
    <circle cx="0" cy="0" r="5.47" class="primitive"/>
  </g>
  <g transform="translate(73.38,84.67)">
    <circle cx="0" cy="0" r="5.47" class="primitive"/>
  </g>
  <g transform="translate(90.31,44.03)">
    <circle cx="0" cy="0" r="5.47" class="primitive"/>
  </g>
  <g transform="translate(186.27,159.17)">
    <circle cx="0" cy="0" r="5.47" class="primitive"/>
  </g>
  <g transform="translate(186.27,16.93)">
    <circle cx="0" cy="0" r="5.47" class="primitive"/>
  </g>
  <g transform="translate(174.98,77.89)">
    <circle cx="0" cy="0" r="5.47" class="primitive"/>
  </g>
  <g transform="translate(50.8,64.35)">
    <circle cx="0" cy="0" r="5.47" class="primitive"/>
  </g>
  <g transform="translate(141.11,50.8)">
    <circle cx="0" cy="0" r="5.47" class="primitive"/>
  </g>
  <g transform="translate(16.93,23.71)">
    <circle cx="0" cy="0" r="5.47" class="primitive"/>
  </g>
  <g transform="translate(146.76,179.49)">
    <circle cx="0" cy="0" r="5.47" class="primitive"/>
  </g>
  <g transform="translate(180.62,186.27)">
    <circle cx="0" cy="0" r="5.47" class="primitive"/>
  </g>
  <g transform="translate(118.53,37.25)">
    <circle cx="0" cy="0" r="5.47" class="primitive"/>
  </g>
  <g transform="translate(101.6,118.53)">
    <circle cx="0" cy="0" r="5.47" class="primitive"/>
  </g>
</g>
<g font-size="4" stroke="#000000" stroke-opacity="0.000" fill="#000000" id="img-20ee246f-3">
</g>
</svg>
