<?xml version="1.0" encoding="UTF-8"?>
<svg xmlns="http://www.w3.org/2000/svg"
     xmlns:xlink="http://www.w3.org/1999/xlink"
     version="1.2"
     width="203.2mm" height="203.2mm" viewBox="0 0 203.2 203.2"
     stroke="none"
     fill="#000000"
     stroke-width="0.3"
     font-size="3.88"
>
<g stroke-width="0.32" stroke="#BBBBBB" id="img-d393c58c-1">
  <g transform="translate(153.88,63.08)">
    <path fill="none" d="M-0.1,-1.34 L 0.1 1.34" class="primitive"/>
  </g>
  <g transform="translate(154.76,63.33)">
    <path fill="none" d="M0.78,-1.08 L -0.78 1.08" class="primitive"/>
  </g>
  <g transform="translate(154.64,62.09)">
    <path fill="none" d="M0.66,-2.33 L -0.66 2.33" class="primitive"/>
  </g>
  <g transform="translate(158.5,64.21)">
    <path fill="none" d="M-1.16,-0.66 L 1.16 0.66" class="primitive"/>
  </g>
  <g transform="translate(159.19,63.61)">
    <path fill="none" d="M-0.47,-1.25 L 0.47 1.25" class="primitive"/>
  </g>
  <g transform="translate(157.48,62.31)">
    <path fill="none" d="M-2.18,-2.56 L 2.18 2.56" class="primitive"/>
  </g>
  <g transform="translate(111.58,142.23)">
    <path fill="none" d="M-1,0.89 L 1 -0.89" class="primitive"/>
  </g>
  <g transform="translate(111.25,141.38)">
    <path fill="none" d="M-1.34,0.03 L 1.34 -0.03" class="primitive"/>
  </g>
  <g transform="translate(102.5,145.32)">
    <path fill="none" d="M-10.09,3.97 L 10.09 -3.97" class="primitive"/>
  </g>
  <g transform="translate(115.02,153.96)">
    <path fill="none" d="M-1.32,0.22 L 1.32 -0.22" class="primitive"/>
  </g>
  <g transform="translate(115.19,153.06)">
    <path fill="none" d="M-1.15,-0.68 L 1.15 0.68" class="primitive"/>
  </g>
  <g transform="translate(104.37,151.51)">
    <path fill="none" d="M-11.97,-2.23 L 11.97 2.23" class="primitive"/>
  </g>
  <g transform="translate(72.39,96.15)">
    <path fill="none" d="M-0.18,-1.33 L 0.18 1.33" class="primitive"/>
  </g>
  <g transform="translate(73.29,96.35)">
    <path fill="none" d="M0.72,-1.13 L -0.72 1.13" class="primitive"/>
  </g>
  <g transform="translate(75.23,85.43)">
    <path fill="none" d="M2.66,-12.05 L -2.66 12.05" class="primitive"/>
  </g>
  <g transform="translate(98.55,99.2)">
    <path fill="none" d="M-1.15,-0.68 L 1.15 0.68" class="primitive"/>
  </g>
  <g transform="translate(99.25,98.61)">
    <path fill="none" d="M-0.45,-1.26 L 0.45 1.26" class="primitive"/>
  </g>
  <g transform="translate(88.8,86.63)">
    <path fill="none" d="M-10.9,-13.25 L 10.9 13.25" class="primitive"/>
  </g>
  <g transform="translate(42.45,112.79)">
    <path fill="none" d="M-1.15,-0.69 L 1.15 0.69" class="primitive"/>
  </g>
  <g transform="translate(43.16,112.22)">
    <path fill="none" d="M-0.43,-1.27 L 0.43 1.27" class="primitive"/>
  </g>
  <g transform="translate(36.07,104.14)">
    <path fill="none" d="M-7.53,-9.35 L 7.53 9.35" class="primitive"/>
  </g>
  <g transform="translate(39.72,111.65)">
    <path fill="none" d="M-1.09,-0.77 L 1.09 0.77" class="primitive"/>
  </g>
  <g transform="translate(40.47,111.13)">
    <path fill="none" d="M-0.34,-1.29 L 0.34 1.29" class="primitive"/>
  </g>
  <g transform="translate(34.68,103.6)">
    <path fill="none" d="M-6.14,-8.82 L 6.14 8.82" class="primitive"/>
  </g>
  <g transform="translate(154.79,63.23)">
    <path fill="none" d="M0.1,1.34 L -0.1 -1.34" class="primitive"/>
  </g>
  <g transform="translate(153.91,62.98)">
    <path fill="none" d="M-0.78,1.08 L 0.78 -1.08" class="primitive"/>
  </g>
  <g transform="translate(154.03,64.23)">
    <path fill="none" d="M-0.66,2.33 L 0.66 -2.33" class="primitive"/>
  </g>
  <g transform="translate(157.62,67.02)">
    <path fill="none" d="M-1.26,0.46 L 1.26 -0.46" class="primitive"/>
  </g>
  <g transform="translate(157.62,66.11)">
    <path fill="none" d="M-1.26,-0.46 L 1.26 0.46" class="primitive"/>
  </g>
  <g transform="translate(156.12,66.57)">
    <path fill="none" d="M-2.75,0 L 2.75 0" class="primitive"/>
  </g>
  <g transform="translate(31.09,97.22)">
    <path fill="none" d="M1.15,0.69 L -1.15 -0.69" class="primitive"/>
  </g>
  <g transform="translate(30.38,97.79)">
    <path fill="none" d="M0.43,1.27 L -0.43 -1.27" class="primitive"/>
  </g>
  <g transform="translate(37.47,105.88)">
    <path fill="none" d="M7.53,9.35 L -7.53 -9.35" class="primitive"/>
  </g>
  <g transform="translate(45.55,114.93)">
    <path fill="none" d="M1.34,-0.03 L -1.34 0.03" class="primitive"/>
  </g>
  <g transform="translate(45.25,115.79)">
    <path fill="none" d="M1.05,0.83 L -1.05 -0.83" class="primitive"/>
  </g>
  <g transform="translate(44.6,115.09)">
    <path fill="none" d="M0.39,0.13 L -0.39 -0.13" class="primitive"/>
  </g>
  <g transform="translate(157.91,62.11)">
    <path fill="none" d="M1.16,0.66 L -1.16 -0.66" class="primitive"/>
  </g>
  <g transform="translate(157.22,62.71)">
    <path fill="none" d="M0.47,1.25 L -0.47 -1.25" class="primitive"/>
  </g>
  <g transform="translate(158.93,64.01)">
    <path fill="none" d="M2.18,2.56 L -2.18 -2.56" class="primitive"/>
  </g>
  <g transform="translate(156.86,66.11)">
    <path fill="none" d="M1.26,-0.46 L -1.26 0.46" class="primitive"/>
  </g>
  <g transform="translate(156.86,67.02)">
    <path fill="none" d="M1.26,0.46 L -1.26 -0.46" class="primitive"/>
  </g>
  <g transform="translate(158.35,66.57)">
    <path fill="none" d="M2.75,0 L -2.75 0" class="primitive"/>
  </g>
  <g transform="translate(151.89,27.23)">
    <path fill="none" d="M0.46,1.26 L -0.46 -1.26" class="primitive"/>
  </g>
  <g transform="translate(150.97,27.23)">
    <path fill="none" d="M-0.46,1.26 L 0.46 -1.26" class="primitive"/>
  </g>
  <g transform="translate(151.43,25.83)">
    <path fill="none" d="M0,-0.14 L 0 0.14" class="primitive"/>
  </g>
  <g transform="translate(148.99,21.46)">
    <path fill="none" d="M1.1,0.76 L -1.1 -0.76" class="primitive"/>
  </g>
  <g transform="translate(148.24,21.99)">
    <path fill="none" d="M0.36,1.29 L -0.36 -1.29" class="primitive"/>
  </g>
  <g transform="translate(149.66,23.2)">
    <path fill="none" d="M1.77,2.5 L -1.77 -2.5" class="primitive"/>
  </g>
  <g transform="translate(150.97,22.2)">
    <path fill="none" d="M-0.46,-1.26 L 0.46 1.26" class="primitive"/>
  </g>
  <g transform="translate(151.89,22.2)">
    <path fill="none" d="M0.46,-1.26 L -0.46 1.26" class="primitive"/>
  </g>
  <g transform="translate(151.43,23.6)">
    <path fill="none" d="M0,0.14 L 0 -0.14" class="primitive"/>
  </g>
  <g transform="translate(149.38,21.03)">
    <path fill="none" d="M1.21,0.57 L -1.21 -0.57" class="primitive"/>
  </g>
  <g transform="translate(148.73,21.68)">
    <path fill="none" d="M0.56,1.21 L -0.56 -1.21" class="primitive"/>
  </g>
  <g transform="translate(149.8,22.1)">
    <path fill="none" d="M1.63,1.64 L -1.63 -1.64" class="primitive"/>
  </g>
  <g transform="translate(30.91,97.39)">
    <path fill="none" d="M1.09,0.77 L -1.09 -0.77" class="primitive"/>
  </g>
  <g transform="translate(30.16,97.91)">
    <path fill="none" d="M0.34,1.29 L -0.34 -1.29" class="primitive"/>
  </g>
  <g transform="translate(35.96,105.44)">
    <path fill="none" d="M6.14,8.82 L -6.14 -8.82" class="primitive"/>
  </g>
  <g transform="translate(41.54,114.55)">
    <path fill="none" d="M-1.34,0.03 L 1.34 -0.03" class="primitive"/>
  </g>
  <g transform="translate(41.83,113.68)">
    <path fill="none" d="M-1.05,-0.83 L 1.05 0.83" class="primitive"/>
  </g>
  <g transform="translate(42.49,114.38)">
    <path fill="none" d="M-0.39,-0.13 L 0.39 0.13" class="primitive"/>
  </g>
  <g transform="translate(95.49,147.58)">
    <path fill="none" d="M1,-0.89 L -1 0.89" class="primitive"/>
  </g>
  <g transform="translate(95.82,148.43)">
    <path fill="none" d="M1.34,-0.03 L -1.34 0.03" class="primitive"/>
  </g>
  <g transform="translate(104.57,144.5)">
    <path fill="none" d="M10.09,-3.97 L -10.09 3.97" class="primitive"/>
  </g>
  <g transform="translate(117.14,150.92)">
    <path fill="none" d="M-0.78,-1.08 L 0.78 1.08" class="primitive"/>
  </g>
  <g transform="translate(118.02,150.67)">
    <path fill="none" d="M0.1,-1.34 L -0.1 1.34" class="primitive"/>
  </g>
  <g transform="translate(116.29,146.27)">
    <path fill="none" d="M-1.63,-5.74 L 1.63 5.74" class="primitive"/>
  </g>
  <g transform="translate(149.04,23.11)">
    <path fill="none" d="M-1.1,-0.76 L 1.1 0.76" class="primitive"/>
  </g>
  <g transform="translate(149.79,22.58)">
    <path fill="none" d="M-0.36,-1.29 L 0.36 1.29" class="primitive"/>
  </g>
  <g transform="translate(148.37,21.38)">
    <path fill="none" d="M-1.77,-2.5 L 1.77 2.5" class="primitive"/>
  </g>
  <g transform="translate(148.65,21.59)">
    <path fill="none" d="M-1.21,-0.57 L 1.21 0.57" class="primitive"/>
  </g>
  <g transform="translate(149.3,20.95)">
    <path fill="none" d="M-0.56,-1.21 L 0.56 1.21" class="primitive"/>
  </g>
  <g transform="translate(148.23,20.52)">
    <path fill="none" d="M-1.63,-1.64 L 1.63 1.64" class="primitive"/>
  </g>
  <g transform="translate(95.92,149.47)">
    <path fill="none" d="M1.32,-0.22 L -1.32 0.22" class="primitive"/>
  </g>
  <g transform="translate(95.75,150.37)">
    <path fill="none" d="M1.15,0.68 L -1.15 -0.68" class="primitive"/>
  </g>
  <g transform="translate(106.57,151.92)">
    <path fill="none" d="M11.97,2.23 L -11.97 -2.23" class="primitive"/>
  </g>
  <g transform="translate(116.06,143.76)">
    <path fill="none" d="M0.78,1.08 L -0.78 -1.08" class="primitive"/>
  </g>
  <g transform="translate(115.18,144.01)">
    <path fill="none" d="M-0.1,1.34 L 0.1 -1.34" class="primitive"/>
  </g>
  <g transform="translate(116.9,148.41)">
    <path fill="none" d="M1.63,5.74 L -1.63 -5.74" class="primitive"/>
  </g>
  <g transform="translate(77.59,76.88)">
    <path fill="none" d="M0.18,1.33 L -0.18 -1.33" class="primitive"/>
  </g>
  <g transform="translate(76.69,76.69)">
    <path fill="none" d="M-0.72,1.13 L 0.72 -1.13" class="primitive"/>
  </g>
  <g transform="translate(74.75,87.61)">
    <path fill="none" d="M-2.66,12.05 L 2.66 -12.05" class="primitive"/>
  </g>
  <g transform="translate(97.6,101.82)">
    <path fill="none" d="M-1.29,0.37 L 1.29 -0.37" class="primitive"/>
  </g>
  <g transform="translate(97.67,100.91)">
    <path fill="none" d="M-1.22,-0.54 L 1.22 0.54" class="primitive"/>
  </g>
  <g transform="translate(85.49,100.55)">
    <path fill="none" d="M-13.4,-0.9 L 13.4 0.9" class="primitive"/>
  </g>
  <g transform="translate(80.46,75.78)">
    <path fill="none" d="M1.15,0.68 L -1.15 -0.68" class="primitive"/>
  </g>
  <g transform="translate(79.76,76.36)">
    <path fill="none" d="M0.45,1.26 L -0.45 -1.26" class="primitive"/>
  </g>
  <g transform="translate(90.21,88.35)">
    <path fill="none" d="M10.9,13.25 L -10.9 -13.25" class="primitive"/>
  </g>
  <g transform="translate(75.6,99.43)">
    <path fill="none" d="M1.29,-0.37 L -1.29 0.37" class="primitive"/>
  </g>
  <g transform="translate(75.54,100.34)">
    <path fill="none" d="M1.22,0.54 L -1.22 -0.54" class="primitive"/>
  </g>
  <g transform="translate(87.71,100.7)">
    <path fill="none" d="M13.4,0.9 L -13.4 -0.9" class="primitive"/>
  </g>
</g>
<g stroke="#BBBBBB" fill="#AAAAFF" id="img-d393c58c-2">
  <g transform="translate(145.63,181.4)">
    <circle cx="0" cy="0" r="2.23" class="primitive"/>
  </g>
  <g transform="translate(160.14,114.25)">
    <circle cx="0" cy="0" r="2.23" class="primitive"/>
  </g>
  <g transform="translate(130.14,118.14)">
    <circle cx="0" cy="0" r="2.23" class="primitive"/>
  </g>
  <g transform="translate(117.57,143.45)">
    <circle cx="0" cy="0" r="2.23" class="primitive"/>
  </g>
  <g transform="translate(169.82,76.3)">
    <circle cx="0" cy="0" r="2.23" class="primitive"/>
  </g>
  <g transform="translate(169.82,40.29)">
    <circle cx="0" cy="0" r="2.23" class="primitive"/>
  </g>
  <g transform="translate(93.38,105.49)">
    <circle cx="0" cy="0" r="2.23" class="primitive"/>
  </g>
  <g transform="translate(86.6,166.8)">
    <circle cx="0" cy="0" r="2.23" class="primitive"/>
  </g>
  <g transform="translate(152.4,128.85)">
    <circle cx="0" cy="0" r="2.23" class="primitive"/>
  </g>
  <g transform="translate(88.54,36.4)">
    <circle cx="0" cy="0" r="2.23" class="primitive"/>
  </g>
  <g transform="translate(45.96,160.96)">
    <circle cx="0" cy="0" r="2.23" class="primitive"/>
  </g>
  <g transform="translate(183.36,186.27)">
    <circle cx="0" cy="0" r="2.23" class="primitive"/>
  </g>
  <g transform="translate(176.59,89.92)">
    <circle cx="0" cy="0" r="2.23" class="primitive"/>
  </g>
  <g transform="translate(51.77,161.94)">
    <circle cx="0" cy="0" r="2.23" class="primitive"/>
  </g>
  <g transform="translate(55.64,97.71)">
    <circle cx="0" cy="0" r="2.23" class="primitive"/>
  </g>
  <g transform="translate(45.96,137.61)">
    <circle cx="0" cy="0" r="2.23" class="primitive"/>
  </g>
  <g transform="translate(155.3,59.75)">
    <circle cx="0" cy="0" r="2.23" class="primitive"/>
  </g>
  <g transform="translate(105.95,46.13)">
    <circle cx="0" cy="0" r="2.23" class="primitive"/>
  </g>
  <g transform="translate(159.17,46.13)">
    <circle cx="0" cy="0" r="2.23" class="primitive"/>
  </g>
  <g transform="translate(92.41,149.29)">
    <circle cx="0" cy="0" r="2.23" class="primitive"/>
  </g>
  <g transform="translate(77.89,73.38)">
    <circle cx="0" cy="0" r="2.23" class="primitive"/>
  </g>
  <g transform="translate(48.86,52.94)">
    <circle cx="0" cy="0" r="2.23" class="primitive"/>
  </g>
  <g transform="translate(121.44,41.26)">
    <circle cx="0" cy="0" r="2.23" class="primitive"/>
  </g>
  <g transform="translate(40.16,35.42)">
    <circle cx="0" cy="0" r="2.23" class="primitive"/>
  </g>
  <g transform="translate(22.74,88.95)">
    <circle cx="0" cy="0" r="2.23" class="primitive"/>
  </g>
  <g transform="translate(76.93,99.65)">
    <circle cx="0" cy="0" r="2.23" class="primitive"/>
  </g>
  <g transform="translate(73.06,136.63)">
    <circle cx="0" cy="0" r="2.23" class="primitive"/>
  </g>
  <g transform="translate(28.54,94.79)">
    <circle cx="0" cy="0" r="2.23" class="primitive"/>
  </g>
  <g transform="translate(30.48,26.67)">
    <circle cx="0" cy="0" r="2.23" class="primitive"/>
  </g>
  <g transform="translate(59.51,54.89)">
    <circle cx="0" cy="0" r="2.23" class="primitive"/>
  </g>
  <g transform="translate(47.9,16.93)">
    <circle cx="0" cy="0" r="2.23" class="primitive"/>
  </g>
  <g transform="translate(164.98,111.33)">
    <circle cx="0" cy="0" r="2.23" class="primitive"/>
  </g>
  <g transform="translate(153.37,66.57)">
    <circle cx="0" cy="0" r="2.23" class="primitive"/>
  </g>
  <g transform="translate(16.93,69.49)">
    <circle cx="0" cy="0" r="2.23" class="primitive"/>
  </g>
  <g transform="translate(44.99,115.22)">
    <circle cx="0" cy="0" r="2.23" class="primitive"/>
  </g>
  <g transform="translate(161.11,66.57)">
    <circle cx="0" cy="0" r="2.23" class="primitive"/>
  </g>
  <g transform="translate(101.12,50.02)">
    <circle cx="0" cy="0" r="2.23" class="primitive"/>
  </g>
  <g transform="translate(110.79,48.08)">
    <circle cx="0" cy="0" r="2.23" class="primitive"/>
  </g>
  <g transform="translate(118.53,76.3)">
    <circle cx="0" cy="0" r="2.23" class="primitive"/>
  </g>
  <g transform="translate(159.17,42.24)">
    <circle cx="0" cy="0" r="2.23" class="primitive"/>
  </g>
  <g transform="translate(34.35,87)">
    <circle cx="0" cy="0" r="2.23" class="primitive"/>
  </g>
  <g transform="translate(26.61,131.77)">
    <circle cx="0" cy="0" r="2.23" class="primitive"/>
  </g>
  <g transform="translate(62.41,84.08)">
    <circle cx="0" cy="0" r="2.23" class="primitive"/>
  </g>
  <g transform="translate(74.99,145.39)">
    <circle cx="0" cy="0" r="2.23" class="primitive"/>
  </g>
  <g transform="translate(149.5,130.8)">
    <circle cx="0" cy="0" r="2.23" class="primitive"/>
  </g>
  <g transform="translate(18.87,128.85)">
    <circle cx="0" cy="0" r="2.23" class="primitive"/>
  </g>
  <g transform="translate(151.43,25.69)">
    <circle cx="0" cy="0" r="2.23" class="primitive"/>
  </g>
  <g transform="translate(151.43,23.75)">
    <circle cx="0" cy="0" r="2.23" class="primitive"/>
  </g>
  <g transform="translate(143.69,62.67)">
    <circle cx="0" cy="0" r="2.23" class="primitive"/>
  </g>
  <g transform="translate(90.47,36.4)">
    <circle cx="0" cy="0" r="2.23" class="primitive"/>
  </g>
  <g transform="translate(148.53,176.53)">
    <circle cx="0" cy="0" r="2.23" class="primitive"/>
  </g>
  <g transform="translate(169.82,39.32)">
    <circle cx="0" cy="0" r="2.23" class="primitive"/>
  </g>
  <g transform="translate(155.3,105.49)">
    <circle cx="0" cy="0" r="2.23" class="primitive"/>
  </g>
  <g transform="translate(99.18,182.37)">
    <circle cx="0" cy="0" r="2.23" class="primitive"/>
  </g>
  <g transform="translate(25.64,61.7)">
    <circle cx="0" cy="0" r="2.23" class="primitive"/>
  </g>
  <g transform="translate(80.8,133.71)">
    <circle cx="0" cy="0" r="2.23" class="primitive"/>
  </g>
  <g transform="translate(138.85,127.88)">
    <circle cx="0" cy="0" r="2.23" class="primitive"/>
  </g>
  <g transform="translate(32.42,45.16)">
    <circle cx="0" cy="0" r="2.23" class="primitive"/>
  </g>
  <g transform="translate(20.8,84.08)">
    <circle cx="0" cy="0" r="2.23" class="primitive"/>
  </g>
  <g transform="translate(68.22,73.38)">
    <circle cx="0" cy="0" r="2.23" class="primitive"/>
  </g>
  <g transform="translate(141.76,28.61)">
    <circle cx="0" cy="0" r="2.23" class="primitive"/>
  </g>
  <g transform="translate(115.63,92.84)">
    <circle cx="0" cy="0" r="2.23" class="primitive"/>
  </g>
  <g transform="translate(186.27,98.68)">
    <circle cx="0" cy="0" r="2.23" class="primitive"/>
  </g>
  <g transform="translate(42.09,114.25)">
    <circle cx="0" cy="0" r="2.23" class="primitive"/>
  </g>
  <g transform="translate(129.18,99.65)">
    <circle cx="0" cy="0" r="2.23" class="primitive"/>
  </g>
  <g transform="translate(104.99,179.45)">
    <circle cx="0" cy="0" r="2.23" class="primitive"/>
  </g>
  <g transform="translate(74.99,177.51)">
    <circle cx="0" cy="0" r="2.23" class="primitive"/>
  </g>
  <g transform="translate(154.34,66.57)">
    <circle cx="0" cy="0" r="2.23" class="primitive"/>
  </g>
  <g transform="translate(186.27,50.99)">
    <circle cx="0" cy="0" r="2.23" class="primitive"/>
  </g>
  <g transform="translate(169.82,37.37)">
    <circle cx="0" cy="0" r="2.23" class="primitive"/>
  </g>
  <g transform="translate(143.69,150.26)">
    <circle cx="0" cy="0" r="2.23" class="primitive"/>
  </g>
  <g transform="translate(87.57,68.51)">
    <circle cx="0" cy="0" r="2.23" class="primitive"/>
  </g>
  <g transform="translate(141.76,178.48)">
    <circle cx="0" cy="0" r="2.23" class="primitive"/>
  </g>
  <g transform="translate(66.28,180.43)">
    <circle cx="0" cy="0" r="2.23" class="primitive"/>
  </g>
  <g transform="translate(141.76,179.45)">
    <circle cx="0" cy="0" r="2.23" class="primitive"/>
  </g>
  <g transform="translate(84.67,108.41)">
    <circle cx="0" cy="0" r="2.23" class="primitive"/>
  </g>
  <g transform="translate(34.35,51.97)">
    <circle cx="0" cy="0" r="2.23" class="primitive"/>
  </g>
  <g transform="translate(37.25,41.26)">
    <circle cx="0" cy="0" r="2.23" class="primitive"/>
  </g>
  <g transform="translate(162.08,114.25)">
    <circle cx="0" cy="0" r="2.23" class="primitive"/>
  </g>
  <g transform="translate(165.95,176.53)">
    <circle cx="0" cy="0" r="2.23" class="primitive"/>
  </g>
  <g transform="translate(56.61,60.73)">
    <circle cx="0" cy="0" r="2.23" class="primitive"/>
  </g>
  <g transform="translate(114.66,140.53)">
    <circle cx="0" cy="0" r="2.23" class="primitive"/>
  </g>
  <g transform="translate(146.59,18.88)">
    <circle cx="0" cy="0" r="2.23" class="primitive"/>
  </g>
  <g transform="translate(178.53,179.45)">
    <circle cx="0" cy="0" r="2.23" class="primitive"/>
  </g>
  <g transform="translate(118.53,154.15)">
    <circle cx="0" cy="0" r="2.23" class="primitive"/>
  </g>
  <g transform="translate(151.43,74.35)">
    <circle cx="0" cy="0" r="2.23" class="primitive"/>
  </g>
  <g transform="translate(72.09,99.65)">
    <circle cx="0" cy="0" r="2.23" class="primitive"/>
  </g>
  <g transform="translate(84.67,133.71)">
    <circle cx="0" cy="0" r="2.23" class="primitive"/>
  </g>
  <g transform="translate(16.93,47.1)">
    <circle cx="0" cy="0" r="2.23" class="primitive"/>
  </g>
  <g transform="translate(101.12,101.6)">
    <circle cx="0" cy="0" r="2.23" class="primitive"/>
  </g>
</g>
<g font-size="4" stroke="#000000" stroke-opacity="0.000" fill="#000000" id="img-d393c58c-3">
</g>
</svg>
