<?xml version="1.0" encoding="UTF-8"?>
<svg xmlns="http://www.w3.org/2000/svg"
     xmlns:xlink="http://www.w3.org/1999/xlink"
     version="1.2"
     width="203.2mm" height="203.2mm" viewBox="0 0 203.2 203.2"
     stroke="none"
     fill="#000000"
     stroke-width="0.3"
     font-size="3.88"
>
<g stroke-width="0.3" stroke="#BBBBBB" id="img-ed8bc622-1">
  <g transform="translate(112.81,87.51)">
    <path fill="none" d="M-1.26,0.18 L 1.26 -0.18" class="primitive"/>
  </g>
  <g transform="translate(112.99,86.66)">
    <path fill="none" d="M-1.08,-0.67 L 1.08 0.67" class="primitive"/>
  </g>
  <g transform="translate(106.98,85.83)">
    <path fill="none" d="M-7.09,-1.51 L 7.09 1.51" class="primitive"/>
  </g>
  <g transform="translate(101.58,100.11)">
    <path fill="none" d="M-0.59,-1.12 L 0.59 1.12" class="primitive"/>
  </g>
  <g transform="translate(102.44,99.99)">
    <path fill="none" d="M0.27,-1.24 L -0.27 1.24" class="primitive"/>
  </g>
  <g transform="translate(101.03,92.78)">
    <path fill="none" d="M-1.14,-8.45 L 1.14 8.45" class="primitive"/>
  </g>
  <g transform="translate(94.63,47.74)">
    <path fill="none" d="M1.27,-0.06 L -1.27 0.06" class="primitive"/>
  </g>
  <g transform="translate(94.37,48.57)">
    <path fill="none" d="M1.01,0.77 L -1.01 -0.77" class="primitive"/>
  </g>
  <g transform="translate(120.14,56.13)">
    <path fill="none" d="M26.78,8.33 L -26.78 -8.33" class="primitive"/>
  </g>
  <g transform="translate(153.61,29.77)">
    <path fill="none" d="M0.22,1.25 L -0.22 -1.25" class="primitive"/>
  </g>
  <g transform="translate(152.75,29.62)">
    <path fill="none" d="M-0.64,1.1 L 0.64 -1.1" class="primitive"/>
  </g>
  <g transform="translate(150.16,46.49)">
    <path fill="none" d="M-3.23,17.97 L 3.23 -17.97" class="primitive"/>
  </g>
  <g transform="translate(113.38,89.66)">
    <path fill="none" d="M-0.87,0.93 L 0.87 -0.93" class="primitive"/>
  </g>
  <g transform="translate(112.99,88.88)">
    <path fill="none" d="M-1.26,0.15 L 1.26 -0.15" class="primitive"/>
  </g>
  <g transform="translate(110.92,90.41)">
    <path fill="none" d="M-3.33,1.68 L 3.33 -1.68" class="primitive"/>
  </g>
  <g transform="translate(103.44,100.14)">
    <path fill="none" d="M0.1,-1.27 L -0.1 1.27" class="primitive"/>
  </g>
  <g transform="translate(104.23,100.5)">
    <path fill="none" d="M0.89,-0.9 L -0.89 0.9" class="primitive"/>
  </g>
  <g transform="translate(105.46,96.75)">
    <path fill="none" d="M2.13,-4.65 L -2.13 4.65" class="primitive"/>
  </g>
  <g transform="translate(77.79,156.3)">
    <path fill="none" d="M-1.27,0.05 L 1.27 -0.05" class="primitive"/>
  </g>
  <g transform="translate(78.05,155.48)">
    <path fill="none" d="M-1.01,-0.78 L 1.01 0.78" class="primitive"/>
  </g>
  <g transform="translate(65.1,151.82)">
    <path fill="none" d="M-13.96,-4.43 L 13.96 4.43" class="primitive"/>
  </g>
  <g transform="translate(42.25,141.76)">
    <path fill="none" d="M1.25,0.22 L -1.25 -0.22" class="primitive"/>
  </g>
  <g transform="translate(41.82,142.51)">
    <path fill="none" d="M0.82,0.97 L -0.82 -0.97" class="primitive"/>
  </g>
  <g transform="translate(46.07,144.46)">
    <path fill="none" d="M5.07,2.93 L -5.07 -2.93" class="primitive"/>
  </g>
  <g transform="translate(54.43,147.98)">
    <path fill="none" d="M1.27,-0.05 L -1.27 0.05" class="primitive"/>
  </g>
  <g transform="translate(54.17,148.8)">
    <path fill="none" d="M1.01,0.78 L -1.01 -0.78" class="primitive"/>
  </g>
  <g transform="translate(67.12,152.46)">
    <path fill="none" d="M13.96,4.43 L -13.96 -4.43" class="primitive"/>
  </g>
  <g transform="translate(32,128.76)">
    <path fill="none" d="M1.25,0.21 L -1.25 -0.21" class="primitive"/>
  </g>
  <g transform="translate(31.58,129.52)">
    <path fill="none" d="M0.83,0.96 L -0.83 -0.96" class="primitive"/>
  </g>
  <g transform="translate(55.91,142.72)">
    <path fill="none" d="M25.16,14.17 L -25.16 -14.17" class="primitive"/>
  </g>
  <g transform="translate(143.64,63.88)">
    <path fill="none" d="M-1.27,0.06 L 1.27 -0.06" class="primitive"/>
  </g>
  <g transform="translate(143.89,63.05)">
    <path fill="none" d="M-1.01,-0.77 L 1.01 0.77" class="primitive"/>
  </g>
  <g transform="translate(118.12,55.5)">
    <path fill="none" d="M-26.78,-8.33 L 26.78 8.33" class="primitive"/>
  </g>
  <g transform="translate(150.76,27.89)">
    <path fill="none" d="M-1,0.79 L 1 -0.79" class="primitive"/>
  </g>
  <g transform="translate(150.49,27.07)">
    <path fill="none" d="M-1.27,-0.04 L 1.27 0.04" class="primitive"/>
  </g>
  <g transform="translate(121.55,37.14)">
    <path fill="none" d="M-30.21,10.03 L 30.21 -10.03" class="primitive"/>
  </g>
  <g transform="translate(103.22,84.58)">
    <path fill="none" d="M1.26,-0.18 L -1.26 0.18" class="primitive"/>
  </g>
  <g transform="translate(103.04,85.43)">
    <path fill="none" d="M1.08,0.67 L -1.08 -0.67" class="primitive"/>
  </g>
  <g transform="translate(109.05,86.27)">
    <path fill="none" d="M7.09,1.51 L -7.09 -1.51" class="primitive"/>
  </g>
  <g transform="translate(110.35,90.22)">
    <path fill="none" d="M0.87,-0.93 L -0.87 0.93" class="primitive"/>
  </g>
  <g transform="translate(110.74,90.99)">
    <path fill="none" d="M1.26,-0.15 L -1.26 0.15" class="primitive"/>
  </g>
  <g transform="translate(112.81,89.46)">
    <path fill="none" d="M3.33,-1.68 L -3.33 1.68" class="primitive"/>
  </g>
  <g transform="translate(77.98,155.65)">
    <path fill="none" d="M-1.25,-0.21 L 1.25 0.21" class="primitive"/>
  </g>
  <g transform="translate(78.4,154.89)">
    <path fill="none" d="M-0.83,-0.96 L 0.83 0.96" class="primitive"/>
  </g>
  <g transform="translate(54.07,141.69)">
    <path fill="none" d="M-25.16,-14.17 L 25.16 14.17" class="primitive"/>
  </g>
  <g transform="translate(36.77,138.15)">
    <path fill="none" d="M-1.08,-0.67 L 1.08 0.67" class="primitive"/>
  </g>
  <g transform="translate(37.45,137.61)">
    <path fill="none" d="M-0.4,-1.21 L 0.4 1.21" class="primitive"/>
  </g>
  <g transform="translate(33.38,133.17)">
    <path fill="none" d="M-4.47,-5.65 L 4.47 5.65" class="primitive"/>
  </g>
  <g transform="translate(40.1,20.27)">
    <path fill="none" d="M0.3,1.23 L -0.3 -1.23" class="primitive"/>
  </g>
  <g transform="translate(39.24,20.18)">
    <path fill="none" d="M-0.56,1.14 L 0.56 -1.14" class="primitive"/>
  </g>
  <g transform="translate(37.77,37.86)">
    <path fill="none" d="M-2.02,18.82 L 2.02 -18.82" class="primitive"/>
  </g>
  <g transform="translate(32.73,43.35)">
    <path fill="none" d="M0.72,1.05 L -0.72 -1.05" class="primitive"/>
  </g>
  <g transform="translate(31.89,43.57)">
    <path fill="none" d="M-0.12,1.26 L 0.12 -1.26" class="primitive"/>
  </g>
  <g transform="translate(33.88,49.49)">
    <path fill="none" d="M1.87,7.18 L -1.87 -7.18" class="primitive"/>
  </g>
  <g transform="translate(147.09,61.12)">
    <path fill="none" d="M-0.22,-1.25 L 0.22 1.25" class="primitive"/>
  </g>
  <g transform="translate(147.94,61.27)">
    <path fill="none" d="M0.64,-1.1 L -0.64 1.1" class="primitive"/>
  </g>
  <g transform="translate(150.53,44.4)">
    <path fill="none" d="M3.23,-17.97 L -3.23 17.97" class="primitive"/>
  </g>
  <g transform="translate(94.34,45.72)">
    <path fill="none" d="M1,-0.79 L -1 0.79" class="primitive"/>
  </g>
  <g transform="translate(94.62,46.54)">
    <path fill="none" d="M1.27,0.04 L -1.27 -0.04" class="primitive"/>
  </g>
  <g transform="translate(123.56,36.47)">
    <path fill="none" d="M30.21,-10.03 L -30.21 10.03" class="primitive"/>
  </g>
  <g transform="translate(35.67,53.34)">
    <path fill="none" d="M-0.3,-1.23 L 0.3 1.23" class="primitive"/>
  </g>
  <g transform="translate(36.53,53.43)">
    <path fill="none" d="M0.56,-1.14 L -0.56 1.14" class="primitive"/>
  </g>
  <g transform="translate(38,35.75)">
    <path fill="none" d="M2.02,-18.82 L -2.02 18.82" class="primitive"/>
  </g>
  <g transform="translate(32.2,37)">
    <path fill="none" d="M0,-1.27 L -0 1.27" class="primitive"/>
  </g>
  <g transform="translate(33.02,37.3)">
    <path fill="none" d="M0.82,-0.97 L -0.82 0.97" class="primitive"/>
  </g>
  <g transform="translate(36.11,27.6)">
    <path fill="none" d="M3.91,-10.67 L -3.91 10.67" class="primitive"/>
  </g>
  <g transform="translate(34.49,53.58)">
    <path fill="none" d="M-0.72,-1.05 L 0.72 1.05" class="primitive"/>
  </g>
  <g transform="translate(35.33,53.36)">
    <path fill="none" d="M0.12,-1.26 L -0.12 1.26" class="primitive"/>
  </g>
  <g transform="translate(33.34,47.44)">
    <path fill="none" d="M-1.87,-7.18 L 1.87 7.18" class="primitive"/>
  </g>
  <g transform="translate(39.29,20.19)">
    <path fill="none" d="M-0,1.27 L 0 -1.27" class="primitive"/>
  </g>
  <g transform="translate(38.48,19.89)">
    <path fill="none" d="M-0.82,0.97 L 0.82 -0.97" class="primitive"/>
  </g>
  <g transform="translate(35.38,29.59)">
    <path fill="none" d="M-3.91,10.67 L 3.91 -10.67" class="primitive"/>
  </g>
  <g transform="translate(48.06,146.11)">
    <path fill="none" d="M-1.25,-0.22 L 1.25 0.22" class="primitive"/>
  </g>
  <g transform="translate(48.49,145.36)">
    <path fill="none" d="M-0.82,-0.97 L 0.82 0.97" class="primitive"/>
  </g>
  <g transform="translate(44.24,143.4)">
    <path fill="none" d="M-5.07,-2.93 L 5.07 2.93" class="primitive"/>
  </g>
  <g transform="translate(31.3,129.84)">
    <path fill="none" d="M1.08,0.67 L -1.08 -0.67" class="primitive"/>
  </g>
  <g transform="translate(30.62,130.38)">
    <path fill="none" d="M0.4,1.21 L -0.4 -1.21" class="primitive"/>
  </g>
  <g transform="translate(34.69,134.83)">
    <path fill="none" d="M4.47,5.65 L -4.47 -5.65" class="primitive"/>
  </g>
  <g transform="translate(100.76,87.54)">
    <path fill="none" d="M0.59,1.12 L -0.59 -1.12" class="primitive"/>
  </g>
  <g transform="translate(99.9,87.66)">
    <path fill="none" d="M-0.27,1.24 L 0.27 -1.24" class="primitive"/>
  </g>
  <g transform="translate(101.31,94.87)">
    <path fill="none" d="M1.14,8.45 L -1.14 -8.45" class="primitive"/>
  </g>
  <g transform="translate(106.61,95.29)">
    <path fill="none" d="M-0.1,1.27 L 0.1 -1.27" class="primitive"/>
  </g>
  <g transform="translate(105.82,94.93)">
    <path fill="none" d="M-0.89,0.9 L 0.89 -0.9" class="primitive"/>
  </g>
  <g transform="translate(104.58,98.67)">
    <path fill="none" d="M-2.13,4.65 L 2.13 -4.65" class="primitive"/>
  </g>
</g>
<g stroke="#BBBBBB" fill="#AAAAFF" id="img-ed8bc622-2">
  <g transform="translate(168.31,109.38)">
    <circle cx="0" cy="0" r="2.12" class="primitive"/>
  </g>
  <g transform="translate(63.97,177.63)">
    <circle cx="0" cy="0" r="2.12" class="primitive"/>
  </g>
  <g transform="translate(52.85,35.94)">
    <circle cx="0" cy="0" r="2.12" class="primitive"/>
  </g>
  <g transform="translate(81.07,134.43)">
    <circle cx="0" cy="0" r="2.12" class="primitive"/>
  </g>
  <g transform="translate(19.5,172.44)">
    <circle cx="0" cy="0" r="2.12" class="primitive"/>
  </g>
  <g transform="translate(40.02,48.9)">
    <circle cx="0" cy="0" r="2.12" class="primitive"/>
  </g>
  <g transform="translate(186.27,157.76)">
    <circle cx="0" cy="0" r="2.12" class="primitive"/>
  </g>
  <g transform="translate(158.9,131.84)">
    <circle cx="0" cy="0" r="2.12" class="primitive"/>
  </g>
  <g transform="translate(133.24,136.16)">
    <circle cx="0" cy="0" r="2.12" class="primitive"/>
  </g>
  <g transform="translate(22.92,156.03)">
    <circle cx="0" cy="0" r="2.12" class="primitive"/>
  </g>
  <g transform="translate(23.78,60.13)">
    <circle cx="0" cy="0" r="2.12" class="primitive"/>
  </g>
  <g transform="translate(80.22,114.56)">
    <circle cx="0" cy="0" r="2.12" class="primitive"/>
  </g>
  <g transform="translate(28.05,36.8)">
    <circle cx="0" cy="0" r="2.12" class="primitive"/>
  </g>
  <g transform="translate(99.03,74.82)">
    <circle cx="0" cy="0" r="2.12" class="primitive"/>
  </g>
  <g transform="translate(19.5,50.63)">
    <circle cx="0" cy="0" r="2.12" class="primitive"/>
  </g>
  <g transform="translate(39.17,38.53)">
    <circle cx="0" cy="0" r="2.12" class="primitive"/>
  </g>
  <g transform="translate(159.75,92.96)">
    <circle cx="0" cy="0" r="2.12" class="primitive"/>
  </g>
  <g transform="translate(128.11,78.27)">
    <circle cx="0" cy="0" r="2.12" class="primitive"/>
  </g>
  <g transform="translate(20.35,110.24)">
    <circle cx="0" cy="0" r="2.12" class="primitive"/>
  </g>
  <g transform="translate(95.61,142.21)">
    <circle cx="0" cy="0" r="2.12" class="primitive"/>
  </g>
  <g transform="translate(99.89,84.32)">
    <circle cx="0" cy="0" r="2.12" class="primitive"/>
  </g>
  <g transform="translate(45.16,104.19)">
    <circle cx="0" cy="0" r="2.12" class="primitive"/>
  </g>
  <g transform="translate(63.12,46.31)">
    <circle cx="0" cy="0" r="2.12" class="primitive"/>
  </g>
  <g transform="translate(146.93,64.45)">
    <circle cx="0" cy="0" r="2.12" class="primitive"/>
  </g>
  <g transform="translate(152.91,19.53)">
    <circle cx="0" cy="0" r="2.12" class="primitive"/>
  </g>
  <g transform="translate(135.81,133.57)">
    <circle cx="0" cy="0" r="2.12" class="primitive"/>
  </g>
  <g transform="translate(129.82,132.7)">
    <circle cx="0" cy="0" r="2.12" class="primitive"/>
  </g>
  <g transform="translate(176.86,148.25)">
    <circle cx="0" cy="0" r="2.12" class="primitive"/>
  </g>
  <g transform="translate(164.89,145.66)">
    <circle cx="0" cy="0" r="2.12" class="primitive"/>
  </g>
  <g transform="translate(107.59,92.1)">
    <circle cx="0" cy="0" r="2.12" class="primitive"/>
  </g>
  <g transform="translate(16.93,172.44)">
    <circle cx="0" cy="0" r="2.12" class="primitive"/>
  </g>
  <g transform="translate(93.05,88.64)">
    <circle cx="0" cy="0" r="2.12" class="primitive"/>
  </g>
  <g transform="translate(164.89,161.21)">
    <circle cx="0" cy="0" r="2.12" class="primitive"/>
  </g>
  <g transform="translate(91.34,95.55)">
    <circle cx="0" cy="0" r="2.12" class="primitive"/>
  </g>
  <g transform="translate(122.13,149.12)">
    <circle cx="0" cy="0" r="2.12" class="primitive"/>
  </g>
  <g transform="translate(20.35,18.66)">
    <circle cx="0" cy="0" r="2.12" class="primitive"/>
  </g>
  <g transform="translate(51.14,147.39)">
    <circle cx="0" cy="0" r="2.12" class="primitive"/>
  </g>
  <g transform="translate(58.84,18.66)">
    <circle cx="0" cy="0" r="2.12" class="primitive"/>
  </g>
  <g transform="translate(16.93,181.95)">
    <circle cx="0" cy="0" r="2.12" class="primitive"/>
  </g>
  <g transform="translate(76.8,53.22)">
    <circle cx="0" cy="0" r="2.12" class="primitive"/>
  </g>
  <g transform="translate(81.07,156.89)">
    <circle cx="0" cy="0" r="2.12" class="primitive"/>
  </g>
  <g transform="translate(139.23,37.67)">
    <circle cx="0" cy="0" r="2.12" class="primitive"/>
  </g>
  <g transform="translate(91.34,47.17)">
    <circle cx="0" cy="0" r="2.12" class="primitive"/>
  </g>
  <g transform="translate(138.37,158.62)">
    <circle cx="0" cy="0" r="2.12" class="primitive"/>
  </g>
  <g transform="translate(97.32,143.93)">
    <circle cx="0" cy="0" r="2.12" class="primitive"/>
  </g>
  <g transform="translate(95.61,59.27)">
    <circle cx="0" cy="0" r="2.12" class="primitive"/>
  </g>
  <g transform="translate(109.3,70.5)">
    <circle cx="0" cy="0" r="2.12" class="primitive"/>
  </g>
  <g transform="translate(147.78,19.53)">
    <circle cx="0" cy="0" r="2.12" class="primitive"/>
  </g>
  <g transform="translate(79.36,100.74)">
    <circle cx="0" cy="0" r="2.12" class="primitive"/>
  </g>
  <g transform="translate(116.14,87.78)">
    <circle cx="0" cy="0" r="2.12" class="primitive"/>
  </g>
  <g transform="translate(152.91,124.06)">
    <circle cx="0" cy="0" r="2.12" class="primitive"/>
  </g>
  <g transform="translate(46.01,118.88)">
    <circle cx="0" cy="0" r="2.12" class="primitive"/>
  </g>
  <g transform="translate(174.29,111.1)">
    <circle cx="0" cy="0" r="2.12" class="primitive"/>
  </g>
  <g transform="translate(122.13,184.54)">
    <circle cx="0" cy="0" r="2.12" class="primitive"/>
  </g>
  <g transform="translate(40.02,37.67)">
    <circle cx="0" cy="0" r="2.12" class="primitive"/>
  </g>
  <g transform="translate(74.23,144.8)">
    <circle cx="0" cy="0" r="2.12" class="primitive"/>
  </g>
  <g transform="translate(182.85,41.12)">
    <circle cx="0" cy="0" r="2.12" class="primitive"/>
  </g>
  <g transform="translate(81.93,113.7)">
    <circle cx="0" cy="0" r="2.12" class="primitive"/>
  </g>
  <g transform="translate(17.79,172.44)">
    <circle cx="0" cy="0" r="2.12" class="primitive"/>
  </g>
  <g transform="translate(159.75,108.51)">
    <circle cx="0" cy="0" r="2.12" class="primitive"/>
  </g>
  <g transform="translate(176.86,17.8)">
    <circle cx="0" cy="0" r="2.12" class="primitive"/>
  </g>
  <g transform="translate(132.39,117.15)">
    <circle cx="0" cy="0" r="2.12" class="primitive"/>
  </g>
  <g transform="translate(183.7,84.32)">
    <circle cx="0" cy="0" r="2.12" class="primitive"/>
  </g>
  <g transform="translate(105.88,98.14)">
    <circle cx="0" cy="0" r="2.12" class="primitive"/>
  </g>
  <g transform="translate(111.86,156.03)">
    <circle cx="0" cy="0" r="2.12" class="primitive"/>
  </g>
  <g transform="translate(178.57,168.99)">
    <circle cx="0" cy="0" r="2.12" class="primitive"/>
  </g>
  <g transform="translate(57.98,118.88)">
    <circle cx="0" cy="0" r="2.12" class="primitive"/>
  </g>
  <g transform="translate(176,71.36)">
    <circle cx="0" cy="0" r="2.12" class="primitive"/>
  </g>
  <g transform="translate(57.13,99.01)">
    <circle cx="0" cy="0" r="2.12" class="primitive"/>
  </g>
  <g transform="translate(32.33,124.93)">
    <circle cx="0" cy="0" r="2.12" class="primitive"/>
  </g>
  <g transform="translate(40.88,186.27)">
    <circle cx="0" cy="0" r="2.12" class="primitive"/>
  </g>
  <g transform="translate(28.91,127.52)">
    <circle cx="0" cy="0" r="2.12" class="primitive"/>
  </g>
  <g transform="translate(94.76,108.51)">
    <circle cx="0" cy="0" r="2.12" class="primitive"/>
  </g>
  <g transform="translate(142.65,95.55)">
    <circle cx="0" cy="0" r="2.12" class="primitive"/>
  </g>
  <g transform="translate(183.7,81.73)">
    <circle cx="0" cy="0" r="2.12" class="primitive"/>
  </g>
  <g transform="translate(91.34,57.54)">
    <circle cx="0" cy="0" r="2.12" class="primitive"/>
  </g>
  <g transform="translate(35.75,56.67)">
    <circle cx="0" cy="0" r="2.12" class="primitive"/>
  </g>
  <g transform="translate(32.33,92.96)">
    <circle cx="0" cy="0" r="2.12" class="primitive"/>
  </g>
  <g transform="translate(46.01,55.81)">
    <circle cx="0" cy="0" r="2.12" class="primitive"/>
  </g>
  <g transform="translate(153.77,26.44)">
    <circle cx="0" cy="0" r="2.12" class="primitive"/>
  </g>
  <g transform="translate(40.02,16.93)">
    <circle cx="0" cy="0" r="2.12" class="primitive"/>
  </g>
  <g transform="translate(76.8,118.01)">
    <circle cx="0" cy="0" r="2.12" class="primitive"/>
  </g>
  <g transform="translate(148.64,85.19)">
    <circle cx="0" cy="0" r="2.12" class="primitive"/>
  </g>
  <g transform="translate(31.47,40.26)">
    <circle cx="0" cy="0" r="2.12" class="primitive"/>
  </g>
  <g transform="translate(185.41,48.9)">
    <circle cx="0" cy="0" r="2.12" class="primitive"/>
  </g>
  <g transform="translate(39.17,140.48)">
    <circle cx="0" cy="0" r="2.12" class="primitive"/>
  </g>
  <g transform="translate(28.05,159.48)">
    <circle cx="0" cy="0" r="2.12" class="primitive"/>
  </g>
  <g transform="translate(43.45,46.31)">
    <circle cx="0" cy="0" r="2.12" class="primitive"/>
  </g>
  <g transform="translate(83.64,34.21)">
    <circle cx="0" cy="0" r="2.12" class="primitive"/>
  </g>
  <g transform="translate(119.56,102.46)">
    <circle cx="0" cy="0" r="2.12" class="primitive"/>
  </g>
  <g transform="translate(59.69,103.33)">
    <circle cx="0" cy="0" r="2.12" class="primitive"/>
  </g>
  <g transform="translate(74.23,144.8)">
    <circle cx="0" cy="0" r="2.12" class="primitive"/>
  </g>
  <g transform="translate(119.56,59.27)">
    <circle cx="0" cy="0" r="2.12" class="primitive"/>
  </g>
  <g transform="translate(135.81,66.18)">
    <circle cx="0" cy="0" r="2.12" class="primitive"/>
  </g>
  <g transform="translate(122.13,41.12)">
    <circle cx="0" cy="0" r="2.12" class="primitive"/>
  </g>
  <g transform="translate(37.46,87.78)">
    <circle cx="0" cy="0" r="2.12" class="primitive"/>
  </g>
  <g transform="translate(140.08,122.33)">
    <circle cx="0" cy="0" r="2.12" class="primitive"/>
  </g>
  <g transform="translate(89.63,70.5)">
    <circle cx="0" cy="0" r="2.12" class="primitive"/>
  </g>
  <g transform="translate(166.6,140.48)">
    <circle cx="0" cy="0" r="2.12" class="primitive"/>
  </g>
  <g transform="translate(102.46,103.33)">
    <circle cx="0" cy="0" r="2.12" class="primitive"/>
  </g>
</g>
<g font-size="4" stroke="#000000" stroke-opacity="0.000" fill="#000000" id="img-ed8bc622-3">
</g>
</svg>
