<?xml version="1.0" encoding="UTF-8"?>
<svg xmlns="http://www.w3.org/2000/svg"
     xmlns:xlink="http://www.w3.org/1999/xlink"
     version="1.2"
     width="203.2mm" height="203.2mm" viewBox="0 0 203.2 203.2"
     stroke="none"
     fill="#000000"
     stroke-width="0.3"
     font-size="3.88"
>
<g stroke-width="0.95" stroke="#BBBBBB" id="img-613183a0-1">
  <g transform="translate(175.85,116.84)">
    <path fill="none" d="M-4.01,0.23 L 4.01 -0.23" class="primitive"/>
  </g>
  <g transform="translate(176.64,114.21)">
    <path fill="none" d="M-3.22,-2.4 L 3.22 2.4" class="primitive"/>
  </g>
  <g transform="translate(164.25,111.93)">
    <path fill="none" d="M-15.61,-4.68 L 15.61 4.68" class="primitive"/>
  </g>
  <g transform="translate(110.44,124.05)">
    <path fill="none" d="M2.81,-2.87 L -2.81 2.87" class="primitive"/>
  </g>
  <g transform="translate(111.63,126.53)">
    <path fill="none" d="M4,-0.39 L -4 0.39" class="primitive"/>
  </g>
  <g transform="translate(128.14,117.09)">
    <path fill="none" d="M20.5,-9.84 L -20.5 9.84" class="primitive"/>
  </g>
  <g transform="translate(159.06,108.94)">
    <path fill="none" d="M4.01,-0.23 L -4.01 0.23" class="primitive"/>
  </g>
  <g transform="translate(158.27,111.57)">
    <path fill="none" d="M3.22,2.4 L -3.22 -2.4" class="primitive"/>
  </g>
  <g transform="translate(170.66,113.85)">
    <path fill="none" d="M15.61,4.68 L -15.61 -4.68" class="primitive"/>
  </g>
  <g transform="translate(111.79,127.08)">
    <path fill="none" d="M3.56,-1.86 L -3.56 1.86" class="primitive"/>
  </g>
  <g transform="translate(112.16,129.8)">
    <path fill="none" d="M3.92,0.86 L -3.92 -0.86" class="primitive"/>
  </g>
  <g transform="translate(147.25,123.74)">
    <path fill="none" d="M39.02,-5.2 L -39.02 5.2" class="primitive"/>
  </g>
  <g transform="translate(139.79,113.01)">
    <path fill="none" d="M-2.81,2.87 L 2.81 -2.87" class="primitive"/>
  </g>
  <g transform="translate(138.61,110.54)">
    <path fill="none" d="M-4,0.39 L 4 -0.39" class="primitive"/>
  </g>
  <g transform="translate(122.1,119.98)">
    <path fill="none" d="M-20.5,9.84 L 20.5 -9.84" class="primitive"/>
  </g>
  <g transform="translate(176.07,121.28)">
    <path fill="none" d="M-3.56,1.86 L 3.56 -1.86" class="primitive"/>
  </g>
  <g transform="translate(175.71,118.56)">
    <path fill="none" d="M-3.92,-0.86 L 3.92 0.86" class="primitive"/>
  </g>
  <g transform="translate(140.62,124.62)">
    <path fill="none" d="M-39.02,5.2 L 39.02 -5.2" class="primitive"/>
  </g>
</g>
<g stroke="#BBBBBB" fill="#AAAAFF" id="img-613183a0-2">
  <g transform="translate(148.64,107.24)">
    <circle cx="0" cy="0" r="6.69" class="primitive"/>
  </g>
  <g transform="translate(148.64,186.27)">
    <circle cx="0" cy="0" r="6.69" class="primitive"/>
  </g>
  <g transform="translate(63.97,50.8)">
    <circle cx="0" cy="0" r="6.69" class="primitive"/>
  </g>
  <g transform="translate(158.04,107.24)">
    <circle cx="0" cy="0" r="6.69" class="primitive"/>
  </g>
  <g transform="translate(73.38,107.24)">
    <circle cx="0" cy="0" r="6.69" class="primitive"/>
  </g>
  <g transform="translate(16.93,16.93)">
    <circle cx="0" cy="0" r="6.69" class="primitive"/>
  </g>
  <g transform="translate(186.27,118.53)">
    <circle cx="0" cy="0" r="6.69" class="primitive"/>
  </g>
  <g transform="translate(54.56,163.69)">
    <circle cx="0" cy="0" r="6.69" class="primitive"/>
  </g>
  <g transform="translate(111.01,73.38)">
    <circle cx="0" cy="0" r="6.69" class="primitive"/>
  </g>
  <g transform="translate(101.6,129.82)">
    <circle cx="0" cy="0" r="6.69" class="primitive"/>
  </g>
</g>
<g font-size="4" stroke="#000000" stroke-opacity="0.000" fill="#000000" id="img-613183a0-3">
</g>
</svg>
