<?xml version="1.0" encoding="UTF-8"?>
<svg xmlns="http://www.w3.org/2000/svg"
     xmlns:xlink="http://www.w3.org/1999/xlink"
     version="1.2"
     width="203.2mm" height="203.2mm" viewBox="0 0 203.2 203.2"
     stroke="none"
     fill="#000000"
     stroke-width="0.3"
     font-size="3.88"
>
<g stroke-width="0.3" stroke="#BBBBBB" id="img-a31a6ddd-1">
  <g transform="translate(53.73,73.01)">
    <path fill="none" d="M-0.59,1.13 L 0.59 -1.13" class="primitive"/>
  </g>
  <g transform="translate(53.14,72.37)">
    <path fill="none" d="M-1.17,0.48 L 1.17 -0.48" class="primitive"/>
  </g>
  <g transform="translate(47.9,77.75)">
    <path fill="none" d="M-6.42,5.87 L 6.42 -5.87" class="primitive"/>
  </g>
  <g transform="translate(46.61,90.17)">
    <path fill="none" d="M-1.11,-0.62 L 1.11 0.62" class="primitive"/>
  </g>
  <g transform="translate(47.26,89.6)">
    <path fill="none" d="M-0.45,-1.19 L 0.45 1.19" class="primitive"/>
  </g>
  <g transform="translate(44.6,87.2)">
    <path fill="none" d="M-3.12,-3.59 L 3.12 3.59" class="primitive"/>
  </g>
  <g transform="translate(53.48,91.2)">
    <path fill="none" d="M-0.7,1.06 L 0.7 -1.06" class="primitive"/>
  </g>
  <g transform="translate(52.96,90.5)">
    <path fill="none" d="M-1.22,0.36 L 1.22 -0.36" class="primitive"/>
  </g>
  <g transform="translate(52.07,91.7)">
    <path fill="none" d="M-2.11,1.56 L 2.11 -1.56" class="primitive"/>
  </g>
  <g transform="translate(51.72,94.47)">
    <path fill="none" d="M1.14,0.56 L -1.14 -0.56" class="primitive"/>
  </g>
  <g transform="translate(51.09,95.07)">
    <path fill="none" d="M0.52,1.16 L -0.52 -1.16" class="primitive"/>
  </g>
  <g transform="translate(50.26,93.59)">
    <path fill="none" d="M-0.31,-0.32 L 0.31 0.32" class="primitive"/>
  </g>
  <g transform="translate(43.64,81.06)">
    <path fill="none" d="M0.59,-1.13 L -0.59 1.13" class="primitive"/>
  </g>
  <g transform="translate(44.22,81.7)">
    <path fill="none" d="M1.17,-0.48 L -1.17 0.48" class="primitive"/>
  </g>
  <g transform="translate(49.46,76.32)">
    <path fill="none" d="M6.42,-5.87 L -6.42 5.87" class="primitive"/>
  </g>
  <g transform="translate(58.03,74.86)">
    <path fill="none" d="M-0.99,-0.8 L 0.99 0.8" class="primitive"/>
  </g>
  <g transform="translate(58.78,74.41)">
    <path fill="none" d="M-0.24,-1.25 L 0.24 1.25" class="primitive"/>
  </g>
  <g transform="translate(57.45,73.06)">
    <path fill="none" d="M-1.57,-2.6 L 1.57 2.6" class="primitive"/>
  </g>
  <g transform="translate(142.79,104.72)">
    <path fill="none" d="M-0.52,1.16 L 0.52 -1.16" class="primitive"/>
  </g>
  <g transform="translate(142.17,104.12)">
    <path fill="none" d="M-1.14,0.56 L 1.14 -0.56" class="primitive"/>
  </g>
  <g transform="translate(143.2,103.68)">
    <path fill="none" d="M-0.11,0.12 L 0.11 -0.12" class="primitive"/>
  </g>
  <g transform="translate(131.73,106.8)">
    <path fill="none" d="M1.01,-0.76 L -1.01 0.76" class="primitive"/>
  </g>
  <g transform="translate(131.99,107.63)">
    <path fill="none" d="M1.27,0.07 L -1.27 -0.07" class="primitive"/>
  </g>
  <g transform="translate(136.9,105.68)">
    <path fill="none" d="M6.18,-1.88 L -6.18 1.88" class="primitive"/>
  </g>
  <g transform="translate(145.07,101.11)">
    <path fill="none" d="M0.52,-1.16 L -0.52 1.16" class="primitive"/>
  </g>
  <g transform="translate(145.7,101.71)">
    <path fill="none" d="M1.14,-0.56 L -1.14 0.56" class="primitive"/>
  </g>
  <g transform="translate(144.67,102.15)">
    <path fill="none" d="M0.11,-0.12 L -0.11 0.12" class="primitive"/>
  </g>
  <g transform="translate(144.76,98.25)">
    <path fill="none" d="M0.57,1.13 L -0.57 -1.13" class="primitive"/>
  </g>
  <g transform="translate(143.9,98.36)">
    <path fill="none" d="M-0.29,1.24 L 0.29 -1.24" class="primitive"/>
  </g>
  <g transform="translate(144.48,99.58)">
    <path fill="none" d="M0.3,2.46 L -0.3 -2.46" class="primitive"/>
  </g>
  <g transform="translate(52.36,90.95)">
    <path fill="none" d="M0.7,-1.06 L -0.7 1.06" class="primitive"/>
  </g>
  <g transform="translate(52.87,91.64)">
    <path fill="none" d="M1.22,-0.36 L -1.22 0.36" class="primitive"/>
  </g>
  <g transform="translate(53.77,90.44)">
    <path fill="none" d="M2.11,-1.56 L -2.11 1.56" class="primitive"/>
  </g>
  <g transform="translate(61.41,93.43)">
    <path fill="none" d="M-1.22,-0.35 L 1.22 0.35" class="primitive"/>
  </g>
  <g transform="translate(61.92,92.72)">
    <path fill="none" d="M-0.71,-1.05 L 0.71 1.05" class="primitive"/>
  </g>
  <g transform="translate(59.26,91.33)">
    <path fill="none" d="M-3.38,-2.45 L 3.38 2.45" class="primitive"/>
  </g>
  <g transform="translate(58.81,90.47)">
    <path fill="none" d="M1.22,0.35 L -1.22 -0.35" class="primitive"/>
  </g>
  <g transform="translate(58.3,91.17)">
    <path fill="none" d="M0.71,1.05 L -0.71 -1.05" class="primitive"/>
  </g>
  <g transform="translate(60.97,92.57)">
    <path fill="none" d="M3.38,2.45 L -3.38 -2.45" class="primitive"/>
  </g>
  <g transform="translate(87.36,104.72)">
    <path fill="none" d="M-1.27,-0.04 L 1.27 0.04" class="primitive"/>
  </g>
  <g transform="translate(87.68,103.91)">
    <path fill="none" d="M-0.95,-0.85 L 0.95 0.85" class="primitive"/>
  </g>
  <g transform="translate(76.49,99.89)">
    <path fill="none" d="M-12.14,-4.87 L 12.14 4.87" class="primitive"/>
  </g>
  <g transform="translate(140.78,96.12)">
    <path fill="none" d="M-1.08,0.67 L 1.08 -0.67" class="primitive"/>
  </g>
  <g transform="translate(140.6,95.27)">
    <path fill="none" d="M-1.26,-0.18 L 1.26 0.18" class="primitive"/>
  </g>
  <g transform="translate(140.78,95.67)">
    <path fill="none" d="M-1.08,0.22 L 1.08 -0.22" class="primitive"/>
  </g>
  <g transform="translate(81.22,82.17)">
    <path fill="none" d="M1.26,-0.16 L -1.26 0.16" class="primitive"/>
  </g>
  <g transform="translate(81.02,83.02)">
    <path fill="none" d="M1.07,0.69 L -1.07 -0.69" class="primitive"/>
  </g>
  <g transform="translate(109.83,89.11)">
    <path fill="none" d="M29.87,6.78 L -29.87 -6.78" class="primitive"/>
  </g>
  <g transform="translate(140.05,105.17)">
    <path fill="none" d="M-1.01,0.76 L 1.01 -0.76" class="primitive"/>
  </g>
  <g transform="translate(139.79,104.34)">
    <path fill="none" d="M-1.27,-0.07 L 1.27 0.07" class="primitive"/>
  </g>
  <g transform="translate(134.88,106.3)">
    <path fill="none" d="M-6.18,1.88 L 6.18 -1.88" class="primitive"/>
  </g>
  <g transform="translate(104.9,100.79)">
    <path fill="none" d="M1.27,-0.08 L -1.27 0.08" class="primitive"/>
  </g>
  <g transform="translate(104.66,101.63)">
    <path fill="none" d="M1.02,0.75 L -1.02 -0.75" class="primitive"/>
  </g>
  <g transform="translate(116.16,104.53)">
    <path fill="none" d="M12.53,3.65 L -12.53 -3.65" class="primitive"/>
  </g>
  <g transform="translate(43.99,85.83)">
    <path fill="none" d="M1.11,0.62 L -1.11 -0.62" class="primitive"/>
  </g>
  <g transform="translate(43.33,86.4)">
    <path fill="none" d="M0.45,1.19 L -0.45 -1.19" class="primitive"/>
  </g>
  <g transform="translate(45.99,88.8)">
    <path fill="none" d="M3.12,3.59 L -3.12 -3.59" class="primitive"/>
  </g>
  <g transform="translate(47.34,91.18)">
    <path fill="none" d="M-1.14,-0.56 L 1.14 0.56" class="primitive"/>
  </g>
  <g transform="translate(47.97,90.58)">
    <path fill="none" d="M-0.52,-1.16 L 0.52 1.16" class="primitive"/>
  </g>
  <g transform="translate(48.8,92.06)">
    <path fill="none" d="M0.31,0.32 L -0.31 -0.32" class="primitive"/>
  </g>
  <g transform="translate(143.95,98.8)">
    <path fill="none" d="M-0.57,-1.13 L 0.57 1.13" class="primitive"/>
  </g>
  <g transform="translate(144.81,98.7)">
    <path fill="none" d="M0.29,-1.24 L -0.29 1.24" class="primitive"/>
  </g>
  <g transform="translate(144.23,97.48)">
    <path fill="none" d="M-0.3,-2.46 L 0.3 2.46" class="primitive"/>
  </g>
  <g transform="translate(142.85,94.8)">
    <path fill="none" d="M1.08,-0.67 L -1.08 0.67" class="primitive"/>
  </g>
  <g transform="translate(143.03,95.65)">
    <path fill="none" d="M1.26,0.18 L -1.26 -0.18" class="primitive"/>
  </g>
  <g transform="translate(142.85,95.24)">
    <path fill="none" d="M1.08,-0.22 L -1.08 0.22" class="primitive"/>
  </g>
  <g transform="translate(57.96,73.06)">
    <path fill="none" d="M0.99,0.8 L -0.99 -0.8" class="primitive"/>
  </g>
  <g transform="translate(57.22,73.51)">
    <path fill="none" d="M0.24,1.25 L -0.24 -1.25" class="primitive"/>
  </g>
  <g transform="translate(58.54,74.87)">
    <path fill="none" d="M1.57,2.6 L -1.57 -2.6" class="primitive"/>
  </g>
  <g transform="translate(74.58,81.49)">
    <path fill="none" d="M-1.26,0.14 L 1.26 -0.14" class="primitive"/>
  </g>
  <g transform="translate(74.78,80.64)">
    <path fill="none" d="M-1.05,-0.71 L 1.05 0.71" class="primitive"/>
  </g>
  <g transform="translate(67.98,79.41)">
    <path fill="none" d="M-7.86,-1.94 L 7.86 1.94" class="primitive"/>
  </g>
  <g transform="translate(136.38,95.59)">
    <path fill="none" d="M-1.26,0.16 L 1.26 -0.16" class="primitive"/>
  </g>
  <g transform="translate(136.57,94.74)">
    <path fill="none" d="M-1.07,-0.69 L 1.07 0.69" class="primitive"/>
  </g>
  <g transform="translate(107.76,88.64)">
    <path fill="none" d="M-29.87,-6.78 L 29.87 6.78" class="primitive"/>
  </g>
  <g transform="translate(63.43,77.84)">
    <path fill="none" d="M1.26,-0.14 L -1.26 0.14" class="primitive"/>
  </g>
  <g transform="translate(63.22,78.69)">
    <path fill="none" d="M1.05,0.71 L -1.05 -0.71" class="primitive"/>
  </g>
  <g transform="translate(70.03,79.92)">
    <path fill="none" d="M7.86,1.94 L -7.86 -1.94" class="primitive"/>
  </g>
  <g transform="translate(67.58,95.85)">
    <path fill="none" d="M1.27,0.04 L -1.27 -0.04" class="primitive"/>
  </g>
  <g transform="translate(67.26,96.66)">
    <path fill="none" d="M0.95,0.85 L -0.95 -0.85" class="primitive"/>
  </g>
  <g transform="translate(78.45,100.68)">
    <path fill="none" d="M12.14,4.87 L -12.14 -4.87" class="primitive"/>
  </g>
  <g transform="translate(98.8,102.1)">
    <path fill="none" d="M-0.89,0.91 L 0.89 -0.91" class="primitive"/>
  </g>
  <g transform="translate(98.43,101.32)">
    <path fill="none" d="M-1.26,0.12 L 1.26 -0.12" class="primitive"/>
  </g>
  <g transform="translate(95.14,103.37)">
    <path fill="none" d="M-4.55,2.18 L 4.55 -2.18" class="primitive"/>
  </g>
  <g transform="translate(125.39,107.67)">
    <path fill="none" d="M-1.27,0.08 L 1.27 -0.08" class="primitive"/>
  </g>
  <g transform="translate(125.64,106.84)">
    <path fill="none" d="M-1.02,-0.75 L 1.02 0.75" class="primitive"/>
  </g>
  <g transform="translate(114.13,103.94)">
    <path fill="none" d="M-12.53,-3.65 L 12.53 3.65" class="primitive"/>
  </g>
  <g transform="translate(93.39,103.73)">
    <path fill="none" d="M0.89,-0.91 L -0.89 0.91" class="primitive"/>
  </g>
  <g transform="translate(93.77,104.51)">
    <path fill="none" d="M1.26,-0.12 L -1.26 0.12" class="primitive"/>
  </g>
  <g transform="translate(97.05,102.46)">
    <path fill="none" d="M4.55,-2.18 L -4.55 2.18" class="primitive"/>
  </g>
</g>
<g stroke="#BBBBBB" fill="#AAAAFF" id="img-a31a6ddd-2">
  <g transform="translate(53.34,110.81)">
    <circle cx="0" cy="0" r="2.12" class="primitive"/>
  </g>
  <g transform="translate(169.33,117.83)">
    <circle cx="0" cy="0" r="2.12" class="primitive"/>
  </g>
  <g transform="translate(124.46,87.12)">
    <circle cx="0" cy="0" r="2.12" class="primitive"/>
  </g>
  <g transform="translate(91.44,23.07)">
    <circle cx="0" cy="0" r="2.12" class="primitive"/>
  </g>
  <g transform="translate(177.8,37.99)">
    <circle cx="0" cy="0" r="2.12" class="primitive"/>
  </g>
  <g transform="translate(101.6,16.93)">
    <circle cx="0" cy="0" r="2.12" class="primitive"/>
  </g>
  <g transform="translate(149.86,85.37)">
    <circle cx="0" cy="0" r="2.12" class="primitive"/>
  </g>
  <g transform="translate(96.52,156.44)">
    <circle cx="0" cy="0" r="2.12" class="primitive"/>
  </g>
  <g transform="translate(128.69,151.17)">
    <circle cx="0" cy="0" r="2.12" class="primitive"/>
  </g>
  <g transform="translate(80.43,181)">
    <circle cx="0" cy="0" r="2.12" class="primitive"/>
  </g>
  <g transform="translate(186.27,164.33)">
    <circle cx="0" cy="0" r="2.12" class="primitive"/>
  </g>
  <g transform="translate(27.09,144.15)">
    <circle cx="0" cy="0" r="2.12" class="primitive"/>
  </g>
  <g transform="translate(41.49,83.61)">
    <circle cx="0" cy="0" r="2.12" class="primitive"/>
  </g>
  <g transform="translate(49.95,93.26)">
    <circle cx="0" cy="0" r="2.12" class="primitive"/>
  </g>
  <g transform="translate(74.51,86.25)">
    <circle cx="0" cy="0" r="2.12" class="primitive"/>
  </g>
  <g transform="translate(62.65,22.2)">
    <circle cx="0" cy="0" r="2.12" class="primitive"/>
  </g>
  <g transform="translate(115.99,159.07)">
    <circle cx="0" cy="0" r="2.12" class="primitive"/>
  </g>
  <g transform="translate(55.88,70.45)">
    <circle cx="0" cy="0" r="2.12" class="primitive"/>
  </g>
  <g transform="translate(60.96,167.84)">
    <circle cx="0" cy="0" r="2.12" class="primitive"/>
  </g>
  <g transform="translate(22.01,59.05)">
    <circle cx="0" cy="0" r="2.12" class="primitive"/>
  </g>
  <g transform="translate(143.09,103.79)">
    <circle cx="0" cy="0" r="2.12" class="primitive"/>
  </g>
  <g transform="translate(173.57,186.27)">
    <circle cx="0" cy="0" r="2.12" class="primitive"/>
  </g>
  <g transform="translate(26.25,142.4)">
    <circle cx="0" cy="0" r="2.12" class="primitive"/>
  </g>
  <g transform="translate(57.57,104.67)">
    <circle cx="0" cy="0" r="2.12" class="primitive"/>
  </g>
  <g transform="translate(165.1,58.17)">
    <circle cx="0" cy="0" r="2.12" class="primitive"/>
  </g>
  <g transform="translate(144.78,102.04)">
    <circle cx="0" cy="0" r="2.12" class="primitive"/>
  </g>
  <g transform="translate(126.15,116.08)">
    <circle cx="0" cy="0" r="2.12" class="primitive"/>
  </g>
  <g transform="translate(133.77,43.25)">
    <circle cx="0" cy="0" r="2.12" class="primitive"/>
  </g>
  <g transform="translate(20.32,122.22)">
    <circle cx="0" cy="0" r="2.12" class="primitive"/>
  </g>
  <g transform="translate(135.47,180.13)">
    <circle cx="0" cy="0" r="2.12" class="primitive"/>
  </g>
  <g transform="translate(36.41,37.99)">
    <circle cx="0" cy="0" r="2.12" class="primitive"/>
  </g>
  <g transform="translate(92.29,45.01)">
    <circle cx="0" cy="0" r="2.12" class="primitive"/>
  </g>
  <g transform="translate(149.86,172.23)">
    <circle cx="0" cy="0" r="2.12" class="primitive"/>
  </g>
  <g transform="translate(72.81,33.6)">
    <circle cx="0" cy="0" r="2.12" class="primitive"/>
  </g>
  <g transform="translate(64.35,73.09)">
    <circle cx="0" cy="0" r="2.12" class="primitive"/>
  </g>
  <g transform="translate(138.01,33.6)">
    <circle cx="0" cy="0" r="2.12" class="primitive"/>
  </g>
  <g transform="translate(77.05,44.13)">
    <circle cx="0" cy="0" r="2.12" class="primitive"/>
  </g>
  <g transform="translate(66.04,60.8)">
    <circle cx="0" cy="0" r="2.12" class="primitive"/>
  </g>
  <g transform="translate(81.28,46.76)">
    <circle cx="0" cy="0" r="2.12" class="primitive"/>
  </g>
  <g transform="translate(55.88,88.88)">
    <circle cx="0" cy="0" r="2.12" class="primitive"/>
  </g>
  <g transform="translate(160.87,62.56)">
    <circle cx="0" cy="0" r="2.12" class="primitive"/>
  </g>
  <g transform="translate(177.8,161.7)">
    <circle cx="0" cy="0" r="2.12" class="primitive"/>
  </g>
  <g transform="translate(64.35,95.02)">
    <circle cx="0" cy="0" r="2.12" class="primitive"/>
  </g>
  <g transform="translate(53.34,152.93)">
    <circle cx="0" cy="0" r="2.12" class="primitive"/>
  </g>
  <g transform="translate(137.16,23.95)">
    <circle cx="0" cy="0" r="2.12" class="primitive"/>
  </g>
  <g transform="translate(108.37,183.63)">
    <circle cx="0" cy="0" r="2.12" class="primitive"/>
  </g>
  <g transform="translate(139.7,95.9)">
    <circle cx="0" cy="0" r="2.12" class="primitive"/>
  </g>
  <g transform="translate(55.88,34.48)">
    <circle cx="0" cy="0" r="2.12" class="primitive"/>
  </g>
  <g transform="translate(154.94,79.23)">
    <circle cx="0" cy="0" r="2.12" class="primitive"/>
  </g>
  <g transform="translate(75.35,141.52)">
    <circle cx="0" cy="0" r="2.12" class="primitive"/>
  </g>
  <g transform="translate(128.69,108.18)">
    <circle cx="0" cy="0" r="2.12" class="primitive"/>
  </g>
  <g transform="translate(49.11,92.39)">
    <circle cx="0" cy="0" r="2.12" class="primitive"/>
  </g>
  <g transform="translate(88.9,139.77)">
    <circle cx="0" cy="0" r="2.12" class="primitive"/>
  </g>
  <g transform="translate(170.18,166.09)">
    <circle cx="0" cy="0" r="2.12" class="primitive"/>
  </g>
  <g transform="translate(127.85,141.52)">
    <circle cx="0" cy="0" r="2.12" class="primitive"/>
  </g>
  <g transform="translate(161.71,37.11)">
    <circle cx="0" cy="0" r="2.12" class="primitive"/>
  </g>
  <g transform="translate(19.47,80.1)">
    <circle cx="0" cy="0" r="2.12" class="primitive"/>
  </g>
  <g transform="translate(77.89,72.21)">
    <circle cx="0" cy="0" r="2.12" class="primitive"/>
  </g>
  <g transform="translate(86.36,139.77)">
    <circle cx="0" cy="0" r="2.12" class="primitive"/>
  </g>
  <g transform="translate(168.49,180.13)">
    <circle cx="0" cy="0" r="2.12" class="primitive"/>
  </g>
  <g transform="translate(156.63,52.91)">
    <circle cx="0" cy="0" r="2.12" class="primitive"/>
  </g>
  <g transform="translate(117.69,28.34)">
    <circle cx="0" cy="0" r="2.12" class="primitive"/>
  </g>
  <g transform="translate(182.88,114.32)">
    <circle cx="0" cy="0" r="2.12" class="primitive"/>
  </g>
  <g transform="translate(171.87,149.42)">
    <circle cx="0" cy="0" r="2.12" class="primitive"/>
  </g>
  <g transform="translate(131.23,36.24)">
    <circle cx="0" cy="0" r="2.12" class="primitive"/>
  </g>
  <g transform="translate(16.93,149.42)">
    <circle cx="0" cy="0" r="2.12" class="primitive"/>
  </g>
  <g transform="translate(143.93,95.02)">
    <circle cx="0" cy="0" r="2.12" class="primitive"/>
  </g>
  <g transform="translate(135.47,17.81)">
    <circle cx="0" cy="0" r="2.12" class="primitive"/>
  </g>
  <g transform="translate(165.1,26.58)">
    <circle cx="0" cy="0" r="2.12" class="primitive"/>
  </g>
  <g transform="translate(29.63,67.82)">
    <circle cx="0" cy="0" r="2.12" class="primitive"/>
  </g>
  <g transform="translate(111.76,55.54)">
    <circle cx="0" cy="0" r="2.12" class="primitive"/>
  </g>
  <g transform="translate(150.71,55.54)">
    <circle cx="0" cy="0" r="2.12" class="primitive"/>
  </g>
  <g transform="translate(93.98,68.7)">
    <circle cx="0" cy="0" r="2.12" class="primitive"/>
  </g>
  <g transform="translate(127,123.97)">
    <circle cx="0" cy="0" r="2.12" class="primitive"/>
  </g>
  <g transform="translate(168.49,183.63)">
    <circle cx="0" cy="0" r="2.12" class="primitive"/>
  </g>
  <g transform="translate(60.11,77.47)">
    <circle cx="0" cy="0" r="2.12" class="primitive"/>
  </g>
  <g transform="translate(66.04,167.84)">
    <circle cx="0" cy="0" r="2.12" class="primitive"/>
  </g>
  <g transform="translate(34.71,137.13)">
    <circle cx="0" cy="0" r="2.12" class="primitive"/>
  </g>
  <g transform="translate(77.89,81.86)">
    <circle cx="0" cy="0" r="2.12" class="primitive"/>
  </g>
  <g transform="translate(25.4,183.63)">
    <circle cx="0" cy="0" r="2.12" class="primitive"/>
  </g>
  <g transform="translate(91.44,52.03)">
    <circle cx="0" cy="0" r="2.12" class="primitive"/>
  </g>
  <g transform="translate(182.88,178.37)">
    <circle cx="0" cy="0" r="2.12" class="primitive"/>
  </g>
  <g transform="translate(171.87,170.47)">
    <circle cx="0" cy="0" r="2.12" class="primitive"/>
  </g>
  <g transform="translate(121.07,72.21)">
    <circle cx="0" cy="0" r="2.12" class="primitive"/>
  </g>
  <g transform="translate(67.73,69.58)">
    <circle cx="0" cy="0" r="2.12" class="primitive"/>
  </g>
  <g transform="translate(23.71,126.61)">
    <circle cx="0" cy="0" r="2.12" class="primitive"/>
  </g>
  <g transform="translate(168.49,94.14)">
    <circle cx="0" cy="0" r="2.12" class="primitive"/>
  </g>
  <g transform="translate(77.89,40.62)">
    <circle cx="0" cy="0" r="2.12" class="primitive"/>
  </g>
  <g transform="translate(60.96,116.08)">
    <circle cx="0" cy="0" r="2.12" class="primitive"/>
  </g>
  <g transform="translate(90.59,105.55)">
    <circle cx="0" cy="0" r="2.12" class="primitive"/>
  </g>
  <g transform="translate(50.8,34.48)">
    <circle cx="0" cy="0" r="2.12" class="primitive"/>
  </g>
  <g transform="translate(162.56,81.86)">
    <circle cx="0" cy="0" r="2.12" class="primitive"/>
  </g>
  <g transform="translate(21.17,105.55)">
    <circle cx="0" cy="0" r="2.12" class="primitive"/>
  </g>
  <g transform="translate(37.25,102.04)">
    <circle cx="0" cy="0" r="2.12" class="primitive"/>
  </g>
  <g transform="translate(162.56,163.45)">
    <circle cx="0" cy="0" r="2.12" class="primitive"/>
  </g>
  <g transform="translate(97.37,166.96)">
    <circle cx="0" cy="0" r="2.12" class="primitive"/>
  </g>
  <g transform="translate(149.86,37.11)">
    <circle cx="0" cy="0" r="2.12" class="primitive"/>
  </g>
  <g transform="translate(147.32,109.06)">
    <circle cx="0" cy="0" r="2.12" class="primitive"/>
  </g>
  <g transform="translate(76.2,21.32)">
    <circle cx="0" cy="0" r="2.12" class="primitive"/>
  </g>
  <g transform="translate(101.6,100.28)">
    <circle cx="0" cy="0" r="2.12" class="primitive"/>
  </g>
</g>
<g font-size="4" stroke="#000000" stroke-opacity="0.000" fill="#000000" id="img-a31a6ddd-3">
</g>
</svg>
