<?xml version="1.0" encoding="UTF-8"?>
<svg xmlns="http://www.w3.org/2000/svg"
     xmlns:xlink="http://www.w3.org/1999/xlink"
     version="1.2"
     width="203.2mm" height="203.2mm" viewBox="0 0 203.2 203.2"
     stroke="none"
     fill="#000000"
     stroke-width="0.3"
     font-size="3.88"
>
<g stroke-width="0.95" stroke="#BBBBBB" id="img-23a6be07-1">
  <g transform="translate(147.58,108.62)">
    <path fill="none" d="M-3.77,1.37 L 3.77 -1.37" class="primitive"/>
  </g>
  <g transform="translate(147.58,105.87)">
    <path fill="none" d="M-3.77,-1.37 L 3.77 1.37" class="primitive"/>
  </g>
  <g transform="translate(149.99,107.24)">
    <path fill="none" d="M-1.36,0 L 1.36 0" class="primitive"/>
  </g>
  <g transform="translate(110.44,124.05)">
    <path fill="none" d="M2.81,-2.87 L -2.81 2.87" class="primitive"/>
  </g>
  <g transform="translate(111.63,126.53)">
    <path fill="none" d="M4,-0.39 L -4 0.39" class="primitive"/>
  </g>
  <g transform="translate(128.14,117.09)">
    <path fill="none" d="M20.5,-9.84 L -20.5 9.84" class="primitive"/>
  </g>
  <g transform="translate(159.1,105.87)">
    <path fill="none" d="M3.77,-1.37 L -3.77 1.37" class="primitive"/>
  </g>
  <g transform="translate(159.1,108.62)">
    <path fill="none" d="M3.77,1.37 L -3.77 -1.37" class="primitive"/>
  </g>
  <g transform="translate(156.69,107.24)">
    <path fill="none" d="M1.36,0 L -1.36 0" class="primitive"/>
  </g>
  <g transform="translate(110.81,124.66)">
    <path fill="none" d="M2.99,-2.68 L -2.99 2.68" class="primitive"/>
  </g>
  <g transform="translate(111.83,127.21)">
    <path fill="none" d="M4.01,-0.13 L -4.01 0.13" class="primitive"/>
  </g>
  <g transform="translate(132.93,117.29)">
    <path fill="none" d="M25.11,-10.05 L -25.11 10.05" class="primitive"/>
  </g>
  <g transform="translate(139.79,113.01)">
    <path fill="none" d="M-2.81,2.87 L 2.81 -2.87" class="primitive"/>
  </g>
  <g transform="translate(138.61,110.54)">
    <path fill="none" d="M-4,0.39 L 4 -0.39" class="primitive"/>
  </g>
  <g transform="translate(122.1,119.98)">
    <path fill="none" d="M-20.5,9.84 L 20.5 -9.84" class="primitive"/>
  </g>
  <g transform="translate(148.84,112.41)">
    <path fill="none" d="M-2.99,2.68 L 2.99 -2.68" class="primitive"/>
  </g>
  <g transform="translate(147.82,109.86)">
    <path fill="none" d="M-4.01,0.13 L 4.01 -0.13" class="primitive"/>
  </g>
  <g transform="translate(126.71,119.78)">
    <path fill="none" d="M-25.11,10.05 L 25.11 -10.05" class="primitive"/>
  </g>
</g>
<g stroke="#BBBBBB" fill="#AAAAFF" id="img-23a6be07-2">
  <g transform="translate(148.64,107.24)">
    <circle cx="0" cy="0" r="6.69" class="primitive"/>
  </g>
  <g transform="translate(148.64,186.27)">
    <circle cx="0" cy="0" r="6.69" class="primitive"/>
  </g>
  <g transform="translate(63.97,50.8)">
    <circle cx="0" cy="0" r="6.69" class="primitive"/>
  </g>
  <g transform="translate(158.04,107.24)">
    <circle cx="0" cy="0" r="6.69" class="primitive"/>
  </g>
  <g transform="translate(73.38,107.24)">
    <circle cx="0" cy="0" r="6.69" class="primitive"/>
  </g>
  <g transform="translate(16.93,16.93)">
    <circle cx="0" cy="0" r="6.69" class="primitive"/>
  </g>
  <g transform="translate(186.27,118.53)">
    <circle cx="0" cy="0" r="6.69" class="primitive"/>
  </g>
  <g transform="translate(54.56,163.69)">
    <circle cx="0" cy="0" r="6.69" class="primitive"/>
  </g>
  <g transform="translate(111.01,73.38)">
    <circle cx="0" cy="0" r="6.69" class="primitive"/>
  </g>
  <g transform="translate(101.6,129.82)">
    <circle cx="0" cy="0" r="6.69" class="primitive"/>
  </g>
</g>
<g font-size="4" stroke="#000000" stroke-opacity="0.000" fill="#000000" id="img-23a6be07-3">
</g>
</svg>
