<?xml version="1.0" encoding="UTF-8"?>
<svg xmlns="http://www.w3.org/2000/svg"
     xmlns:xlink="http://www.w3.org/1999/xlink"
     version="1.2"
     width="203.2mm" height="203.2mm" viewBox="0 0 203.2 203.2"
     stroke="none"
     fill="#000000"
     stroke-width="0.3"
     font-size="3.88"
>
<g stroke-width="0.95" stroke="#BBBBBB" id="img-7033e02f-1">
  <g transform="translate(50.38,40.08)">
    <path fill="none" d="M3.02,-2.65 L -3.02 2.65" class="primitive"/>
  </g>
  <g transform="translate(51.38,42.64)">
    <path fill="none" d="M4.02,-0.09 L -4.02 0.09" class="primitive"/>
  </g>
  <g transform="translate(80.53,29.83)">
    <path fill="none" d="M33.17,-12.9 L -33.17 12.9" class="primitive"/>
  </g>
  <g transform="translate(176.01,42.64)">
    <path fill="none" d="M-4.02,-0.09 L 4.02 0.09" class="primitive"/>
  </g>
  <g transform="translate(177.01,40.08)">
    <path fill="none" d="M-3.02,-2.65 L 3.02 2.65" class="primitive"/>
  </g>
  <g transform="translate(146.86,29.83)">
    <path fill="none" d="M-33.17,-12.9 L 33.17 12.9" class="primitive"/>
  </g>
  <g transform="translate(124.94,69.79)">
    <path fill="none" d="M0.55,3.98 L -0.55 -3.98" class="primitive"/>
  </g>
  <g transform="translate(122.25,69.21)">
    <path fill="none" d="M-2.13,3.4 L 2.13 -3.4" class="primitive"/>
  </g>
  <g transform="translate(119.04,90.76)">
    <path fill="none" d="M-5.35,24.95 L 5.35 -24.95" class="primitive"/>
  </g>
  <g transform="translate(112.32,119.35)">
    <path fill="none" d="M-1.37,-3.77 L 1.37 3.77" class="primitive"/>
  </g>
  <g transform="translate(115.07,119.35)">
    <path fill="none" d="M1.37,-3.77 L -1.37 3.77" class="primitive"/>
  </g>
  <g transform="translate(113.7,119.42)">
    <path fill="none" d="M0,-3.71 L 0 3.71" class="primitive"/>
  </g>
  <g transform="translate(23.26,181)">
    <path fill="none" d="M-1.41,3.76 L 1.41 -3.76" class="primitive"/>
  </g>
  <g transform="translate(21.17,179.21)">
    <path fill="none" d="M-3.5,1.97 L 3.5 -1.97" class="primitive"/>
  </g>
  <g transform="translate(20.8,181.75)">
    <path fill="none" d="M-3.87,4.51 L 3.87 -4.51" class="primitive"/>
  </g>
  <g transform="translate(29.5,55.7)">
    <path fill="none" d="M1.05,3.88 L -1.05 -3.88" class="primitive"/>
  </g>
  <g transform="translate(26.77,55.47)">
    <path fill="none" d="M-1.69,3.64 L 1.69 -3.64" class="primitive"/>
  </g>
  <g transform="translate(22.7,119.05)">
    <path fill="none" d="M-5.76,67.22 L 5.76 -67.22" class="primitive"/>
  </g>
  <g transform="translate(104.44,22.01)">
    <path fill="none" d="M-3.02,2.65 L 3.02 -2.65" class="primitive"/>
  </g>
  <g transform="translate(103.44,19.45)">
    <path fill="none" d="M-4.02,0.09 L 4.02 -0.09" class="primitive"/>
  </g>
  <g transform="translate(74.29,32.26)">
    <path fill="none" d="M-33.17,12.9 L 33.17 -12.9" class="primitive"/>
  </g>
  <g transform="translate(39.5,43.78)">
    <path fill="none" d="M3.77,-1.37 L -3.77 1.37" class="primitive"/>
  </g>
  <g transform="translate(39.5,46.53)">
    <path fill="none" d="M3.77,1.37 L -3.77 -1.37" class="primitive"/>
  </g>
  <g transform="translate(38.42,45.16)">
    <path fill="none" d="M2.7,0 L -2.7 0" class="primitive"/>
  </g>
  <g transform="translate(22.7,177.43)">
    <path fill="none" d="M1.41,-3.76 L -1.41 3.76" class="primitive"/>
  </g>
  <g transform="translate(24.79,179.21)">
    <path fill="none" d="M3.5,-1.97 L -3.5 1.97" class="primitive"/>
  </g>
  <g transform="translate(25.16,176.67)">
    <path fill="none" d="M3.87,-4.51 L -3.87 4.51" class="primitive"/>
  </g>
  <g transform="translate(104.95,135.73)">
    <path fill="none" d="M-2.76,2.92 L 2.76 -2.92" class="primitive"/>
  </g>
  <g transform="translate(103.72,133.27)">
    <path fill="none" d="M-3.99,0.46 L 3.99 -0.46" class="primitive"/>
  </g>
  <g transform="translate(68.37,152.49)">
    <path fill="none" d="M-39.34,19.67 L 39.34 -19.67" class="primitive"/>
  </g>
  <g transform="translate(123.95,19.45)">
    <path fill="none" d="M4.02,0.09 L -4.02 -0.09" class="primitive"/>
  </g>
  <g transform="translate(122.95,22.01)">
    <path fill="none" d="M3.02,2.65 L -3.02 -2.65" class="primitive"/>
  </g>
  <g transform="translate(153.1,32.26)">
    <path fill="none" d="M33.17,12.9 L -33.17 -12.9" class="primitive"/>
  </g>
  <g transform="translate(159.24,54.19)">
    <path fill="none" d="M3.02,-2.65 L -3.02 2.65" class="primitive"/>
  </g>
  <g transform="translate(160.23,56.75)">
    <path fill="none" d="M4.02,-0.09 L -4.02 0.09" class="primitive"/>
  </g>
  <g transform="translate(171.24,51)">
    <path fill="none" d="M15.02,-5.84 L -15.02 5.84" class="primitive"/>
  </g>
  <g transform="translate(114.55,105.19)">
    <path fill="none" d="M-0.55,-3.98 L 0.55 3.98" class="primitive"/>
  </g>
  <g transform="translate(117.23,105.76)">
    <path fill="none" d="M2.13,-3.4 L -2.13 3.4" class="primitive"/>
  </g>
  <g transform="translate(120.44,84.22)">
    <path fill="none" d="M5.35,-24.95 L -5.35 24.95" class="primitive"/>
  </g>
  <g transform="translate(139.51,60.64)">
    <path fill="none" d="M-3.77,1.37 L 3.77 -1.37" class="primitive"/>
  </g>
  <g transform="translate(139.51,57.89)">
    <path fill="none" d="M-3.77,-1.37 L 3.77 1.37" class="primitive"/>
  </g>
  <g transform="translate(134.54,59.27)">
    <path fill="none" d="M-8.75,0 L 8.75 0" class="primitive"/>
  </g>
  <g transform="translate(16.46,175.72)">
    <path fill="none" d="M-1.05,-3.88 L 1.05 3.88" class="primitive"/>
  </g>
  <g transform="translate(19.2,175.95)">
    <path fill="none" d="M1.69,-3.64 L -1.69 3.64" class="primitive"/>
  </g>
  <g transform="translate(23.27,112.38)">
    <path fill="none" d="M5.76,-67.22 L -5.76 67.22" class="primitive"/>
  </g>
  <g transform="translate(30.66,46.53)">
    <path fill="none" d="M-3.77,1.37 L 3.77 -1.37" class="primitive"/>
  </g>
  <g transform="translate(30.66,43.78)">
    <path fill="none" d="M-3.77,-1.37 L 3.77 1.37" class="primitive"/>
  </g>
  <g transform="translate(31.73,45.16)">
    <path fill="none" d="M-2.7,0 L 2.7 0" class="primitive"/>
  </g>
  <g transform="translate(177.01,50.23)">
    <path fill="none" d="M-3.02,2.65 L 3.02 -2.65" class="primitive"/>
  </g>
  <g transform="translate(176.01,47.67)">
    <path fill="none" d="M-4.02,0.09 L 4.02 -0.09" class="primitive"/>
  </g>
  <g transform="translate(165,53.42)">
    <path fill="none" d="M-15.02,5.84 L 15.02 -5.84" class="primitive"/>
  </g>
  <g transform="translate(136.26,57.89)">
    <path fill="none" d="M3.77,-1.37 L -3.77 1.37" class="primitive"/>
  </g>
  <g transform="translate(136.26,60.64)">
    <path fill="none" d="M3.77,1.37 L -3.77 -1.37" class="primitive"/>
  </g>
  <g transform="translate(141.23,59.27)">
    <path fill="none" d="M8.75,0 L -8.75 0" class="primitive"/>
  </g>
  <g transform="translate(115.07,126.18)">
    <path fill="none" d="M1.37,3.77 L -1.37 -3.77" class="primitive"/>
  </g>
  <g transform="translate(112.32,126.18)">
    <path fill="none" d="M-1.37,3.77 L 1.37 -3.77" class="primitive"/>
  </g>
  <g transform="translate(113.7,126.11)">
    <path fill="none" d="M0,3.71 L 0 -3.71" class="primitive"/>
  </g>
  <g transform="translate(37.78,166.25)">
    <path fill="none" d="M2.76,-2.92 L -2.76 2.92" class="primitive"/>
  </g>
  <g transform="translate(39.01,168.7)">
    <path fill="none" d="M3.99,-0.46 L -3.99 0.46" class="primitive"/>
  </g>
  <g transform="translate(74.36,149.49)">
    <path fill="none" d="M39.34,-19.67 L -39.34 19.67" class="primitive"/>
  </g>
</g>
<g stroke="#BBBBBB" fill="#AAAAFF" id="img-7033e02f-2">
  <g transform="translate(113.7,16.93)">
    <circle cx="0" cy="0" r="6.69" class="primitive"/>
  </g>
  <g transform="translate(113.7,115.71)">
    <circle cx="0" cy="0" r="6.69" class="primitive"/>
  </g>
  <g transform="translate(16.93,186.27)">
    <circle cx="0" cy="0" r="6.69" class="primitive"/>
  </g>
  <g transform="translate(41.12,45.16)">
    <circle cx="0" cy="0" r="6.69" class="primitive"/>
  </g>
  <g transform="translate(29.03,172.16)">
    <circle cx="0" cy="0" r="6.69" class="primitive"/>
  </g>
  <g transform="translate(186.27,45.16)">
    <circle cx="0" cy="0" r="6.69" class="primitive"/>
  </g>
  <g transform="translate(125.79,59.27)">
    <circle cx="0" cy="0" r="6.69" class="primitive"/>
  </g>
  <g transform="translate(29.03,45.16)">
    <circle cx="0" cy="0" r="6.69" class="primitive"/>
  </g>
  <g transform="translate(149.98,59.27)">
    <circle cx="0" cy="0" r="6.69" class="primitive"/>
  </g>
  <g transform="translate(113.7,129.82)">
    <circle cx="0" cy="0" r="6.69" class="primitive"/>
  </g>
</g>
<g font-size="4" stroke="#000000" stroke-opacity="0.000" fill="#000000" id="img-7033e02f-3">
</g>
</svg>
