<?xml version="1.0" encoding="UTF-8"?>
<svg xmlns="http://www.w3.org/2000/svg"
     xmlns:xlink="http://www.w3.org/1999/xlink"
     version="1.2"
     width="203.2mm" height="203.2mm" viewBox="0 0 203.2 203.2"
     stroke="none"
     fill="#000000"
     stroke-width="0.3"
     font-size="3.88"
>
<g stroke-width="1" stroke="#BBBBBB" id="img-c667e71b-1">
  <g transform="translate(176.62,122.08)">
    <path fill="none" d="M-3.13,2.85 L 3.13 -2.85" class="primitive"/>
  </g>
  <g transform="translate(175.51,119.4)">
    <path fill="none" d="M-4.23,0.18 L 4.23 -0.18" class="primitive"/>
  </g>
  <g transform="translate(158.81,127.85)">
    <path fill="none" d="M-20.93,8.62 L 20.93 -8.62" class="primitive"/>
  </g>
  <g transform="translate(131.27,116.26)">
    <path fill="none" d="M2.83,3.14 L -2.83 -3.14" class="primitive"/>
  </g>
  <g transform="translate(128.59,117.35)">
    <path fill="none" d="M0.15,4.23 L -0.15 -4.23" class="primitive"/>
  </g>
  <g transform="translate(133.16,124.79)">
    <path fill="none" d="M4.72,11.67 L -4.72 -11.67" class="primitive"/>
  </g>
  <g transform="translate(147.54,130.92)">
    <path fill="none" d="M3.13,-2.85 L -3.13 2.85" class="primitive"/>
  </g>
  <g transform="translate(148.64,133.6)">
    <path fill="none" d="M4.23,-0.18 L -4.23 0.18" class="primitive"/>
  </g>
  <g transform="translate(165.34,125.16)">
    <path fill="none" d="M20.93,-8.62 L -20.93 8.62" class="primitive"/>
  </g>
  <g transform="translate(136.91,106.94)">
    <path fill="none" d="M4.16,-0.78 L -4.16 0.78" class="primitive"/>
  </g>
  <g transform="translate(136.44,109.8)">
    <path fill="none" d="M3.69,2.08 L -3.69 -2.08" class="primitive"/>
  </g>
  <g transform="translate(159.51,112.13)">
    <path fill="none" d="M26.76,4.41 L -26.76 -4.41" class="primitive"/>
  </g>
  <g transform="translate(132.4,126.78)">
    <path fill="none" d="M-2.83,-3.14 L 2.83 3.14" class="primitive"/>
  </g>
  <g transform="translate(135.09,125.69)">
    <path fill="none" d="M-0.15,-4.23 L 0.15 4.23" class="primitive"/>
  </g>
  <g transform="translate(130.51,118.25)">
    <path fill="none" d="M-4.72,-11.67 L 4.72 11.67" class="primitive"/>
  </g>
  <g transform="translate(175.14,116.18)">
    <path fill="none" d="M-4.16,0.78 L 4.16 -0.78" class="primitive"/>
  </g>
  <g transform="translate(175.62,113.32)">
    <path fill="none" d="M-3.69,-2.08 L 3.69 2.08" class="primitive"/>
  </g>
  <g transform="translate(152.55,110.99)">
    <path fill="none" d="M-26.76,-4.41 L 26.76 4.41" class="primitive"/>
  </g>
</g>
<g stroke="#BBBBBB" fill="#AAAAFF" id="img-c667e71b-2">
  <g transform="translate(101.6,136.46)">
    <circle cx="0" cy="0" r="7.06" class="primitive"/>
  </g>
  <g transform="translate(16.93,186.27)">
    <circle cx="0" cy="0" r="7.06" class="primitive"/>
  </g>
  <g transform="translate(77.41,16.93)">
    <circle cx="0" cy="0" r="7.06" class="primitive"/>
  </g>
  <g transform="translate(89.5,36.85)">
    <circle cx="0" cy="0" r="7.06" class="primitive"/>
  </g>
  <g transform="translate(137.89,136.46)">
    <circle cx="0" cy="0" r="7.06" class="primitive"/>
  </g>
  <g transform="translate(186.27,116.54)">
    <circle cx="0" cy="0" r="7.06" class="primitive"/>
  </g>
  <g transform="translate(77.41,16.93)">
    <circle cx="0" cy="0" r="7.06" class="primitive"/>
  </g>
  <g transform="translate(89.5,56.78)">
    <circle cx="0" cy="0" r="7.06" class="primitive"/>
  </g>
  <g transform="translate(125.79,106.58)">
    <circle cx="0" cy="0" r="7.06" class="primitive"/>
  </g>
</g>
<g font-size="4" stroke="#000000" stroke-opacity="0.000" fill="#000000" id="img-c667e71b-3">
</g>
</svg>
