<?xml version="1.0" encoding="UTF-8"?>
<svg xmlns="http://www.w3.org/2000/svg"
     xmlns:xlink="http://www.w3.org/1999/xlink"
     version="1.2"
     width="203.2mm" height="203.2mm" viewBox="0 0 203.2 203.2"
     stroke="none"
     fill="#000000"
     stroke-width="0.3"
     font-size="3.88"
>
<g stroke-width="1.34" stroke="#BBBBBB" id="img-0b85c795-1">
  <g transform="translate(48.83,62.7)">
    <path fill="none" d="M-4.76,-3.1 L 4.76 3.1" class="primitive"/>
  </g>
  <g transform="translate(51.94,60.37)">
    <path fill="none" d="M-1.65,-5.44 L 1.65 5.44" class="primitive"/>
  </g>
  <g transform="translate(35.26,41.37)">
    <path fill="none" d="M-18.33,-24.44 L 18.33 24.44" class="primitive"/>
  </g>
  <g transform="translate(52.25,116.64)">
    <path fill="none" d="M-3.69,-4.32 L 3.69 4.32" class="primitive"/>
  </g>
  <g transform="translate(55.89,115.28)">
    <path fill="none" d="M-0.06,-5.68 L 0.06 5.68" class="primitive"/>
  </g>
  <g transform="translate(36.44,68.95)">
    <path fill="none" d="M-19.5,-52.01 L 19.5 52.01" class="primitive"/>
  </g>
  <g transform="translate(27.37,27.61)">
    <path fill="none" d="M4.76,3.1 L -4.76 -3.1" class="primitive"/>
  </g>
  <g transform="translate(24.26,29.94)">
    <path fill="none" d="M1.65,5.44 L -1.65 -5.44" class="primitive"/>
  </g>
  <g transform="translate(40.94,48.94)">
    <path fill="none" d="M18.33,24.44 L -18.33 -24.44" class="primitive"/>
  </g>
  <g transform="translate(57.32,115.02)">
    <path fill="none" d="M-1.94,-5.34 L 1.94 5.34" class="primitive"/>
  </g>
  <g transform="translate(61.21,115.02)">
    <path fill="none" d="M1.94,-5.34 L -1.94 5.34" class="primitive"/>
  </g>
  <g transform="translate(59.27,96.87)">
    <path fill="none" d="M0,-23.49 L 0 23.49" class="primitive"/>
  </g>
  <g transform="translate(23.95,30.11)">
    <path fill="none" d="M3.69,4.32 L -3.69 -4.32" class="primitive"/>
  </g>
  <g transform="translate(20.31,31.48)">
    <path fill="none" d="M0.06,5.68 L -0.06 -5.68" class="primitive"/>
  </g>
  <g transform="translate(39.76,77.81)">
    <path fill="none" d="M19.5,52.01 L -19.5 -52.01" class="primitive"/>
  </g>
  <g transform="translate(61.21,88.18)">
    <path fill="none" d="M1.94,5.34 L -1.94 -5.34" class="primitive"/>
  </g>
  <g transform="translate(57.32,88.18)">
    <path fill="none" d="M-1.94,5.34 L 1.94 -5.34" class="primitive"/>
  </g>
  <g transform="translate(59.27,106.33)">
    <path fill="none" d="M0,23.49 L 0 -23.49" class="primitive"/>
  </g>
</g>
<g stroke="#BBBBBB" fill="#AAAAFF" id="img-0b85c795-2">
  <g transform="translate(186.27,186.27)">
    <circle cx="0" cy="0" r="9.47" class="primitive"/>
  </g>
  <g transform="translate(16.93,16.93)">
    <circle cx="0" cy="0" r="9.47" class="primitive"/>
  </g>
  <g transform="translate(59.27,16.93)">
    <circle cx="0" cy="0" r="9.47" class="primitive"/>
  </g>
  <g transform="translate(59.27,73.38)">
    <circle cx="0" cy="0" r="9.47" class="primitive"/>
  </g>
  <g transform="translate(59.27,129.82)">
    <circle cx="0" cy="0" r="9.47" class="primitive"/>
  </g>
</g>
<g font-size="4" stroke="#000000" stroke-opacity="0.000" fill="#000000" id="img-0b85c795-3">
</g>
</svg>
