<?xml version="1.0" encoding="UTF-8"?>
<svg xmlns="http://www.w3.org/2000/svg"
     xmlns:xlink="http://www.w3.org/1999/xlink"
     version="1.2"
     width="203.2mm" height="203.2mm" viewBox="0 0 203.2 203.2"
     stroke="none"
     fill="#000000"
     stroke-width="0.3"
     font-size="3.88"
>
<g stroke-width="0.55" stroke="#BBBBBB" id="img-e13a9c08-1">
  <g transform="translate(124.36,156.26)">
    <path fill="none" d="M1.69,1.58 L -1.69 -1.58" class="primitive"/>
  </g>
  <g transform="translate(122.94,156.98)">
    <path fill="none" d="M0.28,2.3 L -0.28 -2.3" class="primitive"/>
  </g>
  <g transform="translate(124.76,158.79)">
    <path fill="none" d="M2.09,4.12 L -2.09 -4.12" class="primitive"/>
  </g>
  <g transform="translate(99.98,166.91)">
    <path fill="none" d="M2.01,-1.16 L -2.01 1.16" class="primitive"/>
  </g>
  <g transform="translate(100.26,168.47)">
    <path fill="none" d="M2.28,0.4 L -2.28 -0.4" class="primitive"/>
  </g>
  <g transform="translate(112.41,165.49)">
    <path fill="none" d="M14.44,-2.58 L -14.44 2.58" class="primitive"/>
  </g>
  <g transform="translate(120.86,82.96)">
    <path fill="none" d="M-2.32,0.08 L 2.32 -0.08" class="primitive"/>
  </g>
  <g transform="translate(121.36,81.45)">
    <path fill="none" d="M-1.82,-1.43 L 1.82 1.43" class="primitive"/>
  </g>
  <g transform="translate(116.1,80.56)">
    <path fill="none" d="M-7.08,-2.32 L 7.08 2.32" class="primitive"/>
  </g>
  <g transform="translate(106.03,95.5)">
    <path fill="none" d="M-0.51,-2.26 L 0.51 2.26" class="primitive"/>
  </g>
  <g transform="translate(107.61,95.71)">
    <path fill="none" d="M1.06,-2.06 L -1.06 2.06" class="primitive"/>
  </g>
  <g transform="translate(107.79,88.01)">
    <path fill="none" d="M1.24,-9.76 L -1.24 9.76" class="primitive"/>
  </g>
  <g transform="translate(115.25,148.96)">
    <path fill="none" d="M-2.29,-0.38 L 2.29 0.38" class="primitive"/>
  </g>
  <g transform="translate(116.03,147.58)">
    <path fill="none" d="M-1.51,-1.76 L 1.51 1.76" class="primitive"/>
  </g>
  <g transform="translate(108.83,144.45)">
    <path fill="none" d="M-8.71,-4.89 L 8.71 4.89" class="primitive"/>
  </g>
  <g transform="translate(94.6,162.67)">
    <path fill="none" d="M-0.34,-2.29 L 0.34 2.29" class="primitive"/>
  </g>
  <g transform="translate(96.16,162.99)">
    <path fill="none" d="M1.21,-1.98 L -1.21 1.98" class="primitive"/>
  </g>
  <g transform="translate(97.53,152.26)">
    <path fill="none" d="M2.59,-12.7 L -2.59 12.7" class="primitive"/>
  </g>
  <g transform="translate(123.4,157.88)">
    <path fill="none" d="M-1.69,-1.58 L 1.69 1.58" class="primitive"/>
  </g>
  <g transform="translate(124.82,157.16)">
    <path fill="none" d="M-0.28,-2.3 L 0.28 2.3" class="primitive"/>
  </g>
  <g transform="translate(123,155.35)">
    <path fill="none" d="M-2.09,-4.12 L 2.09 4.12" class="primitive"/>
  </g>
  <g transform="translate(105.77,141.82)">
    <path fill="none" d="M2.29,0.38 L -2.29 -0.38" class="primitive"/>
  </g>
  <g transform="translate(105,143.2)">
    <path fill="none" d="M1.51,1.76 L -1.51 -1.76" class="primitive"/>
  </g>
  <g transform="translate(112.2,146.34)">
    <path fill="none" d="M8.71,4.89 L -8.71 -4.89" class="primitive"/>
  </g>
  <g transform="translate(115.02,79.37)">
    <path fill="none" d="M2.32,-0.08 L -2.32 0.08" class="primitive"/>
  </g>
  <g transform="translate(114.52,80.88)">
    <path fill="none" d="M1.82,1.43 L -1.82 -1.43" class="primitive"/>
  </g>
  <g transform="translate(119.78,81.76)">
    <path fill="none" d="M7.08,2.32 L -7.08 -2.32" class="primitive"/>
  </g>
  <g transform="translate(110.17,97.1)">
    <path fill="none" d="M1.16,-2.01 L -1.16 2.01" class="primitive"/>
  </g>
  <g transform="translate(111.19,98.31)">
    <path fill="none" d="M2.18,-0.8 L -2.18 0.8" class="primitive"/>
  </g>
  <g transform="translate(117.93,91.6)">
    <path fill="none" d="M8.92,-7.51 L -8.92 7.51" class="primitive"/>
  </g>
  <g transform="translate(121.04,164.75)">
    <path fill="none" d="M-2.01,1.16 L 2.01 -1.16" class="primitive"/>
  </g>
  <g transform="translate(120.76,163.19)">
    <path fill="none" d="M-2.28,-0.4 L 2.28 0.4" class="primitive"/>
  </g>
  <g transform="translate(108.61,166.17)">
    <path fill="none" d="M-14.44,2.58 L 14.44 -2.58" class="primitive"/>
  </g>
  <g transform="translate(99.69,145.63)">
    <path fill="none" d="M0.34,2.29 L -0.34 -2.29" class="primitive"/>
  </g>
  <g transform="translate(98.13,145.32)">
    <path fill="none" d="M-1.21,1.98 L 1.21 -1.98" class="primitive"/>
  </g>
  <g transform="translate(96.76,156.05)">
    <path fill="none" d="M-2.59,12.7 L 2.59 -12.7" class="primitive"/>
  </g>
  <g transform="translate(109.05,84.34)">
    <path fill="none" d="M0.51,2.26 L -0.51 -2.26" class="primitive"/>
  </g>
  <g transform="translate(107.48,84.14)">
    <path fill="none" d="M-1.06,2.06 L 1.06 -2.06" class="primitive"/>
  </g>
  <g transform="translate(107.3,91.84)">
    <path fill="none" d="M-1.24,9.76 L 1.24 -9.76" class="primitive"/>
  </g>
  <g transform="translate(122.74,88.58)">
    <path fill="none" d="M-1.16,2.01 L 1.16 -2.01" class="primitive"/>
  </g>
  <g transform="translate(121.72,87.37)">
    <path fill="none" d="M-2.18,0.8 L 2.18 -0.8" class="primitive"/>
  </g>
  <g transform="translate(114.98,94.09)">
    <path fill="none" d="M-8.92,7.51 L 8.92 -7.51" class="primitive"/>
  </g>
</g>
<g stroke="#BBBBBB" fill="#AAAAFF" id="img-e13a9c08-2">
  <g transform="translate(28.82,186.27)">
    <circle cx="0" cy="0" r="3.86" class="primitive"/>
  </g>
  <g transform="translate(186.27,168.75)">
    <circle cx="0" cy="0" r="3.86" class="primitive"/>
  </g>
  <g transform="translate(79.32,46.13)">
    <circle cx="0" cy="0" r="3.86" class="primitive"/>
  </g>
  <g transform="translate(112,28.61)">
    <circle cx="0" cy="0" r="3.86" class="primitive"/>
  </g>
  <g transform="translate(55.55,98.68)">
    <circle cx="0" cy="0" r="3.86" class="primitive"/>
  </g>
  <g transform="translate(70.41,154.15)">
    <circle cx="0" cy="0" r="3.86" class="primitive"/>
  </g>
  <g transform="translate(126.85,162.91)">
    <circle cx="0" cy="0" r="3.86" class="primitive"/>
  </g>
  <g transform="translate(19.9,66.57)">
    <circle cx="0" cy="0" r="3.86" class="primitive"/>
  </g>
  <g transform="translate(61.49,171.67)">
    <circle cx="0" cy="0" r="3.86" class="primitive"/>
  </g>
  <g transform="translate(22.87,63.65)">
    <circle cx="0" cy="0" r="3.86" class="primitive"/>
  </g>
  <g transform="translate(58.52,51.97)">
    <circle cx="0" cy="0" r="3.86" class="primitive"/>
  </g>
  <g transform="translate(67.44,16.93)">
    <circle cx="0" cy="0" r="3.86" class="primitive"/>
  </g>
  <g transform="translate(109.03,78.24)">
    <circle cx="0" cy="0" r="3.86" class="primitive"/>
  </g>
  <g transform="translate(165.47,43.21)">
    <circle cx="0" cy="0" r="3.86" class="primitive"/>
  </g>
  <g transform="translate(61.49,162.91)">
    <circle cx="0" cy="0" r="3.86" class="primitive"/>
  </g>
  <g transform="translate(100.11,139.55)">
    <circle cx="0" cy="0" r="3.86" class="primitive"/>
  </g>
  <g transform="translate(117.94,171.67)">
    <circle cx="0" cy="0" r="3.86" class="primitive"/>
  </g>
  <g transform="translate(120.91,151.23)">
    <circle cx="0" cy="0" r="3.86" class="primitive"/>
  </g>
  <g transform="translate(76.35,142.47)">
    <circle cx="0" cy="0" r="3.86" class="primitive"/>
  </g>
  <g transform="translate(183.3,110.36)">
    <circle cx="0" cy="0" r="3.86" class="primitive"/>
  </g>
  <g transform="translate(180.33,177.51)">
    <circle cx="0" cy="0" r="3.86" class="primitive"/>
  </g>
  <g transform="translate(19.9,22.77)">
    <circle cx="0" cy="0" r="3.86" class="primitive"/>
  </g>
  <g transform="translate(141.71,75.32)">
    <circle cx="0" cy="0" r="3.86" class="primitive"/>
  </g>
  <g transform="translate(138.73,66.57)">
    <circle cx="0" cy="0" r="3.86" class="primitive"/>
  </g>
  <g transform="translate(52.58,139.55)">
    <circle cx="0" cy="0" r="3.86" class="primitive"/>
  </g>
  <g transform="translate(16.93,60.73)">
    <circle cx="0" cy="0" r="3.86" class="primitive"/>
  </g>
  <g transform="translate(28.82,168.75)">
    <circle cx="0" cy="0" r="3.86" class="primitive"/>
  </g>
  <g transform="translate(126.85,84.08)">
    <circle cx="0" cy="0" r="3.86" class="primitive"/>
  </g>
  <g transform="translate(94.17,168.75)">
    <circle cx="0" cy="0" r="3.86" class="primitive"/>
  </g>
  <g transform="translate(106.06,101.6)">
    <circle cx="0" cy="0" r="3.86" class="primitive"/>
  </g>
</g>
<g font-size="4" stroke="#000000" stroke-opacity="0.000" fill="#000000" id="img-e13a9c08-3">
</g>
</svg>
