<?xml version="1.0" encoding="UTF-8"?>
<svg xmlns="http://www.w3.org/2000/svg"
     xmlns:xlink="http://www.w3.org/1999/xlink"
     version="1.2"
     width="203.2mm" height="203.2mm" viewBox="0 0 203.2 203.2"
     stroke="none"
     fill="#000000"
     stroke-width="0.3"
     font-size="3.88"
>
<g stroke-width="0.55" stroke="#BBBBBB" id="img-a0d50ffe-1">
  <g transform="translate(27.58,67.52)">
    <path fill="none" d="M2.07,1.05 L -2.07 -1.05" class="primitive"/>
  </g>
  <g transform="translate(26.42,68.61)">
    <path fill="none" d="M0.91,2.13 L -0.91 -2.13" class="primitive"/>
  </g>
  <g transform="translate(40.53,82.58)">
    <path fill="none" d="M15.02,16.1 L -15.02 -16.1" class="primitive"/>
  </g>
  <g transform="translate(58.93,58.05)">
    <path fill="none" d="M0.65,2.22 L -0.65 -2.22" class="primitive"/>
  </g>
  <g transform="translate(57.35,57.95)">
    <path fill="none" d="M-0.93,2.12 L 0.93 -2.12" class="primitive"/>
  </g>
  <g transform="translate(56.92,77.25)">
    <path fill="none" d="M-1.36,21.43 L 1.36 -21.43" class="primitive"/>
  </g>
  <g transform="translate(74.31,148.22)">
    <path fill="none" d="M-0.28,2.3 L 0.28 -2.3" class="primitive"/>
  </g>
  <g transform="translate(72.9,147.5)">
    <path fill="none" d="M-1.69,1.58 L 1.69 -1.58" class="primitive"/>
  </g>
  <g transform="translate(72.5,150.03)">
    <path fill="none" d="M-2.09,4.12 L 2.09 -4.12" class="primitive"/>
  </g>
  <g transform="translate(88.61,166.26)">
    <path fill="none" d="M-2.27,-0.46 L 2.27 0.46" class="primitive"/>
  </g>
  <g transform="translate(89.44,164.91)">
    <path fill="none" d="M-1.44,-1.82 L 1.44 1.82" class="primitive"/>
  </g>
  <g transform="translate(80.64,160.44)">
    <path fill="none" d="M-10.24,-6.29 L 10.24 6.29" class="primitive"/>
  </g>
  <g transform="translate(124.36,156.26)">
    <path fill="none" d="M1.69,1.58 L -1.69 -1.58" class="primitive"/>
  </g>
  <g transform="translate(122.94,156.98)">
    <path fill="none" d="M0.28,2.3 L -0.28 -2.3" class="primitive"/>
  </g>
  <g transform="translate(124.76,158.79)">
    <path fill="none" d="M2.09,4.12 L -2.09 -4.12" class="primitive"/>
  </g>
  <g transform="translate(99.98,166.91)">
    <path fill="none" d="M2.01,-1.16 L -2.01 1.16" class="primitive"/>
  </g>
  <g transform="translate(100.26,168.47)">
    <path fill="none" d="M2.28,0.4 L -2.28 -0.4" class="primitive"/>
  </g>
  <g transform="translate(112.41,165.49)">
    <path fill="none" d="M14.44,-2.58 L -14.44 2.58" class="primitive"/>
  </g>
  <g transform="translate(50.85,94.8)">
    <path fill="none" d="M-2.07,-1.05 L 2.07 1.05" class="primitive"/>
  </g>
  <g transform="translate(52.01,93.72)">
    <path fill="none" d="M-0.91,-2.13 L 0.91 2.13" class="primitive"/>
  </g>
  <g transform="translate(37.9,79.75)">
    <path fill="none" d="M-15.02,-16.1 L 15.02 16.1" class="primitive"/>
  </g>
  <g transform="translate(21.13,28.74)">
    <path fill="none" d="M0.95,2.12 L -0.95 -2.12" class="primitive"/>
  </g>
  <g transform="translate(19.55,28.86)">
    <path fill="none" d="M-0.63,2.23 L 0.63 -2.23" class="primitive"/>
  </g>
  <g transform="translate(21.53,45.14)">
    <path fill="none" d="M1.35,18.51 L -1.35 -18.51" class="primitive"/>
  </g>
  <g transform="translate(55.15,92.6)">
    <path fill="none" d="M-0.65,-2.22 L 0.65 2.22" class="primitive"/>
  </g>
  <g transform="translate(56.73,92.7)">
    <path fill="none" d="M0.93,-2.12 L -0.93 2.12" class="primitive"/>
  </g>
  <g transform="translate(57.16,73.4)">
    <path fill="none" d="M1.36,-21.43 L -1.36 21.43" class="primitive"/>
  </g>
  <g transform="translate(25.2,25.78)">
    <path fill="none" d="M2.22,0.68 L -2.22 -0.68" class="primitive"/>
  </g>
  <g transform="translate(24.25,27.05)">
    <path fill="none" d="M1.26,1.95 L -1.26 -1.95" class="primitive"/>
  </g>
  <g transform="translate(40.76,38.54)">
    <path fill="none" d="M17.77,13.43 L -17.77 -13.43" class="primitive"/>
  </g>
  <g transform="translate(120.86,82.96)">
    <path fill="none" d="M-2.32,0.08 L 2.32 -0.08" class="primitive"/>
  </g>
  <g transform="translate(121.36,81.45)">
    <path fill="none" d="M-1.82,-1.43 L 1.82 1.43" class="primitive"/>
  </g>
  <g transform="translate(116.1,80.56)">
    <path fill="none" d="M-7.08,-2.32 L 7.08 2.32" class="primitive"/>
  </g>
  <g transform="translate(106.03,95.5)">
    <path fill="none" d="M-0.51,-2.26 L 0.51 2.26" class="primitive"/>
  </g>
  <g transform="translate(107.61,95.71)">
    <path fill="none" d="M1.06,-2.06 L -1.06 2.06" class="primitive"/>
  </g>
  <g transform="translate(107.79,88.01)">
    <path fill="none" d="M1.24,-9.76 L -1.24 9.76" class="primitive"/>
  </g>
  <g transform="translate(115.25,148.96)">
    <path fill="none" d="M-2.29,-0.38 L 2.29 0.38" class="primitive"/>
  </g>
  <g transform="translate(116.03,147.58)">
    <path fill="none" d="M-1.51,-1.76 L 1.51 1.76" class="primitive"/>
  </g>
  <g transform="translate(108.83,144.45)">
    <path fill="none" d="M-8.71,-4.89 L 8.71 4.89" class="primitive"/>
  </g>
  <g transform="translate(82.25,140.95)">
    <path fill="none" d="M2.07,-1.05 L -2.07 1.05" class="primitive"/>
  </g>
  <g transform="translate(82.44,142.52)">
    <path fill="none" d="M2.26,0.52 L -2.26 -0.52" class="primitive"/>
  </g>
  <g transform="translate(90.15,140.78)">
    <path fill="none" d="M9.97,-1.22 L -9.97 1.22" class="primitive"/>
  </g>
  <g transform="translate(123.4,157.88)">
    <path fill="none" d="M-1.69,-1.58 L 1.69 1.58" class="primitive"/>
  </g>
  <g transform="translate(124.82,157.16)">
    <path fill="none" d="M-0.28,-2.3 L 0.28 2.3" class="primitive"/>
  </g>
  <g transform="translate(123,155.35)">
    <path fill="none" d="M-2.09,-4.12 L 2.09 4.12" class="primitive"/>
  </g>
  <g transform="translate(105.77,141.82)">
    <path fill="none" d="M2.29,0.38 L -2.29 -0.38" class="primitive"/>
  </g>
  <g transform="translate(105,143.2)">
    <path fill="none" d="M1.51,1.76 L -1.51 -1.76" class="primitive"/>
  </g>
  <g transform="translate(112.2,146.34)">
    <path fill="none" d="M8.71,4.89 L -8.71 -4.89" class="primitive"/>
  </g>
  <g transform="translate(72.44,148.41)">
    <path fill="none" d="M0.28,-2.3 L -0.28 2.3" class="primitive"/>
  </g>
  <g transform="translate(73.85,149.13)">
    <path fill="none" d="M1.69,-1.58 L -1.69 1.58" class="primitive"/>
  </g>
  <g transform="translate(74.25,146.59)">
    <path fill="none" d="M2.09,-4.12 L -2.09 4.12" class="primitive"/>
  </g>
  <g transform="translate(94.21,141.08)">
    <path fill="none" d="M-2.07,1.05 L 2.07 -1.05" class="primitive"/>
  </g>
  <g transform="translate(94.02,139.5)">
    <path fill="none" d="M-2.26,-0.52 L 2.26 0.52" class="primitive"/>
  </g>
  <g transform="translate(86.31,141.25)">
    <path fill="none" d="M-9.97,1.22 L 9.97 -1.22" class="primitive"/>
  </g>
  <g transform="translate(21.65,57.68)">
    <path fill="none" d="M-0.95,-2.12 L 0.95 2.12" class="primitive"/>
  </g>
  <g transform="translate(23.23,57.56)">
    <path fill="none" d="M0.63,-2.23 L -0.63 2.23" class="primitive"/>
  </g>
  <g transform="translate(21.25,41.28)">
    <path fill="none" d="M-1.35,-18.51 L 1.35 18.51" class="primitive"/>
  </g>
  <g transform="translate(53.22,48.96)">
    <path fill="none" d="M-2.22,-0.68 L 2.22 0.68" class="primitive"/>
  </g>
  <g transform="translate(54.18,47.69)">
    <path fill="none" d="M-1.26,-1.95 L 1.26 1.95" class="primitive"/>
  </g>
  <g transform="translate(37.67,36.2)">
    <path fill="none" d="M-17.77,-13.43 L 17.77 13.43" class="primitive"/>
  </g>
  <g transform="translate(115.02,79.37)">
    <path fill="none" d="M2.32,-0.08 L -2.32 0.08" class="primitive"/>
  </g>
  <g transform="translate(114.52,80.88)">
    <path fill="none" d="M1.82,1.43 L -1.82 -1.43" class="primitive"/>
  </g>
  <g transform="translate(119.78,81.76)">
    <path fill="none" d="M7.08,2.32 L -7.08 -2.32" class="primitive"/>
  </g>
  <g transform="translate(110.17,97.1)">
    <path fill="none" d="M1.16,-2.01 L -1.16 2.01" class="primitive"/>
  </g>
  <g transform="translate(111.19,98.31)">
    <path fill="none" d="M2.18,-0.8 L -2.18 0.8" class="primitive"/>
  </g>
  <g transform="translate(117.93,91.6)">
    <path fill="none" d="M8.92,-7.51 L -8.92 7.51" class="primitive"/>
  </g>
  <g transform="translate(75.97,156.64)">
    <path fill="none" d="M2.27,0.46 L -2.27 -0.46" class="primitive"/>
  </g>
  <g transform="translate(75.14,157.99)">
    <path fill="none" d="M1.44,1.82 L -1.44 -1.82" class="primitive"/>
  </g>
  <g transform="translate(83.94,162.46)">
    <path fill="none" d="M10.24,6.29 L -10.24 -6.29" class="primitive"/>
  </g>
  <g transform="translate(121.04,164.75)">
    <path fill="none" d="M-2.01,1.16 L 2.01 -1.16" class="primitive"/>
  </g>
  <g transform="translate(120.76,163.19)">
    <path fill="none" d="M-2.28,-0.4 L 2.28 0.4" class="primitive"/>
  </g>
  <g transform="translate(108.61,166.17)">
    <path fill="none" d="M-14.44,2.58 L 14.44 -2.58" class="primitive"/>
  </g>
  <g transform="translate(109.05,84.34)">
    <path fill="none" d="M0.51,2.26 L -0.51 -2.26" class="primitive"/>
  </g>
  <g transform="translate(107.48,84.14)">
    <path fill="none" d="M-1.06,2.06 L 1.06 -2.06" class="primitive"/>
  </g>
  <g transform="translate(107.3,91.84)">
    <path fill="none" d="M-1.24,9.76 L 1.24 -9.76" class="primitive"/>
  </g>
  <g transform="translate(122.74,88.58)">
    <path fill="none" d="M-1.16,2.01 L 1.16 -2.01" class="primitive"/>
  </g>
  <g transform="translate(121.72,87.37)">
    <path fill="none" d="M-2.18,0.8 L 2.18 -0.8" class="primitive"/>
  </g>
  <g transform="translate(114.98,94.09)">
    <path fill="none" d="M-8.92,7.51 L 8.92 -7.51" class="primitive"/>
  </g>
</g>
<g stroke="#BBBBBB" fill="#AAAAFF" id="img-a0d50ffe-2">
  <g transform="translate(28.82,186.27)">
    <circle cx="0" cy="0" r="3.86" class="primitive"/>
  </g>
  <g transform="translate(186.27,168.75)">
    <circle cx="0" cy="0" r="3.86" class="primitive"/>
  </g>
  <g transform="translate(79.32,46.13)">
    <circle cx="0" cy="0" r="3.86" class="primitive"/>
  </g>
  <g transform="translate(112,28.61)">
    <circle cx="0" cy="0" r="3.86" class="primitive"/>
  </g>
  <g transform="translate(55.55,98.68)">
    <circle cx="0" cy="0" r="3.86" class="primitive"/>
  </g>
  <g transform="translate(70.41,154.15)">
    <circle cx="0" cy="0" r="3.86" class="primitive"/>
  </g>
  <g transform="translate(126.85,162.91)">
    <circle cx="0" cy="0" r="3.86" class="primitive"/>
  </g>
  <g transform="translate(19.9,66.57)">
    <circle cx="0" cy="0" r="3.86" class="primitive"/>
  </g>
  <g transform="translate(61.49,171.67)">
    <circle cx="0" cy="0" r="3.86" class="primitive"/>
  </g>
  <g transform="translate(22.87,63.65)">
    <circle cx="0" cy="0" r="3.86" class="primitive"/>
  </g>
  <g transform="translate(58.52,51.97)">
    <circle cx="0" cy="0" r="3.86" class="primitive"/>
  </g>
  <g transform="translate(67.44,16.93)">
    <circle cx="0" cy="0" r="3.86" class="primitive"/>
  </g>
  <g transform="translate(109.03,78.24)">
    <circle cx="0" cy="0" r="3.86" class="primitive"/>
  </g>
  <g transform="translate(165.47,43.21)">
    <circle cx="0" cy="0" r="3.86" class="primitive"/>
  </g>
  <g transform="translate(61.49,162.91)">
    <circle cx="0" cy="0" r="3.86" class="primitive"/>
  </g>
  <g transform="translate(100.11,139.55)">
    <circle cx="0" cy="0" r="3.86" class="primitive"/>
  </g>
  <g transform="translate(117.94,171.67)">
    <circle cx="0" cy="0" r="3.86" class="primitive"/>
  </g>
  <g transform="translate(120.91,151.23)">
    <circle cx="0" cy="0" r="3.86" class="primitive"/>
  </g>
  <g transform="translate(76.35,142.47)">
    <circle cx="0" cy="0" r="3.86" class="primitive"/>
  </g>
  <g transform="translate(183.3,110.36)">
    <circle cx="0" cy="0" r="3.86" class="primitive"/>
  </g>
  <g transform="translate(180.33,177.51)">
    <circle cx="0" cy="0" r="3.86" class="primitive"/>
  </g>
  <g transform="translate(19.9,22.77)">
    <circle cx="0" cy="0" r="3.86" class="primitive"/>
  </g>
  <g transform="translate(141.71,75.32)">
    <circle cx="0" cy="0" r="3.86" class="primitive"/>
  </g>
  <g transform="translate(138.73,66.57)">
    <circle cx="0" cy="0" r="3.86" class="primitive"/>
  </g>
  <g transform="translate(52.58,139.55)">
    <circle cx="0" cy="0" r="3.86" class="primitive"/>
  </g>
  <g transform="translate(16.93,60.73)">
    <circle cx="0" cy="0" r="3.86" class="primitive"/>
  </g>
  <g transform="translate(28.82,168.75)">
    <circle cx="0" cy="0" r="3.86" class="primitive"/>
  </g>
  <g transform="translate(126.85,84.08)">
    <circle cx="0" cy="0" r="3.86" class="primitive"/>
  </g>
  <g transform="translate(94.17,168.75)">
    <circle cx="0" cy="0" r="3.86" class="primitive"/>
  </g>
  <g transform="translate(106.06,101.6)">
    <circle cx="0" cy="0" r="3.86" class="primitive"/>
  </g>
</g>
<g font-size="4" stroke="#000000" stroke-opacity="0.000" fill="#000000" id="img-a0d50ffe-3">
</g>
</svg>
