<?xml version="1.0" encoding="UTF-8"?>
<svg xmlns="http://www.w3.org/2000/svg"
     xmlns:xlink="http://www.w3.org/1999/xlink"
     version="1.2"
     width="203.2mm" height="203.2mm" viewBox="0 0 203.2 203.2"
     stroke="none"
     fill="#000000"
     stroke-width="0.3"
     font-size="3.88"
>
<g stroke-width="1.34" stroke="#BBBBBB" id="img-5142c2c9-1">
  <g transform="translate(31.74,14.99)">
    <path fill="none" d="M5.34,-1.94 L -5.34 1.94" class="primitive"/>
  </g>
  <g transform="translate(31.74,18.88)">
    <path fill="none" d="M5.34,1.94 L -5.34 -1.94" class="primitive"/>
  </g>
  <g transform="translate(72.47,16.93)">
    <path fill="none" d="M46.07,-0 L -46.07 0" class="primitive"/>
  </g>
  <g transform="translate(178.97,173.24)">
    <path fill="none" d="M-3.79,-4.23 L 3.79 4.23" class="primitive"/>
  </g>
  <g transform="translate(182.57,171.8)">
    <path fill="none" d="M-0.18,-5.68 L 0.18 5.68" class="primitive"/>
  </g>
  <g transform="translate(150.64,97.21)">
    <path fill="none" d="M-32.11,-80.27 L 32.11 80.27" class="primitive"/>
  </g>
  <g transform="translate(21.74,31.07)">
    <path fill="none" d="M2.95,4.85 L -2.95 -4.85" class="primitive"/>
  </g>
  <g transform="translate(17.93,31.83)">
    <path fill="none" d="M-0.86,5.61 L 0.86 -5.61" class="primitive"/>
  </g>
  <g transform="translate(34.79,106.24)">
    <path fill="none" d="M16.01,80.03 L -16.01 -80.03" class="primitive"/>
  </g>
  <g transform="translate(171.46,188.21)">
    <path fill="none" d="M-5.34,1.94 L 5.34 -1.94" class="primitive"/>
  </g>
  <g transform="translate(171.46,184.32)">
    <path fill="none" d="M-5.34,-1.94 L 5.34 1.94" class="primitive"/>
  </g>
  <g transform="translate(113.8,186.27)">
    <path fill="none" d="M-63,0 L 63 0" class="primitive"/>
  </g>
  <g transform="translate(103.73,18.88)">
    <path fill="none" d="M-5.34,1.94 L 5.34 -1.94" class="primitive"/>
  </g>
  <g transform="translate(103.73,14.99)">
    <path fill="none" d="M-5.34,-1.94 L 5.34 1.94" class="primitive"/>
  </g>
  <g transform="translate(63,16.93)">
    <path fill="none" d="M-46.07,0 L 46.07 0" class="primitive"/>
  </g>
  <g transform="translate(45.99,172.13)">
    <path fill="none" d="M-2.95,-4.85 L 2.95 4.85" class="primitive"/>
  </g>
  <g transform="translate(49.8,171.37)">
    <path fill="none" d="M0.86,-5.61 L -0.86 5.61" class="primitive"/>
  </g>
  <g transform="translate(32.94,96.96)">
    <path fill="none" d="M-16.01,-80.03 L 16.01 80.03" class="primitive"/>
  </g>
  <g transform="translate(125.83,29.96)">
    <path fill="none" d="M3.79,4.23 L -3.79 -4.23" class="primitive"/>
  </g>
  <g transform="translate(122.23,31.4)">
    <path fill="none" d="M0.18,5.68 L -0.18 -5.68" class="primitive"/>
  </g>
  <g transform="translate(154.16,105.99)">
    <path fill="none" d="M32.11,80.27 L -32.11 -80.27" class="primitive"/>
  </g>
  <g transform="translate(65.6,184.32)">
    <path fill="none" d="M5.34,-1.94 L -5.34 1.94" class="primitive"/>
  </g>
  <g transform="translate(65.6,188.21)">
    <path fill="none" d="M5.34,1.94 L -5.34 -1.94" class="primitive"/>
  </g>
  <g transform="translate(123.27,186.27)">
    <path fill="none" d="M63,0 L -63 0" class="primitive"/>
  </g>
</g>
<g stroke="#BBBBBB" fill="#AAAAFF" id="img-5142c2c9-2">
  <g transform="translate(118.53,16.93)">
    <circle cx="0" cy="0" r="9.47" class="primitive"/>
  </g>
  <g transform="translate(16.93,152.4)">
    <circle cx="0" cy="0" r="9.47" class="primitive"/>
  </g>
  <g transform="translate(50.8,186.27)">
    <circle cx="0" cy="0" r="9.47" class="primitive"/>
  </g>
  <g transform="translate(16.93,16.93)">
    <circle cx="0" cy="0" r="9.47" class="primitive"/>
  </g>
  <g transform="translate(186.27,186.27)">
    <circle cx="0" cy="0" r="9.47" class="primitive"/>
  </g>
</g>
<g font-size="4" stroke="#000000" stroke-opacity="0.000" fill="#000000" id="img-5142c2c9-3">
</g>
</svg>
