<?xml version="1.0" encoding="UTF-8"?>
<svg xmlns="http://www.w3.org/2000/svg"
     xmlns:xlink="http://www.w3.org/1999/xlink"
     version="1.2"
     width="203.2mm" height="203.2mm" viewBox="0 0 203.2 203.2"
     stroke="none"
     fill="#000000"
     stroke-width="0.3"
     font-size="3.88"
>
<g stroke-width="0.55" stroke="#BBBBBB" id="img-73454b82-1">
  <g transform="translate(95.04,142.93)">
    <path fill="none" d="M-1.61,1.67 L 1.61 -1.67" class="primitive"/>
  </g>
  <g transform="translate(94.34,141.51)">
    <path fill="none" d="M-2.31,0.25 L 2.31 -0.25" class="primitive"/>
  </g>
  <g transform="translate(83.53,147.71)">
    <path fill="none" d="M-13.12,6.45 L 13.12 -6.45" class="primitive"/>
  </g>
  <g transform="translate(88.61,166.26)">
    <path fill="none" d="M-2.27,-0.46 L 2.27 0.46" class="primitive"/>
  </g>
  <g transform="translate(89.44,164.91)">
    <path fill="none" d="M-1.44,-1.82 L 1.44 1.82" class="primitive"/>
  </g>
  <g transform="translate(80.64,160.44)">
    <path fill="none" d="M-10.24,-6.29 L 10.24 6.29" class="primitive"/>
  </g>
  <g transform="translate(124.36,156.26)">
    <path fill="none" d="M1.69,1.58 L -1.69 -1.58" class="primitive"/>
  </g>
  <g transform="translate(122.94,156.98)">
    <path fill="none" d="M0.28,2.3 L -0.28 -2.3" class="primitive"/>
  </g>
  <g transform="translate(124.76,158.79)">
    <path fill="none" d="M2.09,4.12 L -2.09 -4.12" class="primitive"/>
  </g>
  <g transform="translate(99.98,166.91)">
    <path fill="none" d="M2.01,-1.16 L -2.01 1.16" class="primitive"/>
  </g>
  <g transform="translate(100.26,168.47)">
    <path fill="none" d="M2.28,0.4 L -2.28 -0.4" class="primitive"/>
  </g>
  <g transform="translate(112.41,165.49)">
    <path fill="none" d="M14.44,-2.58 L -14.44 2.58" class="primitive"/>
  </g>
  <g transform="translate(75.48,150.77)">
    <path fill="none" d="M1.61,-1.67 L -1.61 1.67" class="primitive"/>
  </g>
  <g transform="translate(76.18,152.2)">
    <path fill="none" d="M2.31,-0.25 L -2.31 0.25" class="primitive"/>
  </g>
  <g transform="translate(87,146)">
    <path fill="none" d="M13.12,-6.45 L -13.12 6.45" class="primitive"/>
  </g>
  <g transform="translate(105.9,107.69)">
    <path fill="none" d="M0.45,2.28 L -0.45 -2.28" class="primitive"/>
  </g>
  <g transform="translate(104.34,107.45)">
    <path fill="none" d="M-1.12,2.03 L 1.12 -2.03" class="primitive"/>
  </g>
  <g transform="translate(102.79,122.49)">
    <path fill="none" d="M-2.67,17.07 L 2.67 -17.07" class="primitive"/>
  </g>
  <g transform="translate(123.4,157.88)">
    <path fill="none" d="M-1.69,-1.58 L 1.69 1.58" class="primitive"/>
  </g>
  <g transform="translate(124.82,157.16)">
    <path fill="none" d="M-0.28,-2.3 L 0.28 2.3" class="primitive"/>
  </g>
  <g transform="translate(123,155.35)">
    <path fill="none" d="M-2.09,-4.12 L 2.09 4.12" class="primitive"/>
  </g>
  <g transform="translate(127.11,90.17)">
    <path fill="none" d="M0.6,2.24 L -0.6 -2.24" class="primitive"/>
  </g>
  <g transform="translate(125.53,90.03)">
    <path fill="none" d="M-0.98,2.1 L 0.98 -2.1" class="primitive"/>
  </g>
  <g transform="translate(123.71,119.58)">
    <path fill="none" d="M-2.8,31.65 L 2.8 -31.65" class="primitive"/>
  </g>
  <g transform="translate(120.65,145.14)">
    <path fill="none" d="M-0.6,-2.24 L 0.6 2.24" class="primitive"/>
  </g>
  <g transform="translate(122.23,145.28)">
    <path fill="none" d="M0.98,-2.1 L -0.98 2.1" class="primitive"/>
  </g>
  <g transform="translate(124.05,115.73)">
    <path fill="none" d="M2.8,-31.65 L -2.8 31.65" class="primitive"/>
  </g>
  <g transform="translate(110.17,97.1)">
    <path fill="none" d="M1.16,-2.01 L -1.16 2.01" class="primitive"/>
  </g>
  <g transform="translate(111.19,98.31)">
    <path fill="none" d="M2.18,-0.8 L -2.18 0.8" class="primitive"/>
  </g>
  <g transform="translate(117.93,91.6)">
    <path fill="none" d="M8.92,-7.51 L -8.92 7.51" class="primitive"/>
  </g>
  <g transform="translate(75.97,156.64)">
    <path fill="none" d="M2.27,0.46 L -2.27 -0.46" class="primitive"/>
  </g>
  <g transform="translate(75.14,157.99)">
    <path fill="none" d="M1.44,1.82 L -1.44 -1.82" class="primitive"/>
  </g>
  <g transform="translate(83.94,162.46)">
    <path fill="none" d="M10.24,6.29 L -10.24 -6.29" class="primitive"/>
  </g>
  <g transform="translate(121.04,164.75)">
    <path fill="none" d="M-2.01,1.16 L 2.01 -1.16" class="primitive"/>
  </g>
  <g transform="translate(120.76,163.19)">
    <path fill="none" d="M-2.28,-0.4 L 2.28 0.4" class="primitive"/>
  </g>
  <g transform="translate(108.61,166.17)">
    <path fill="none" d="M-14.44,2.58 L 14.44 -2.58" class="primitive"/>
  </g>
  <g transform="translate(100.27,133.46)">
    <path fill="none" d="M-0.45,-2.28 L 0.45 2.28" class="primitive"/>
  </g>
  <g transform="translate(101.83,133.71)">
    <path fill="none" d="M1.12,-2.03 L -1.12 2.03" class="primitive"/>
  </g>
  <g transform="translate(103.38,118.67)">
    <path fill="none" d="M2.67,-17.07 L -2.67 17.07" class="primitive"/>
  </g>
  <g transform="translate(122.74,88.58)">
    <path fill="none" d="M-1.16,2.01 L 1.16 -2.01" class="primitive"/>
  </g>
  <g transform="translate(121.72,87.37)">
    <path fill="none" d="M-2.18,0.8 L 2.18 -0.8" class="primitive"/>
  </g>
  <g transform="translate(114.98,94.09)">
    <path fill="none" d="M-8.92,7.51 L 8.92 -7.51" class="primitive"/>
  </g>
</g>
<g stroke="#BBBBBB" fill="#AAAAFF" id="img-73454b82-2">
  <g transform="translate(28.82,186.27)">
    <circle cx="0" cy="0" r="3.86" class="primitive"/>
  </g>
  <g transform="translate(186.27,168.75)">
    <circle cx="0" cy="0" r="3.86" class="primitive"/>
  </g>
  <g transform="translate(79.32,46.13)">
    <circle cx="0" cy="0" r="3.86" class="primitive"/>
  </g>
  <g transform="translate(112,28.61)">
    <circle cx="0" cy="0" r="3.86" class="primitive"/>
  </g>
  <g transform="translate(55.55,98.68)">
    <circle cx="0" cy="0" r="3.86" class="primitive"/>
  </g>
  <g transform="translate(70.41,154.15)">
    <circle cx="0" cy="0" r="3.86" class="primitive"/>
  </g>
  <g transform="translate(126.85,162.91)">
    <circle cx="0" cy="0" r="3.86" class="primitive"/>
  </g>
  <g transform="translate(19.9,66.57)">
    <circle cx="0" cy="0" r="3.86" class="primitive"/>
  </g>
  <g transform="translate(61.49,171.67)">
    <circle cx="0" cy="0" r="3.86" class="primitive"/>
  </g>
  <g transform="translate(22.87,63.65)">
    <circle cx="0" cy="0" r="3.86" class="primitive"/>
  </g>
  <g transform="translate(58.52,51.97)">
    <circle cx="0" cy="0" r="3.86" class="primitive"/>
  </g>
  <g transform="translate(67.44,16.93)">
    <circle cx="0" cy="0" r="3.86" class="primitive"/>
  </g>
  <g transform="translate(109.03,78.24)">
    <circle cx="0" cy="0" r="3.86" class="primitive"/>
  </g>
  <g transform="translate(165.47,43.21)">
    <circle cx="0" cy="0" r="3.86" class="primitive"/>
  </g>
  <g transform="translate(61.49,162.91)">
    <circle cx="0" cy="0" r="3.86" class="primitive"/>
  </g>
  <g transform="translate(100.11,139.55)">
    <circle cx="0" cy="0" r="3.86" class="primitive"/>
  </g>
  <g transform="translate(117.94,171.67)">
    <circle cx="0" cy="0" r="3.86" class="primitive"/>
  </g>
  <g transform="translate(120.91,151.23)">
    <circle cx="0" cy="0" r="3.86" class="primitive"/>
  </g>
  <g transform="translate(76.35,142.47)">
    <circle cx="0" cy="0" r="3.86" class="primitive"/>
  </g>
  <g transform="translate(183.3,110.36)">
    <circle cx="0" cy="0" r="3.86" class="primitive"/>
  </g>
  <g transform="translate(180.33,177.51)">
    <circle cx="0" cy="0" r="3.86" class="primitive"/>
  </g>
  <g transform="translate(19.9,22.77)">
    <circle cx="0" cy="0" r="3.86" class="primitive"/>
  </g>
  <g transform="translate(141.71,75.32)">
    <circle cx="0" cy="0" r="3.86" class="primitive"/>
  </g>
  <g transform="translate(138.73,66.57)">
    <circle cx="0" cy="0" r="3.86" class="primitive"/>
  </g>
  <g transform="translate(52.58,139.55)">
    <circle cx="0" cy="0" r="3.86" class="primitive"/>
  </g>
  <g transform="translate(16.93,60.73)">
    <circle cx="0" cy="0" r="3.86" class="primitive"/>
  </g>
  <g transform="translate(28.82,168.75)">
    <circle cx="0" cy="0" r="3.86" class="primitive"/>
  </g>
  <g transform="translate(126.85,84.08)">
    <circle cx="0" cy="0" r="3.86" class="primitive"/>
  </g>
  <g transform="translate(94.17,168.75)">
    <circle cx="0" cy="0" r="3.86" class="primitive"/>
  </g>
  <g transform="translate(106.06,101.6)">
    <circle cx="0" cy="0" r="3.86" class="primitive"/>
  </g>
</g>
<g font-size="4" stroke="#000000" stroke-opacity="0.000" fill="#000000" id="img-73454b82-3">
</g>
</svg>
