<?xml version="1.0" encoding="UTF-8"?>
<svg xmlns="http://www.w3.org/2000/svg"
     xmlns:xlink="http://www.w3.org/1999/xlink"
     version="1.2"
     width="203.2mm" height="203.2mm" viewBox="0 0 203.2 203.2"
     stroke="none"
     fill="#000000"
     stroke-width="0.3"
     font-size="3.88"
>
<g stroke-width="0.6" stroke="#BBBBBB" id="img-a57bb0b5-1">
  <g transform="translate(62.52,170)">
    <path fill="none" d="M-2.06,-1.48 L 2.06 1.48" class="primitive"/>
  </g>
  <g transform="translate(63.95,169.02)">
    <path fill="none" d="M-0.63,-2.46 L 0.63 2.46" class="primitive"/>
  </g>
  <g transform="translate(58.07,161.94)">
    <path fill="none" d="M-6.5,-9.54 L 6.5 9.54" class="primitive"/>
  </g>
  <g transform="translate(21.06,181.02)">
    <path fill="none" d="M1.1,-2.29 L -1.1 2.29" class="primitive"/>
  </g>
  <g transform="translate(22.27,182.26)">
    <path fill="none" d="M2.31,-1.05 L -2.31 1.05" class="primitive"/>
  </g>
  <g transform="translate(35.76,167.85)">
    <path fill="none" d="M15.8,-15.45 L -15.8 15.45" class="primitive"/>
  </g>
  <g transform="translate(179.83,71.39)">
    <path fill="none" d="M-2.24,1.19 L 2.24 -1.19" class="primitive"/>
  </g>
  <g transform="translate(179.59,69.67)">
    <path fill="none" d="M-2.48,-0.53 L 2.48 0.53" class="primitive"/>
  </g>
  <g transform="translate(170.7,71.79)">
    <path fill="none" d="M-11.37,1.59 L 11.37 -1.59" class="primitive"/>
  </g>
  <g transform="translate(167.53,64.11)">
    <path fill="none" d="M-0.76,2.42 L 0.76 -2.42" class="primitive"/>
  </g>
  <g transform="translate(166.15,63.05)">
    <path fill="none" d="M-2.14,1.37 L 2.14 -1.37" class="primitive"/>
  </g>
  <g transform="translate(163.81,67.53)">
    <path fill="none" d="M-4.48,5.85 L 4.48 -5.85" class="primitive"/>
  </g>
  <g transform="translate(56.02,157.38)">
    <path fill="none" d="M2.06,1.48 L -2.06 -1.48" class="primitive"/>
  </g>
  <g transform="translate(54.58,158.36)">
    <path fill="none" d="M0.63,2.46 L -0.63 -2.46" class="primitive"/>
  </g>
  <g transform="translate(60.46,165.44)">
    <path fill="none" d="M6.5,9.54 L -6.5 -9.54" class="primitive"/>
  </g>
  <g transform="translate(23.2,183.96)">
    <path fill="none" d="M2.14,-1.37 L -2.14 1.37" class="primitive"/>
  </g>
  <g transform="translate(23.58,185.66)">
    <path fill="none" d="M2.52,0.32 L -2.52 -0.32" class="primitive"/>
  </g>
  <g transform="translate(44.01,180.16)">
    <path fill="none" d="M22.95,-5.18 L -22.95 5.18" class="primitive"/>
  </g>
  <g transform="translate(176.67,126.43)">
    <path fill="none" d="M-2.42,-0.79 L 2.42 0.79" class="primitive"/>
  </g>
  <g transform="translate(177.74,125.06)">
    <path fill="none" d="M-1.34,-2.15 L 1.34 2.15" class="primitive"/>
  </g>
  <g transform="translate(171.13,120.99)">
    <path fill="none" d="M-7.95,-6.22 L 7.95 6.22" class="primitive"/>
  </g>
  <g transform="translate(142.81,146.3)">
    <path fill="none" d="M0.51,-2.49 L -0.51 2.49" class="primitive"/>
  </g>
  <g transform="translate(144.29,147.21)">
    <path fill="none" d="M1.99,-1.58 L -1.99 1.58" class="primitive"/>
  </g>
  <g transform="translate(152.74,131.78)">
    <path fill="none" d="M10.44,-17.01 L -10.44 17.01" class="primitive"/>
  </g>
  <g transform="translate(183.29,136.44)">
    <path fill="none" d="M0.87,2.39 L -0.87 -2.39" class="primitive"/>
  </g>
  <g transform="translate(181.55,136.44)">
    <path fill="none" d="M-0.87,2.39 L 0.87 -2.39" class="primitive"/>
  </g>
  <g transform="translate(182.42,139.46)">
    <path fill="none" d="M0,5.41 L 0 -5.41" class="primitive"/>
  </g>
  <g transform="translate(146.45,150.39)">
    <path fill="none" d="M2.2,-1.27 L -2.2 1.27" class="primitive"/>
  </g>
  <g transform="translate(146.75,152.1)">
    <path fill="none" d="M2.5,0.44 L -2.5 -0.44" class="primitive"/>
  </g>
  <g transform="translate(163.34,148.27)">
    <path fill="none" d="M19.08,-3.39 L -19.08 3.39" class="primitive"/>
  </g>
  <g transform="translate(165.76,71.6)">
    <path fill="none" d="M2.24,-1.19 L -2.24 1.19" class="primitive"/>
  </g>
  <g transform="translate(166,73.32)">
    <path fill="none" d="M2.48,0.53 L -2.48 -0.53" class="primitive"/>
  </g>
  <g transform="translate(174.89,71.2)">
    <path fill="none" d="M11.37,-1.59 L -11.37 1.59" class="primitive"/>
  </g>
  <g transform="translate(176.72,61.54)">
    <path fill="none" d="M2.44,0.71 L -2.44 -0.71" class="primitive"/>
  </g>
  <g transform="translate(175.7,62.94)">
    <path fill="none" d="M1.41,2.11 L -1.41 -2.11" class="primitive"/>
  </g>
  <g transform="translate(180.28,65.22)">
    <path fill="none" d="M5.99,4.39 L -5.99 -4.39" class="primitive"/>
  </g>
  <g transform="translate(168.93,118.16)">
    <path fill="none" d="M2.42,0.79 L -2.42 -0.79" class="primitive"/>
  </g>
  <g transform="translate(167.85,119.53)">
    <path fill="none" d="M1.34,2.15 L -1.34 -2.15" class="primitive"/>
  </g>
  <g transform="translate(174.46,123.6)">
    <path fill="none" d="M7.95,6.22 L -7.95 -6.22" class="primitive"/>
  </g>
  <g transform="translate(181.55,138.25)">
    <path fill="none" d="M-0.87,-2.39 L 0.87 2.39" class="primitive"/>
  </g>
  <g transform="translate(183.29,138.25)">
    <path fill="none" d="M0.87,-2.39 L -0.87 2.39" class="primitive"/>
  </g>
  <g transform="translate(182.42,135.23)">
    <path fill="none" d="M0,-5.41 L 0 5.41" class="primitive"/>
  </g>
  <g transform="translate(105.7,119.39)">
    <path fill="none" d="M-0.46,-2.5 L 0.46 2.5" class="primitive"/>
  </g>
  <g transform="translate(107.42,119.68)">
    <path fill="none" d="M1.26,-2.21 L -1.26 2.21" class="primitive"/>
  </g>
  <g transform="translate(109.65,101.39)">
    <path fill="none" d="M3.49,-20.49 L -3.49 20.49" class="primitive"/>
  </g>
  <g transform="translate(99.17,88.09)">
    <path fill="none" d="M1.62,-1.96 L -1.62 1.96" class="primitive"/>
  </g>
  <g transform="translate(100.05,89.59)">
    <path fill="none" d="M2.5,-0.46 L -2.5 0.46" class="primitive"/>
  </g>
  <g transform="translate(105.35,85.48)">
    <path fill="none" d="M7.8,-4.57 L -7.8 4.57" class="primitive"/>
  </g>
  <g transform="translate(47.44,157.65)">
    <path fill="none" d="M-1.1,2.29 L 1.1 -2.29" class="primitive"/>
  </g>
  <g transform="translate(46.23,156.41)">
    <path fill="none" d="M-2.31,1.05 L 2.31 -1.05" class="primitive"/>
  </g>
  <g transform="translate(32.74,170.81)">
    <path fill="none" d="M-15.8,15.45 L 15.8 -15.45" class="primitive"/>
  </g>
  <g transform="translate(60.7,177.28)">
    <path fill="none" d="M-2.14,1.37 L 2.14 -1.37" class="primitive"/>
  </g>
  <g transform="translate(60.31,175.59)">
    <path fill="none" d="M-2.52,-0.32 L 2.52 0.32" class="primitive"/>
  </g>
  <g transform="translate(39.88,181.09)">
    <path fill="none" d="M-22.95,5.18 L 22.95 -5.18" class="primitive"/>
  </g>
  <g transform="translate(162.67,67.6)">
    <path fill="none" d="M0.76,-2.42 L -0.76 2.42" class="primitive"/>
  </g>
  <g transform="translate(164.05,68.65)">
    <path fill="none" d="M2.14,-1.37 L -2.14 1.37" class="primitive"/>
  </g>
  <g transform="translate(166.39,64.17)">
    <path fill="none" d="M4.48,-5.85 L -4.48 5.85" class="primitive"/>
  </g>
  <g transform="translate(180.41,66.4)">
    <path fill="none" d="M-2.44,-0.71 L 2.44 0.71" class="primitive"/>
  </g>
  <g transform="translate(181.44,65)">
    <path fill="none" d="M-1.41,-2.11 L 1.41 2.11" class="primitive"/>
  </g>
  <g transform="translate(176.86,62.72)">
    <path fill="none" d="M-5.99,-4.39 L 5.99 4.39" class="primitive"/>
  </g>
  <g transform="translate(160.45,120.87)">
    <path fill="none" d="M-0.51,2.49 L 0.51 -2.49" class="primitive"/>
  </g>
  <g transform="translate(158.97,119.96)">
    <path fill="none" d="M-1.99,1.58 L 1.99 -1.58" class="primitive"/>
  </g>
  <g transform="translate(150.52,135.39)">
    <path fill="none" d="M-10.44,17.01 L 10.44 -17.01" class="primitive"/>
  </g>
  <g transform="translate(176.05,146.89)">
    <path fill="none" d="M-2.2,1.27 L 2.2 -1.27" class="primitive"/>
  </g>
  <g transform="translate(175.75,145.18)">
    <path fill="none" d="M-2.5,-0.44 L 2.5 0.44" class="primitive"/>
  </g>
  <g transform="translate(159.17,149.01)">
    <path fill="none" d="M-19.08,3.39 L 19.08 -3.39" class="primitive"/>
  </g>
  <g transform="translate(112.89,87.58)">
    <path fill="none" d="M0.46,2.5 L -0.46 -2.5" class="primitive"/>
  </g>
  <g transform="translate(111.18,87.28)">
    <path fill="none" d="M-1.26,2.21 L 1.26 -2.21" class="primitive"/>
  </g>
  <g transform="translate(108.94,105.57)">
    <path fill="none" d="M-3.49,20.49 L 3.49 -20.49" class="primitive"/>
  </g>
  <g transform="translate(96.86,98.18)">
    <path fill="none" d="M1.59,1.98 L -1.59 -1.98" class="primitive"/>
  </g>
  <g transform="translate(95.22,98.74)">
    <path fill="none" d="M-0.05,2.54 L 0.05 -2.54" class="primitive"/>
  </g>
  <g transform="translate(100.36,111.13)">
    <path fill="none" d="M5.09,14.93 L -5.09 -14.93" class="primitive"/>
  </g>
  <g transform="translate(107.87,85)">
    <path fill="none" d="M-1.62,1.96 L 1.62 -1.96" class="primitive"/>
  </g>
  <g transform="translate(107,83.5)">
    <path fill="none" d="M-2.5,0.46 L 2.5 -0.46" class="primitive"/>
  </g>
  <g transform="translate(101.7,87.62)">
    <path fill="none" d="M-7.8,4.57 L 7.8 -4.57" class="primitive"/>
  </g>
  <g transform="translate(102.49,120.07)">
    <path fill="none" d="M-1.59,-1.98 L 1.59 1.98" class="primitive"/>
  </g>
  <g transform="translate(104.13,119.51)">
    <path fill="none" d="M0.05,-2.54 L -0.05 2.54" class="primitive"/>
  </g>
  <g transform="translate(98.99,107.12)">
    <path fill="none" d="M-5.09,-14.93 L 5.09 14.93" class="primitive"/>
  </g>
</g>
<g stroke="#BBBBBB" fill="#AAAAFF" id="img-a57bb0b5-2">
  <g transform="translate(51.57,152.4)">
    <circle cx="0" cy="0" r="4.23" class="primitive"/>
  </g>
  <g transform="translate(132.39,186.27)">
    <circle cx="0" cy="0" r="4.23" class="primitive"/>
  </g>
  <g transform="translate(143.93,16.93)">
    <circle cx="0" cy="0" r="4.23" class="primitive"/>
  </g>
  <g transform="translate(159.33,73.38)">
    <circle cx="0" cy="0" r="4.23" class="primitive"/>
  </g>
  <g transform="translate(24.63,20.7)">
    <circle cx="0" cy="0" r="4.23" class="primitive"/>
  </g>
  <g transform="translate(24.63,137.35)">
    <circle cx="0" cy="0" r="4.23" class="primitive"/>
  </g>
  <g transform="translate(66.96,174.98)">
    <circle cx="0" cy="0" r="4.23" class="primitive"/>
  </g>
  <g transform="translate(163.18,114.77)">
    <circle cx="0" cy="0" r="4.23" class="primitive"/>
  </g>
  <g transform="translate(163.18,58.33)">
    <circle cx="0" cy="0" r="4.23" class="primitive"/>
  </g>
  <g transform="translate(182.42,144.87)">
    <circle cx="0" cy="0" r="4.23" class="primitive"/>
  </g>
  <g transform="translate(36.18,73.38)">
    <circle cx="0" cy="0" r="4.23" class="primitive"/>
  </g>
  <g transform="translate(186.27,69.61)">
    <circle cx="0" cy="0" r="4.23" class="primitive"/>
  </g>
  <g transform="translate(82.36,31.99)">
    <circle cx="0" cy="0" r="4.23" class="primitive"/>
  </g>
  <g transform="translate(182.42,129.82)">
    <circle cx="0" cy="0" r="4.23" class="primitive"/>
  </g>
  <g transform="translate(113.15,80.9)">
    <circle cx="0" cy="0" r="4.23" class="primitive"/>
  </g>
  <g transform="translate(105.45,126.06)">
    <circle cx="0" cy="0" r="4.23" class="primitive"/>
  </g>
  <g transform="translate(16.93,186.27)">
    <circle cx="0" cy="0" r="4.23" class="primitive"/>
  </g>
  <g transform="translate(128.54,54.56)">
    <circle cx="0" cy="0" r="4.23" class="primitive"/>
  </g>
  <g transform="translate(70.81,31.99)">
    <circle cx="0" cy="0" r="4.23" class="primitive"/>
  </g>
  <g transform="translate(136.24,174.98)">
    <circle cx="0" cy="0" r="4.23" class="primitive"/>
  </g>
  <g transform="translate(170.87,58.33)">
    <circle cx="0" cy="0" r="4.23" class="primitive"/>
  </g>
  <g transform="translate(186.27,174.98)">
    <circle cx="0" cy="0" r="4.23" class="primitive"/>
  </g>
  <g transform="translate(140.08,152.4)">
    <circle cx="0" cy="0" r="4.23" class="primitive"/>
  </g>
  <g transform="translate(105.45,126.06)">
    <circle cx="0" cy="0" r="4.23" class="primitive"/>
  </g>
  <g transform="translate(93.9,92.19)">
    <circle cx="0" cy="0" r="4.23" class="primitive"/>
  </g>
</g>
<g font-size="4" stroke="#000000" stroke-opacity="0.000" fill="#000000" id="img-a57bb0b5-3">
</g>
</svg>
