<?xml version="1.0" encoding="UTF-8"?>
<svg xmlns="http://www.w3.org/2000/svg"
     xmlns:xlink="http://www.w3.org/1999/xlink"
     version="1.2"
     width="203.2mm" height="203.2mm" viewBox="0 0 203.2 203.2"
     stroke="none"
     fill="#000000"
     stroke-width="0.3"
     font-size="3.88"
>
<g stroke-width="0.67" stroke="#BBBBBB" id="img-8702b66a-1">
  <g transform="translate(180.23,31.59)">
    <path fill="none" d="M-1.88,2.13 L 1.88 -2.13" class="primitive"/>
  </g>
  <g transform="translate(179.3,29.89)">
    <path fill="none" d="M-2.81,0.43 L 2.81 -0.43" class="primitive"/>
  </g>
  <g transform="translate(174.78,33.46)">
    <path fill="none" d="M-7.33,4 L 7.33 -4" class="primitive"/>
  </g>
  <g transform="translate(169.95,34.33)">
    <path fill="none" d="M-0.23,2.83 L 0.23 -2.83" class="primitive"/>
  </g>
  <g transform="translate(168.19,33.52)">
    <path fill="none" d="M-1.99,2.02 L 1.99 -2.02" class="primitive"/>
  </g>
  <g transform="translate(168.82,34.48)">
    <path fill="none" d="M-1.37,2.98 L 1.37 -2.98" class="primitive"/>
  </g>
  <g transform="translate(46.79,35.31)">
    <path fill="none" d="M0.01,-2.84 L -0.01 2.84" class="primitive"/>
  </g>
  <g transform="translate(48.62,35.98)">
    <path fill="none" d="M1.83,-2.17 L -1.83 2.17" class="primitive"/>
  </g>
  <g transform="translate(50.67,27.54)">
    <path fill="none" d="M3.89,-10.61 L -3.89 10.61" class="primitive"/>
  </g>
  <g transform="translate(103.87,40.41)">
    <path fill="none" d="M-2.83,-0.22 L 2.83 0.22" class="primitive"/>
  </g>
  <g transform="translate(104.67,38.64)">
    <path fill="none" d="M-2.03,-1.99 L 2.03 1.99" class="primitive"/>
  </g>
  <g transform="translate(80.63,28.78)">
    <path fill="none" d="M-26.07,-11.85 L 26.07 11.85" class="primitive"/>
  </g>
  <g transform="translate(173.48,33.06)">
    <path fill="none" d="M1.88,-2.13 L -1.88 2.13" class="primitive"/>
  </g>
  <g transform="translate(174.41,34.77)">
    <path fill="none" d="M2.81,-0.43 L -2.81 0.43" class="primitive"/>
  </g>
  <g transform="translate(178.94,31.19)">
    <path fill="none" d="M7.33,-4 L -7.33 4" class="primitive"/>
  </g>
  <g transform="translate(179.56,26.22)">
    <path fill="none" d="M2.67,-0.97 L -2.67 0.97" class="primitive"/>
  </g>
  <g transform="translate(179.56,28.17)">
    <path fill="none" d="M2.67,0.97 L -2.67 -0.97" class="primitive"/>
  </g>
  <g transform="translate(181.58,27.2)">
    <path fill="none" d="M4.69,0 L -4.69 0" class="primitive"/>
  </g>
  <g transform="translate(35.76,170.19)">
    <path fill="none" d="M-2.22,-1.77 L 2.22 1.77" class="primitive"/>
  </g>
  <g transform="translate(37.42,169.18)">
    <path fill="none" d="M-0.56,-2.78 L 0.56 2.78" class="primitive"/>
  </g>
  <g transform="translate(29.81,158.59)">
    <path fill="none" d="M-8.17,-13.37 L 8.17 13.37" class="primitive"/>
  </g>
  <g transform="translate(49.17,181.1)">
    <path fill="none" d="M-2.43,-1.47 L 2.43 1.47" class="primitive"/>
  </g>
  <g transform="translate(50.69,179.89)">
    <path fill="none" d="M-0.91,-2.69 L 0.91 2.69" class="primitive"/>
  </g>
  <g transform="translate(36.62,163.9)">
    <path fill="none" d="M-14.98,-18.68 L 14.98 18.68" class="primitive"/>
  </g>
  <g transform="translate(26.33,151.03)">
    <path fill="none" d="M2.22,1.77 L -2.22 -1.77" class="primitive"/>
  </g>
  <g transform="translate(24.67,152.04)">
    <path fill="none" d="M0.56,2.78 L -0.56 -2.78" class="primitive"/>
  </g>
  <g transform="translate(32.28,162.63)">
    <path fill="none" d="M8.17,13.37 L -8.17 -13.37" class="primitive"/>
  </g>
  <g transform="translate(48.01,182.7)">
    <path fill="none" d="M-2.73,-0.78 L 2.73 0.78" class="primitive"/>
  </g>
  <g transform="translate(49.15,181.13)">
    <path fill="none" d="M-1.59,-2.36 L 1.59 2.36" class="primitive"/>
  </g>
  <g transform="translate(45.59,179.74)">
    <path fill="none" d="M-5.14,-3.74 L 5.14 3.74" class="primitive"/>
  </g>
  <g transform="translate(169.65,30.33)">
    <path fill="none" d="M0.23,-2.83 L -0.23 2.83" class="primitive"/>
  </g>
  <g transform="translate(171.42,31.13)">
    <path fill="none" d="M1.99,-2.02 L -1.99 2.02" class="primitive"/>
  </g>
  <g transform="translate(170.79,30.18)">
    <path fill="none" d="M1.37,-2.98 L -1.37 2.98" class="primitive"/>
  </g>
  <g transform="translate(178.87,28.17)">
    <path fill="none" d="M-2.67,0.97 L 2.67 -0.97" class="primitive"/>
  </g>
  <g transform="translate(178.87,26.22)">
    <path fill="none" d="M-2.67,-0.97 L 2.67 0.97" class="primitive"/>
  </g>
  <g transform="translate(176.84,27.2)">
    <path fill="none" d="M-4.69,0 L 4.69 0" class="primitive"/>
  </g>
  <g transform="translate(52.93,24.22)">
    <path fill="none" d="M-0.01,2.84 L 0.01 -2.84" class="primitive"/>
  </g>
  <g transform="translate(51.1,23.55)">
    <path fill="none" d="M-1.83,2.17 L 1.83 -2.17" class="primitive"/>
  </g>
  <g transform="translate(49.04,31.98)">
    <path fill="none" d="M-3.89,10.61 L 3.89 -10.61" class="primitive"/>
  </g>
  <g transform="translate(104.57,90.12)">
    <path fill="none" d="M-2.7,-0.87 L 2.7 0.87" class="primitive"/>
  </g>
  <g transform="translate(105.77,88.59)">
    <path fill="none" d="M-1.51,-2.41 L 1.51 2.41" class="primitive"/>
  </g>
  <g transform="translate(76.21,66.79)">
    <path fill="none" d="M-31.06,-24.2 L 31.06 24.2" class="primitive"/>
  </g>
  <g transform="translate(151.4,58.02)">
    <path fill="none" d="M2.78,-0.6 L -2.78 0.6" class="primitive"/>
  </g>
  <g transform="translate(151.14,59.95)">
    <path fill="none" d="M2.51,1.32 L -2.51 -1.32" class="primitive"/>
  </g>
  <g transform="translate(165.09,60.87)">
    <path fill="none" d="M16.47,2.25 L -16.47 -2.25" class="primitive"/>
  </g>
  <g transform="translate(159.96,69.94)">
    <path fill="none" d="M2.18,-1.82 L -2.18 1.82" class="primitive"/>
  </g>
  <g transform="translate(160.63,71.76)">
    <path fill="none" d="M2.84,0 L -2.84 -0" class="primitive"/>
  </g>
  <g transform="translate(169.68,67.44)">
    <path fill="none" d="M11.89,-4.32 L -11.89 4.32" class="primitive"/>
  </g>
  <g transform="translate(61.7,19.11)">
    <path fill="none" d="M2.83,0.22 L -2.83 -0.22" class="primitive"/>
  </g>
  <g transform="translate(60.9,20.88)">
    <path fill="none" d="M2.03,1.99 L -2.03 -1.99" class="primitive"/>
  </g>
  <g transform="translate(84.94,30.74)">
    <path fill="none" d="M26.07,11.85 L -26.07 -11.85" class="primitive"/>
  </g>
  <g transform="translate(110.04,86.5)">
    <path fill="none" d="M-0.97,-2.67 L 0.97 2.67" class="primitive"/>
  </g>
  <g transform="translate(111.98,86.5)">
    <path fill="none" d="M0.97,-2.67 L -0.97 2.67" class="primitive"/>
  </g>
  <g transform="translate(111.01,65.88)">
    <path fill="none" d="M0,-23.29 L 0 23.29" class="primitive"/>
  </g>
  <g transform="translate(174.1,63.08)">
    <path fill="none" d="M-2.78,0.6 L 2.78 -0.6" class="primitive"/>
  </g>
  <g transform="translate(174.36,61.15)">
    <path fill="none" d="M-2.51,-1.32 L 2.51 1.32" class="primitive"/>
  </g>
  <g transform="translate(160.4,60.23)">
    <path fill="none" d="M-16.47,-2.25 L 16.47 2.25" class="primitive"/>
  </g>
  <g transform="translate(148.65,67.57)">
    <path fill="none" d="M-2.22,-1.77 L 2.22 1.77" class="primitive"/>
  </g>
  <g transform="translate(150.31,66.56)">
    <path fill="none" d="M-0.56,-2.78 L 0.56 2.78" class="primitive"/>
  </g>
  <g transform="translate(147.4,63.66)">
    <path fill="none" d="M-3.47,-5.68 L 3.47 5.68" class="primitive"/>
  </g>
  <g transform="translate(27.03,150.38)">
    <path fill="none" d="M2.43,1.47 L -2.43 -1.47" class="primitive"/>
  </g>
  <g transform="translate(25.51,151.6)">
    <path fill="none" d="M0.91,2.69 L -0.91 -2.69" class="primitive"/>
  </g>
  <g transform="translate(39.58,167.59)">
    <path fill="none" d="M14.98,18.68 L -14.98 -18.68" class="primitive"/>
  </g>
  <g transform="translate(47.01,179.57)">
    <path fill="none" d="M2.73,0.78 L -2.73 -0.78" class="primitive"/>
  </g>
  <g transform="translate(45.87,181.14)">
    <path fill="none" d="M1.59,2.36 L -1.59 -2.36" class="primitive"/>
  </g>
  <g transform="translate(49.42,182.53)">
    <path fill="none" d="M5.14,3.74 L -5.14 -3.74" class="primitive"/>
  </g>
  <g transform="translate(174.94,66.56)">
    <path fill="none" d="M-2.18,1.82 L 2.18 -1.82" class="primitive"/>
  </g>
  <g transform="translate(174.28,64.73)">
    <path fill="none" d="M-2.84,-0 L 2.84 0" class="primitive"/>
  </g>
  <g transform="translate(165.23,69.06)">
    <path fill="none" d="M-11.89,4.32 L 11.89 -4.32" class="primitive"/>
  </g>
  <g transform="translate(148.62,63.79)">
    <path fill="none" d="M2.22,1.77 L -2.22 -1.77" class="primitive"/>
  </g>
  <g transform="translate(146.96,64.81)">
    <path fill="none" d="M0.56,2.78 L -0.56 -2.78" class="primitive"/>
  </g>
  <g transform="translate(149.87,67.7)">
    <path fill="none" d="M3.47,5.68 L -3.47 -5.68" class="primitive"/>
  </g>
  <g transform="translate(51.59,46.37)">
    <path fill="none" d="M2.7,0.87 L -2.7 -0.87" class="primitive"/>
  </g>
  <g transform="translate(50.4,47.91)">
    <path fill="none" d="M1.51,2.41 L -1.51 -2.41" class="primitive"/>
  </g>
  <g transform="translate(79.95,69.7)">
    <path fill="none" d="M31.06,24.2 L -31.06 -24.2" class="primitive"/>
  </g>
  <g transform="translate(111.98,49.99)">
    <path fill="none" d="M0.97,2.67 L -0.97 -2.67" class="primitive"/>
  </g>
  <g transform="translate(110.04,49.99)">
    <path fill="none" d="M-0.97,2.67 L 0.97 -2.67" class="primitive"/>
  </g>
  <g transform="translate(111.01,70.61)">
    <path fill="none" d="M0,23.29 L 0 -23.29" class="primitive"/>
  </g>
</g>
<g stroke="#BBBBBB" fill="#AAAAFF" id="img-8702b66a-2">
  <g transform="translate(167.45,37.46)">
    <circle cx="0" cy="0" r="4.73" class="primitive"/>
  </g>
  <g transform="translate(54.56,16.93)">
    <circle cx="0" cy="0" r="4.73" class="primitive"/>
  </g>
  <g transform="translate(186.27,27.2)">
    <circle cx="0" cy="0" r="4.73" class="primitive"/>
  </g>
  <g transform="translate(21.64,145.22)">
    <circle cx="0" cy="0" r="4.73" class="primitive"/>
  </g>
  <g transform="translate(40.45,176)">
    <circle cx="0" cy="0" r="4.73" class="primitive"/>
  </g>
  <g transform="translate(176.86,114.43)">
    <circle cx="0" cy="0" r="4.73" class="primitive"/>
  </g>
  <g transform="translate(172.16,27.2)">
    <circle cx="0" cy="0" r="4.73" class="primitive"/>
  </g>
  <g transform="translate(45.16,42.59)">
    <circle cx="0" cy="0" r="4.73" class="primitive"/>
  </g>
  <g transform="translate(16.93,165.74)">
    <circle cx="0" cy="0" r="4.73" class="primitive"/>
  </g>
  <g transform="translate(120.41,99.03)">
    <circle cx="0" cy="0" r="4.73" class="primitive"/>
  </g>
  <g transform="translate(96.9,155.48)">
    <circle cx="0" cy="0" r="4.73" class="primitive"/>
  </g>
  <g transform="translate(181.56,63.12)">
    <circle cx="0" cy="0" r="4.73" class="primitive"/>
  </g>
  <g transform="translate(111.01,42.59)">
    <circle cx="0" cy="0" r="4.73" class="primitive"/>
  </g>
  <g transform="translate(143.93,57.98)">
    <circle cx="0" cy="0" r="4.73" class="primitive"/>
  </g>
  <g transform="translate(54.56,186.27)">
    <circle cx="0" cy="0" r="4.73" class="primitive"/>
  </g>
  <g transform="translate(153.34,73.38)">
    <circle cx="0" cy="0" r="4.73" class="primitive"/>
  </g>
  <g transform="translate(134.53,140.08)">
    <circle cx="0" cy="0" r="4.73" class="primitive"/>
  </g>
  <g transform="translate(148.64,93.9)">
    <circle cx="0" cy="0" r="4.73" class="primitive"/>
  </g>
  <g transform="translate(139.23,170.87)">
    <circle cx="0" cy="0" r="4.73" class="primitive"/>
  </g>
  <g transform="translate(111.01,93.9)">
    <circle cx="0" cy="0" r="4.73" class="primitive"/>
  </g>
</g>
<g font-size="4" stroke="#000000" stroke-opacity="0.000" fill="#000000" id="img-8702b66a-3">
</g>
</svg>
