<?xml version="1.0" encoding="UTF-8"?>
<svg xmlns="http://www.w3.org/2000/svg"
     xmlns:xlink="http://www.w3.org/1999/xlink"
     version="1.2"
     width="203.2mm" height="203.2mm" viewBox="0 0 203.2 203.2"
     stroke="none"
     fill="#000000"
     stroke-width="0.3"
     font-size="3.88"
>
<g stroke-width="0.95" stroke="#BBBBBB" id="img-f343e759-1">
  <g transform="translate(50.38,40.08)">
    <path fill="none" d="M3.02,-2.65 L -3.02 2.65" class="primitive"/>
  </g>
  <g transform="translate(51.38,42.64)">
    <path fill="none" d="M4.02,-0.09 L -4.02 0.09" class="primitive"/>
  </g>
  <g transform="translate(80.53,29.83)">
    <path fill="none" d="M33.17,-12.9 L -33.17 12.9" class="primitive"/>
  </g>
  <g transform="translate(121.59,49.58)">
    <path fill="none" d="M-2.36,-3.25 L 2.36 3.25" class="primitive"/>
  </g>
  <g transform="translate(124.24,48.82)">
    <path fill="none" d="M0.28,-4.01 L -0.28 4.01" class="primitive"/>
  </g>
  <g transform="translate(118.82,34.88)">
    <path fill="none" d="M-5.13,-17.95 L 5.13 17.95" class="primitive"/>
  </g>
  <g transform="translate(124.94,69.79)">
    <path fill="none" d="M0.55,3.98 L -0.55 -3.98" class="primitive"/>
  </g>
  <g transform="translate(122.25,69.21)">
    <path fill="none" d="M-2.13,3.4 L 2.13 -3.4" class="primitive"/>
  </g>
  <g transform="translate(119.04,90.76)">
    <path fill="none" d="M-5.35,24.95 L 5.35 -24.95" class="primitive"/>
  </g>
  <g transform="translate(112.32,119.35)">
    <path fill="none" d="M-1.37,-3.77 L 1.37 3.77" class="primitive"/>
  </g>
  <g transform="translate(115.07,119.35)">
    <path fill="none" d="M1.37,-3.77 L -1.37 3.77" class="primitive"/>
  </g>
  <g transform="translate(113.7,119.42)">
    <path fill="none" d="M0,-3.71 L 0 3.71" class="primitive"/>
  </g>
  <g transform="translate(104.44,22.01)">
    <path fill="none" d="M-3.02,2.65 L 3.02 -2.65" class="primitive"/>
  </g>
  <g transform="translate(103.44,19.45)">
    <path fill="none" d="M-4.02,0.09 L 4.02 -0.09" class="primitive"/>
  </g>
  <g transform="translate(74.29,32.26)">
    <path fill="none" d="M-33.17,12.9 L 33.17 -12.9" class="primitive"/>
  </g>
  <g transform="translate(39.5,43.78)">
    <path fill="none" d="M3.77,-1.37 L -3.77 1.37" class="primitive"/>
  </g>
  <g transform="translate(39.5,46.53)">
    <path fill="none" d="M3.77,1.37 L -3.77 -1.37" class="primitive"/>
  </g>
  <g transform="translate(38.42,45.16)">
    <path fill="none" d="M2.7,0 L -2.7 0" class="primitive"/>
  </g>
  <g transform="translate(30.4,55.62)">
    <path fill="none" d="M1.37,3.77 L -1.37 -3.77" class="primitive"/>
  </g>
  <g transform="translate(27.65,55.62)">
    <path fill="none" d="M-1.37,3.77 L 1.37 -3.77" class="primitive"/>
  </g>
  <g transform="translate(29.03,112)">
    <path fill="none" d="M-0,60.15 L 0 -60.15" class="primitive"/>
  </g>
  <g transform="translate(104.95,135.73)">
    <path fill="none" d="M-2.76,2.92 L 2.76 -2.92" class="primitive"/>
  </g>
  <g transform="translate(103.72,133.27)">
    <path fill="none" d="M-3.99,0.46 L 3.99 -0.46" class="primitive"/>
  </g>
  <g transform="translate(68.37,152.49)">
    <path fill="none" d="M-39.34,19.67 L 39.34 -19.67" class="primitive"/>
  </g>
  <g transform="translate(117.89,26.62)">
    <path fill="none" d="M2.36,3.25 L -2.36 -3.25" class="primitive"/>
  </g>
  <g transform="translate(115.25,27.38)">
    <path fill="none" d="M-0.28,4.01 L 0.28 -4.01" class="primitive"/>
  </g>
  <g transform="translate(120.66,41.32)">
    <path fill="none" d="M5.13,17.95 L -5.13 -17.95" class="primitive"/>
  </g>
  <g transform="translate(114.55,105.19)">
    <path fill="none" d="M-0.55,-3.98 L 0.55 3.98" class="primitive"/>
  </g>
  <g transform="translate(117.23,105.76)">
    <path fill="none" d="M2.13,-3.4 L -2.13 3.4" class="primitive"/>
  </g>
  <g transform="translate(120.44,84.22)">
    <path fill="none" d="M5.35,-24.95 L -5.35 24.95" class="primitive"/>
  </g>
  <g transform="translate(30.66,46.53)">
    <path fill="none" d="M-3.77,1.37 L 3.77 -1.37" class="primitive"/>
  </g>
  <g transform="translate(30.66,43.78)">
    <path fill="none" d="M-3.77,-1.37 L 3.77 1.37" class="primitive"/>
  </g>
  <g transform="translate(31.73,45.16)">
    <path fill="none" d="M-2.7,0 L 2.7 0" class="primitive"/>
  </g>
  <g transform="translate(27.65,161.69)">
    <path fill="none" d="M-1.37,-3.77 L 1.37 3.77" class="primitive"/>
  </g>
  <g transform="translate(30.4,161.69)">
    <path fill="none" d="M1.37,-3.77 L -1.37 3.77" class="primitive"/>
  </g>
  <g transform="translate(29.03,105.31)">
    <path fill="none" d="M-0,-60.15 L 0 60.15" class="primitive"/>
  </g>
  <g transform="translate(115.07,126.18)">
    <path fill="none" d="M1.37,3.77 L -1.37 -3.77" class="primitive"/>
  </g>
  <g transform="translate(112.32,126.18)">
    <path fill="none" d="M-1.37,3.77 L 1.37 -3.77" class="primitive"/>
  </g>
  <g transform="translate(113.7,126.11)">
    <path fill="none" d="M0,3.71 L 0 -3.71" class="primitive"/>
  </g>
  <g transform="translate(37.78,166.25)">
    <path fill="none" d="M2.76,-2.92 L -2.76 2.92" class="primitive"/>
  </g>
  <g transform="translate(39.01,168.7)">
    <path fill="none" d="M3.99,-0.46 L -3.99 0.46" class="primitive"/>
  </g>
  <g transform="translate(74.36,149.49)">
    <path fill="none" d="M39.34,-19.67 L -39.34 19.67" class="primitive"/>
  </g>
</g>
<g stroke="#BBBBBB" fill="#AAAAFF" id="img-f343e759-2">
  <g transform="translate(113.7,16.93)">
    <circle cx="0" cy="0" r="6.69" class="primitive"/>
  </g>
  <g transform="translate(113.7,115.71)">
    <circle cx="0" cy="0" r="6.69" class="primitive"/>
  </g>
  <g transform="translate(16.93,186.27)">
    <circle cx="0" cy="0" r="6.69" class="primitive"/>
  </g>
  <g transform="translate(41.12,45.16)">
    <circle cx="0" cy="0" r="6.69" class="primitive"/>
  </g>
  <g transform="translate(29.03,172.16)">
    <circle cx="0" cy="0" r="6.69" class="primitive"/>
  </g>
  <g transform="translate(186.27,45.16)">
    <circle cx="0" cy="0" r="6.69" class="primitive"/>
  </g>
  <g transform="translate(125.79,59.27)">
    <circle cx="0" cy="0" r="6.69" class="primitive"/>
  </g>
  <g transform="translate(29.03,45.16)">
    <circle cx="0" cy="0" r="6.69" class="primitive"/>
  </g>
  <g transform="translate(149.98,59.27)">
    <circle cx="0" cy="0" r="6.69" class="primitive"/>
  </g>
  <g transform="translate(113.7,129.82)">
    <circle cx="0" cy="0" r="6.69" class="primitive"/>
  </g>
</g>
<g font-size="4" stroke="#000000" stroke-opacity="0.000" fill="#000000" id="img-f343e759-3">
</g>
</svg>
