<?xml version="1.0" encoding="UTF-8"?>
<svg xmlns="http://www.w3.org/2000/svg"
     xmlns:xlink="http://www.w3.org/1999/xlink"
     version="1.2"
     width="203.2mm" height="203.2mm" viewBox="0 0 203.2 203.2"
     stroke="none"
     fill="#000000"
     stroke-width="0.3"
     font-size="3.88"
>
<g stroke-width="0.6" stroke="#BBBBBB" id="img-df6b108c-1">
  <g transform="translate(161.7,108.26)">
    <path fill="none" d="M-1.09,-2.3 L 1.09 2.3" class="primitive"/>
  </g>
  <g transform="translate(163.43,108.1)">
    <path fill="none" d="M0.64,-2.46 L -0.64 2.46" class="primitive"/>
  </g>
  <g transform="translate(161.06,91.97)">
    <path fill="none" d="M-1.73,-18.59 L 1.73 18.59" class="primitive"/>
  </g>
  <g transform="translate(119.54,78.98)">
    <path fill="none" d="M2.22,-1.24 L -2.22 1.24" class="primitive"/>
  </g>
  <g transform="translate(119.82,80.7)">
    <path fill="none" d="M2.5,0.47 L -2.5 -0.47" class="primitive"/>
  </g>
  <g transform="translate(138.33,76.8)">
    <path fill="none" d="M21,-3.42 L -21 3.42" class="primitive"/>
  </g>
  <g transform="translate(160.81,79.89)">
    <path fill="none" d="M1.09,2.3 L -1.09 -2.3" class="primitive"/>
  </g>
  <g transform="translate(159.08,80.05)">
    <path fill="none" d="M-0.64,2.46 L 0.64 -2.46" class="primitive"/>
  </g>
  <g transform="translate(161.45,96.18)">
    <path fill="none" d="M1.73,18.59 L -1.73 -18.59" class="primitive"/>
  </g>
  <g transform="translate(176.67,126.43)">
    <path fill="none" d="M-2.42,-0.79 L 2.42 0.79" class="primitive"/>
  </g>
  <g transform="translate(177.74,125.06)">
    <path fill="none" d="M-1.34,-2.15 L 1.34 2.15" class="primitive"/>
  </g>
  <g transform="translate(171.13,120.99)">
    <path fill="none" d="M-7.95,-6.22 L 7.95 6.22" class="primitive"/>
  </g>
  <g transform="translate(183.29,136.44)">
    <path fill="none" d="M0.87,2.39 L -0.87 -2.39" class="primitive"/>
  </g>
  <g transform="translate(181.55,136.44)">
    <path fill="none" d="M-0.87,2.39 L 0.87 -2.39" class="primitive"/>
  </g>
  <g transform="translate(182.42,139.46)">
    <path fill="none" d="M0,5.41 L 0 -5.41" class="primitive"/>
  </g>
  <g transform="translate(100.04,94.83)">
    <path fill="none" d="M2.5,0.47 L -2.5 -0.47" class="primitive"/>
  </g>
  <g transform="translate(99.15,96.32)">
    <path fill="none" d="M1.61,1.97 L -1.61 -1.97" class="primitive"/>
  </g>
  <g transform="translate(139.98,119.62)">
    <path fill="none" d="M42.44,25.26 L -42.44 -25.26" class="primitive"/>
  </g>
  <g transform="translate(168.93,118.16)">
    <path fill="none" d="M2.42,0.79 L -2.42 -0.79" class="primitive"/>
  </g>
  <g transform="translate(167.85,119.53)">
    <path fill="none" d="M1.34,2.15 L -1.34 -2.15" class="primitive"/>
  </g>
  <g transform="translate(174.46,123.6)">
    <path fill="none" d="M7.95,6.22 L -7.95 -6.22" class="primitive"/>
  </g>
  <g transform="translate(181.55,138.25)">
    <path fill="none" d="M-0.87,-2.39 L 0.87 2.39" class="primitive"/>
  </g>
  <g transform="translate(183.29,138.25)">
    <path fill="none" d="M0.87,-2.39 L -0.87 2.39" class="primitive"/>
  </g>
  <g transform="translate(182.42,135.23)">
    <path fill="none" d="M0,-5.41 L 0 5.41" class="primitive"/>
  </g>
  <g transform="translate(152.93,75.3)">
    <path fill="none" d="M-2.22,1.24 L 2.22 -1.24" class="primitive"/>
  </g>
  <g transform="translate(152.65,73.59)">
    <path fill="none" d="M-2.5,-0.47 L 2.5 0.47" class="primitive"/>
  </g>
  <g transform="translate(134.15,77.48)">
    <path fill="none" d="M-21,3.42 L 21 -3.42" class="primitive"/>
  </g>
  <g transform="translate(99.17,88.09)">
    <path fill="none" d="M1.62,-1.96 L -1.62 1.96" class="primitive"/>
  </g>
  <g transform="translate(100.05,89.59)">
    <path fill="none" d="M2.5,-0.46 L -2.5 0.46" class="primitive"/>
  </g>
  <g transform="translate(105.35,85.48)">
    <path fill="none" d="M7.8,-4.57 L -7.8 4.57" class="primitive"/>
  </g>
  <g transform="translate(176.29,142.23)">
    <path fill="none" d="M-2.5,-0.47 L 2.5 0.47" class="primitive"/>
  </g>
  <g transform="translate(177.17,140.74)">
    <path fill="none" d="M-1.61,-1.97 L 1.61 1.97" class="primitive"/>
  </g>
  <g transform="translate(136.34,117.45)">
    <path fill="none" d="M-42.44,-25.26 L 42.44 25.26" class="primitive"/>
  </g>
  <g transform="translate(107.87,85)">
    <path fill="none" d="M-1.62,1.96 L 1.62 -1.96" class="primitive"/>
  </g>
  <g transform="translate(107,83.5)">
    <path fill="none" d="M-2.5,0.46 L 2.5 -0.46" class="primitive"/>
  </g>
  <g transform="translate(101.7,87.62)">
    <path fill="none" d="M-7.8,4.57 L 7.8 -4.57" class="primitive"/>
  </g>
</g>
<g stroke="#BBBBBB" fill="#AAAAFF" id="img-df6b108c-2">
  <g transform="translate(51.57,152.4)">
    <circle cx="0" cy="0" r="4.23" class="primitive"/>
  </g>
  <g transform="translate(132.39,186.27)">
    <circle cx="0" cy="0" r="4.23" class="primitive"/>
  </g>
  <g transform="translate(143.93,16.93)">
    <circle cx="0" cy="0" r="4.23" class="primitive"/>
  </g>
  <g transform="translate(159.33,73.38)">
    <circle cx="0" cy="0" r="4.23" class="primitive"/>
  </g>
  <g transform="translate(24.63,20.7)">
    <circle cx="0" cy="0" r="4.23" class="primitive"/>
  </g>
  <g transform="translate(24.63,137.35)">
    <circle cx="0" cy="0" r="4.23" class="primitive"/>
  </g>
  <g transform="translate(66.96,174.98)">
    <circle cx="0" cy="0" r="4.23" class="primitive"/>
  </g>
  <g transform="translate(163.18,114.77)">
    <circle cx="0" cy="0" r="4.23" class="primitive"/>
  </g>
  <g transform="translate(163.18,58.33)">
    <circle cx="0" cy="0" r="4.23" class="primitive"/>
  </g>
  <g transform="translate(182.42,144.87)">
    <circle cx="0" cy="0" r="4.23" class="primitive"/>
  </g>
  <g transform="translate(36.18,73.38)">
    <circle cx="0" cy="0" r="4.23" class="primitive"/>
  </g>
  <g transform="translate(186.27,69.61)">
    <circle cx="0" cy="0" r="4.23" class="primitive"/>
  </g>
  <g transform="translate(82.36,31.99)">
    <circle cx="0" cy="0" r="4.23" class="primitive"/>
  </g>
  <g transform="translate(182.42,129.82)">
    <circle cx="0" cy="0" r="4.23" class="primitive"/>
  </g>
  <g transform="translate(113.15,80.9)">
    <circle cx="0" cy="0" r="4.23" class="primitive"/>
  </g>
  <g transform="translate(105.45,126.06)">
    <circle cx="0" cy="0" r="4.23" class="primitive"/>
  </g>
  <g transform="translate(16.93,186.27)">
    <circle cx="0" cy="0" r="4.23" class="primitive"/>
  </g>
  <g transform="translate(128.54,54.56)">
    <circle cx="0" cy="0" r="4.23" class="primitive"/>
  </g>
  <g transform="translate(70.81,31.99)">
    <circle cx="0" cy="0" r="4.23" class="primitive"/>
  </g>
  <g transform="translate(136.24,174.98)">
    <circle cx="0" cy="0" r="4.23" class="primitive"/>
  </g>
  <g transform="translate(170.87,58.33)">
    <circle cx="0" cy="0" r="4.23" class="primitive"/>
  </g>
  <g transform="translate(186.27,174.98)">
    <circle cx="0" cy="0" r="4.23" class="primitive"/>
  </g>
  <g transform="translate(140.08,152.4)">
    <circle cx="0" cy="0" r="4.23" class="primitive"/>
  </g>
  <g transform="translate(105.45,126.06)">
    <circle cx="0" cy="0" r="4.23" class="primitive"/>
  </g>
  <g transform="translate(93.9,92.19)">
    <circle cx="0" cy="0" r="4.23" class="primitive"/>
  </g>
</g>
<g font-size="4" stroke="#000000" stroke-opacity="0.000" fill="#000000" id="img-df6b108c-3">
</g>
</svg>
