<?xml version="1.0" encoding="UTF-8"?>
<svg xmlns="http://www.w3.org/2000/svg"
     xmlns:xlink="http://www.w3.org/1999/xlink"
     version="1.2"
     width="203.2mm" height="203.2mm" viewBox="0 0 203.2 203.2"
     stroke="none"
     fill="#000000"
     stroke-width="0.3"
     font-size="3.88"
>
<g stroke-width="0.67" stroke="#BBBBBB" id="img-2129dccd-1">
  <g transform="translate(43.79,142.78)">
    <path fill="none" d="M2,2.02 L -2 -2.02" class="primitive"/>
  </g>
  <g transform="translate(42.02,143.59)">
    <path fill="none" d="M0.23,2.83 L -0.23 -2.83" class="primitive"/>
  </g>
  <g transform="translate(47.67,153.55)">
    <path fill="none" d="M5.88,12.79 L -5.88 -12.79" class="primitive"/>
  </g>
  <g transform="translate(91.58,108.37)">
    <path fill="none" d="M-0.61,2.77 L 0.61 -2.77" class="primitive"/>
  </g>
  <g transform="translate(89.94,107.32)">
    <path fill="none" d="M-2.25,1.73 L 2.25 -1.73" class="primitive"/>
  </g>
  <g transform="translate(72.87,135.97)">
    <path fill="none" d="M-19.32,30.38 L 19.32 -30.38" class="primitive"/>
  </g>
  <g transform="translate(49.57,160.02)">
    <path fill="none" d="M-2,-2.02 L 2 2.02" class="primitive"/>
  </g>
  <g transform="translate(51.34,159.21)">
    <path fill="none" d="M-0.23,-2.83 L 0.23 2.83" class="primitive"/>
  </g>
  <g transform="translate(45.69,149.25)">
    <path fill="none" d="M-5.88,-12.79 L 5.88 12.79" class="primitive"/>
  </g>
  <g transform="translate(89.01,106.39)">
    <path fill="none" d="M-1.73,2.25 L 1.73 -2.25" class="primitive"/>
  </g>
  <g transform="translate(87.97,104.75)">
    <path fill="none" d="M-2.77,0.61 L 2.77 -0.61" class="primitive"/>
  </g>
  <g transform="translate(65.28,120.3)">
    <path fill="none" d="M-25.46,16.16 L 25.46 -16.16" class="primitive"/>
  </g>
  <g transform="translate(56.7,159.58)">
    <path fill="none" d="M0.61,-2.77 L -0.61 2.77" class="primitive"/>
  </g>
  <g transform="translate(58.34,160.62)">
    <path fill="none" d="M2.25,-1.73 L -2.25 1.73" class="primitive"/>
  </g>
  <g transform="translate(75.41,131.98)">
    <path fill="none" d="M19.32,-30.38 L -19.32 30.38" class="primitive"/>
  </g>
  <g transform="translate(45.54,131.68)">
    <path fill="none" d="M1.73,-2.25 L -1.73 2.25" class="primitive"/>
  </g>
  <g transform="translate(46.59,133.32)">
    <path fill="none" d="M2.77,-0.61 L -2.77 0.61" class="primitive"/>
  </g>
  <g transform="translate(69.27,117.76)">
    <path fill="none" d="M25.46,-16.16 L -25.46 16.16" class="primitive"/>
  </g>
</g>
<g stroke="#BBBBBB" fill="#AAAAFF" id="img-2129dccd-2">
  <g transform="translate(53.55,166.35)">
    <circle cx="0" cy="0" r="4.73" class="primitive"/>
  </g>
  <g transform="translate(39.82,136.46)">
    <circle cx="0" cy="0" r="4.73" class="primitive"/>
  </g>
  <g transform="translate(131.35,16.93)">
    <circle cx="0" cy="0" r="4.73" class="primitive"/>
  </g>
  <g transform="translate(135.92,186.27)">
    <circle cx="0" cy="0" r="4.73" class="primitive"/>
  </g>
  <g transform="translate(113.04,61.76)">
    <circle cx="0" cy="0" r="4.73" class="primitive"/>
  </g>
  <g transform="translate(186.27,81.68)">
    <circle cx="0" cy="0" r="4.73" class="primitive"/>
  </g>
  <g transform="translate(181.69,146.42)">
    <circle cx="0" cy="0" r="4.73" class="primitive"/>
  </g>
  <g transform="translate(26.09,161.36)">
    <circle cx="0" cy="0" r="4.73" class="primitive"/>
  </g>
  <g transform="translate(30.66,21.91)">
    <circle cx="0" cy="0" r="4.73" class="primitive"/>
  </g>
  <g transform="translate(81.01,161.36)">
    <circle cx="0" cy="0" r="4.73" class="primitive"/>
  </g>
  <g transform="translate(48.97,161.36)">
    <circle cx="0" cy="0" r="4.73" class="primitive"/>
  </g>
  <g transform="translate(131.35,86.66)">
    <circle cx="0" cy="0" r="4.73" class="primitive"/>
  </g>
  <g transform="translate(26.09,36.85)">
    <circle cx="0" cy="0" r="4.73" class="primitive"/>
  </g>
  <g transform="translate(113.04,106.58)">
    <circle cx="0" cy="0" r="4.73" class="primitive"/>
  </g>
  <g transform="translate(163.38,136.46)">
    <circle cx="0" cy="0" r="4.73" class="primitive"/>
  </g>
  <g transform="translate(85.58,166.35)">
    <circle cx="0" cy="0" r="4.73" class="primitive"/>
  </g>
  <g transform="translate(16.93,131.48)">
    <circle cx="0" cy="0" r="4.73" class="primitive"/>
  </g>
  <g transform="translate(181.69,76.7)">
    <circle cx="0" cy="0" r="4.73" class="primitive"/>
  </g>
  <g transform="translate(177.11,181.29)">
    <circle cx="0" cy="0" r="4.73" class="primitive"/>
  </g>
  <g transform="translate(94.74,101.6)">
    <circle cx="0" cy="0" r="4.73" class="primitive"/>
  </g>
</g>
<g font-size="4" stroke="#000000" stroke-opacity="0.000" fill="#000000" id="img-2129dccd-3">
</g>
</svg>
